<svg id="Layer_1" data-name="Layer 1" xmlns="http://www.w3.org/2000/svg" viewBox="0 0 440.589 361.497"><defs><style>.cls-1{fill:#fff;}.cls-2{fill:#333;}.cls-3{fill:#3477b2;}</style></defs><g id="layer1"><path id="path1939" class="cls-1" d="M89.451,460.873c19.021-25.642,117.067-158.248,132.4-179.365s37.37-24.6,63.775-7.088,19.171,12.243,35.088,22.852l-54.3,77.148c-11.9-4.825-25.177-9.852-40.21,13.066s-42.586,51.914-70.06,92.328-85.719,6.7-66.695-18.941Z" transform="translate(-85.705 -215.251)"/><path id="path1941" class="cls-2" d="M94.659,462.177c15.522-21.334,121.146-166.435,132.407-179.361s27.946-22.445,56.116-5.357c6.459,3.919,19.173,12.246,35.091,22.858l-48.818,68.818c-11.9-4.828-30.476-7.35-43.5,12.5-17.043,25.981-61.132,86.286-74.569,98.068-22.578,28.051-72.245,3.809-56.727-17.53Zm78.953,42.046c-6.647-17.148,1.153-39.049,29.087-41Z" transform="translate(-85.705 -215.251)"/><polygon id="polygon1943" class="cls-1" points="258.949 0 305.093 34.605 81.494 327.712 18.896 361.497 35.413 293.03 258.949 0"/><polygon id="polygon1945" class="cls-3" points="259.873 6.646 298.397 35.532 78.33 324.01 26.028 352.24 39.808 295.121 259.873 6.646"/><path id="path1947" class="cls-1" d="M343.962,312.144c53.1,35.719,120,81.6,131.75,89.192,11.658,7.532,34.7,11.355,47.93,11.7L521.1,528.982c-62.615-.273-274.242.2-317.13.375-48.12.2-50.351-68.615,1.532-69.669s64.974-3.393,81.533-7.422,32.751-15.047,20.032-33.859-15.271-22.828-21.534-30.662l58.433-75.6Z" transform="translate(-85.705 -215.251)"/><path id="path1949" class="cls-2" d="M340.8,315.409c53.1,35.722,122.312,83.093,131.75,89.19,13.957,9.019,37.754,12.852,50.993,13.193l-2.344,106.681c-63.67-.232-282,.457-317.128.362-39.355-.1-48.093-60.635,1.356-61.74s64.933-1.449,81.491-5.478,40.682-16.94,25.038-40.077c-9.794-14.477-17.156-25.794-23.419-33.622L340.8,315.409Z" transform="translate(-85.705 -215.251)"/></g><rect class="cls-1" x="435.39" y="202.003" width="5.199" height="107.587"/></svg>