<?xml version="1.0" standalone="no"?>
<!DOCTYPE svg PUBLIC "-//W3C//DTD SVG 20010904//EN"
 "http://www.w3.org/TR/2001/REC-SVG-20010904/DTD/svg10.dtd">
<svg version="1.0" xmlns="http://www.w3.org/2000/svg"
 width="882.000000pt" height="882.000000pt" viewBox="0 0 882.000000 882.000000"
 preserveAspectRatio="xMidYMid meet">
<metadata>
Created by potrace 1.14, written by Peter Selinger 2001-2017
</metadata>
<g transform="translate(0.000000,882.000000) scale(0.100000,-0.100000)"
fill="#000000" stroke="none">
<path d="M4875 7477 c-299 -394 -564 -742 -1964 -2577 -1753 -2299 -2106
-2763 -2114 -2776 -5 -9 -87 -344 -252 -1027 -14 -60 -25 -113 -23 -117 2 -5
239 119 527 275 l524 283 142 188 143 187 -54 65 c-268 325 -203 802 140 1023
131 85 304 129 511 129 66 0 170 3 231 6 l110 7 96 126 c52 69 243 320 424
556 180 237 811 1065 1403 1840 591 776 1117 1465 1168 1532 l94 122 -381 286
c-210 157 -387 288 -393 290 -7 2 -156 -186 -332 -418z"/>
<path d="M3225 6951 c-140 -42 -236 -104 -356 -228 -136 -142 -765 -988 -2555
-3443 -184 -254 -194 -272 -194 -364 1 -111 52 -200 163 -283 144 -107 292
-153 487 -152 215 1 85 -139 1051 1129 463 608 985 1292 1159 1520 405 531
1117 1466 1147 1506 l23 31 -115 72 c-155 98 -271 156 -385 193 -84 28 -111
32 -230 34 -109 3 -147 0 -195 -15z"/>
<path d="M4969 5853 c-75 -98 -310 -407 -523 -686 -213 -280 -385 -514 -383
-521 3 -7 32 -49 65 -92 77 -103 396 -575 432 -639 47 -85 62 -147 58 -238 -4
-102 -28 -155 -111 -243 -128 -137 -337 -231 -628 -283 -225 -39 -463 -54
-1139 -71 -228 -6 -446 -15 -483 -20 -153 -22 -282 -84 -382 -185 -82 -82
-118 -144 -145 -251 -25 -98 -25 -200 0 -300 61 -240 231 -413 472 -481 74
-21 -246 -19 3786 -15 l2732 2 0 1074 0 1073 -107 12 c-322 36 -604 112 -792
212 -41 22 -417 272 -835 556 -1464 994 -1863 1264 -1876 1271 -3 1 -67 -78
-141 -175z"/>
</g>
</svg>
