<svg class="gridItem__media" version="1.1" id="Layer_1" xmlns="http://www.w3.org/2000/svg" x="0px" y="0px" width="1600" height="1200" viewBox="0 0 1600 1200" style="baseline-shift: 0px; clip-rule: nonzero; color: rgb(61, 61, 61); color-interpolation: srgb; color-interpolation-filters: linearrgb; color-rendering: auto; cursor: auto; direction: ltr; display: block; fill: none; fill-opacity: 1; fill-rule: nonzero; font: 400 16px / 18.4px Lato, sans-serif; image-rendering: auto; letter-spacing: normal; marker: none; overflow: hidden; paint-order: normal; pointer-events: auto; shape-rendering: auto; stroke: none; stroke-dasharray: none; stroke-dashoffset: 0px; stroke-linecap: butt; stroke-linejoin: miter; stroke-miterlimit: 4; stroke-opacity: 1; stroke-width: 1px; text-anchor: start; text-decoration: none solid rgb(61, 61, 61); text-rendering: auto; visibility: visible; word-spacing: 0px; writing-mode: horizontal-tb;" fill="none" xmlns:xlink="http://www.w3.org/1999/xlink">
<path d="M348.7 1047.9L191.5 640.801C190.3 626.501 194.3 612.301 202.7 600.701L456.1 174.001C468.5 156.801 489.1 147.501 510.2 149.301L1144.6 207.901C1166.4 209.801 1181.9 224.301 1194 242.901C1194.1 243.001 1406.8 541.401 1406.8 541.401C1409.4 551.601 1409.4 562.301 1406.6 572.401L1277.8 1050L348.7 1047.9Z" class="change-color-in-svg-3" fill="#00BC7D" style="fill: rgb(128, 49, 85); baseline-shift: 0px; paint-order: normal; text-decoration: none solid rgb(61, 61, 61);"></path>
<path opacity="0.9" d="M348.7 1047.9L191.5 640.801C190.3 626.501 194.3 612.301 202.7 600.701L456.1 174.001C468.5 156.801 489.1 147.501 510.2 149.301L1144.6 207.901C1166.4 209.801 1181.9 224.301 1194 242.901C1194.1 243.001 1406.8 541.401 1406.8 541.401C1409.4 551.601 1409.4 562.301 1406.6 572.401L1277.8 1050L348.7 1047.9Z" fill="white" style="baseline-shift: 0px; fill: rgb(255, 255, 255); opacity: 0.9; paint-order: normal; text-decoration: none solid rgb(61, 61, 61);"></path>
<path d="M1366.2 1051H264.6C263.7 1050.9 263 1050.1 263.1 1049.3C263.2 1048.5 263.8 1047.9 264.6 1047.8H1366.2C1367.1 1047.9 1367.8 1048.7 1367.7 1049.5C1367.6 1050.3 1367 1050.9 1366.2 1051Z" class="change-color-in-svg-3" fill="#00BC7D" style="fill: rgb(128, 49, 85); baseline-shift: 0px; paint-order: normal; text-decoration: none solid rgb(61, 61, 61);"></path>
<path opacity="0.6" d="M1366.2 1051H264.6C263.7 1050.9 263 1050.1 263.1 1049.3C263.2 1048.5 263.8 1047.9 264.6 1047.8H1366.2C1367.1 1047.9 1367.8 1048.7 1367.7 1049.5C1367.6 1050.3 1367 1050.9 1366.2 1051Z" fill="white" style="baseline-shift: 0px; fill: rgb(255, 255, 255); opacity: 0.6; paint-order: normal; text-decoration: none solid rgb(61, 61, 61);"></path>
<path d="M441.7 636.499C500.739 636.499 548.6 588.638 548.6 529.599C548.6 470.56 500.739 422.699 441.7 422.699C382.661 422.699 334.8 470.56 334.8 529.599C334.8 588.638 382.661 636.499 441.7 636.499Z" class="change-color-in-svg-2" fill="#3562FF" style="fill: rgb(21, 112, 117); baseline-shift: 0px; paint-order: normal; text-decoration: none solid rgb(61, 61, 61);"></path>
<path opacity="0.4" d="M441.7 636.499C500.739 636.499 548.6 588.638 548.6 529.599C548.6 470.56 500.739 422.699 441.7 422.699C382.661 422.699 334.8 470.56 334.8 529.599C334.8 588.638 382.661 636.499 441.7 636.499Z" fill="white" style="baseline-shift: 0px; fill: rgb(255, 255, 255); opacity: 0.4; paint-order: normal; text-decoration: none solid rgb(61, 61, 61);"></path>
<path d="M441.7 631.6C498.033 631.6 543.7 585.933 543.7 529.6C543.7 473.267 498.033 427.6 441.7 427.6C385.367 427.6 339.7 473.267 339.7 529.6C339.7 585.933 385.367 631.6 441.7 631.6Z" class="change-color-in-svg-2" fill="#3562FF" style="fill: rgb(21, 112, 117); baseline-shift: 0px; paint-order: normal; text-decoration: none solid rgb(61, 61, 61);"></path>
<path opacity="0.2" d="M441.7 631.6C498.033 631.6 543.7 585.933 543.7 529.6C543.7 473.267 498.033 427.6 441.7 427.6C385.367 427.6 339.7 473.267 339.7 529.6C339.7 585.933 385.367 631.6 441.7 631.6Z" fill="white" style="baseline-shift: 0px; fill: rgb(255, 255, 255); opacity: 0.2; paint-order: normal; text-decoration: none solid rgb(61, 61, 61);"></path>
<path d="M509.261 596.689C546.595 559.355 546.595 498.825 509.261 461.491C471.927 424.157 411.397 424.157 374.064 461.491C336.73 498.825 336.73 559.355 374.064 596.689C411.397 634.022 471.927 634.022 509.261 596.689Z" fill="white" style="baseline-shift: 0px; fill: rgb(255, 255, 255); paint-order: normal; text-decoration: none solid rgb(61, 61, 61);"></path>
<path opacity="0.05" d="M535 508.8C491.5 535.2 420 578.4 380 602.1C368.7 592.6 359.7 580.5 353.9 566.9L486.1 444.4C511.1 457.7 529 481.2 535 508.8Z" fill="black" style="baseline-shift: 0px; fill: rgb(0, 0, 0); opacity: 0.05; paint-order: normal; text-decoration: none solid rgb(61, 61, 61);"></path>
<path opacity="0.05" d="M537.2 532.4C536.9 543 534.7 553.5 530.9 563.4L411.7 619.8C406.5 618.1 401.5 615.9 396.7 613.3C432.6 592.6 498.4 554.7 537.2 532.4Z" fill="black" style="baseline-shift: 0px; fill: rgb(0, 0, 0); opacity: 0.05; paint-order: normal; text-decoration: none solid rgb(61, 61, 61);"></path>
<path d="M442.6 440.5H440.7V455H442.6V440.5Z" class="change-color-in-svg-1" fill="#15247C" style="fill: rgb(40, 47, 79); baseline-shift: 0px; paint-order: normal; text-decoration: none solid rgb(61, 61, 61);"></path>
<path d="M398.254 451.843L396.608 452.793L403.858 465.35L405.504 464.4L398.254 451.843Z" class="change-color-in-svg-1" fill="#15247C" style="fill: rgb(40, 47, 79); baseline-shift: 0px; paint-order: normal; text-decoration: none solid rgb(61, 61, 61);"></path>
<path d="M365.325 483.937L364.375 485.582L376.932 492.832L377.882 491.187L365.325 483.937Z" class="change-color-in-svg-1" fill="#15247C" style="fill: rgb(40, 47, 79); baseline-shift: 0px; paint-order: normal; text-decoration: none solid rgb(61, 61, 61);"></path>
<path d="M367.5 528.199H353V529.999H367.5V528.199Z" class="change-color-in-svg-1" fill="#15247C" style="fill: rgb(40, 47, 79); baseline-shift: 0px; paint-order: normal; text-decoration: none solid rgb(61, 61, 61);"></path>
<path d="M376.956 565.391L364.399 572.641L365.299 574.199L377.856 566.949L376.956 565.391Z" class="change-color-in-svg-1" fill="#15247C" style="fill: rgb(40, 47, 79); baseline-shift: 0px; paint-order: normal; text-decoration: none solid rgb(61, 61, 61);"></path>
<path d="M403.765 592.861L396.522 605.422L398.082 606.321L405.325 593.76L403.765 592.861Z" class="change-color-in-svg-1" fill="#15247C" style="fill: rgb(40, 47, 79); baseline-shift: 0px; paint-order: normal; text-decoration: none solid rgb(61, 61, 61);"></path>
<path d="M442.6 603.301H440.7V617.801H442.6V603.301Z" class="change-color-in-svg-1" fill="#15247C" style="fill: rgb(40, 47, 79); baseline-shift: 0px; paint-order: normal; text-decoration: none solid rgb(61, 61, 61);"></path>
<path d="M479.523 592.79L477.878 593.74L485.128 606.297L486.773 605.347L479.523 592.79Z" class="change-color-in-svg-1" fill="#15247C" style="fill: rgb(40, 47, 79); baseline-shift: 0px; paint-order: normal; text-decoration: none solid rgb(61, 61, 61);"></path>
<path d="M506.315 565.312L505.365 566.957L517.922 574.207L518.872 572.562L506.315 565.312Z" class="change-color-in-svg-1" fill="#15247C" style="fill: rgb(40, 47, 79); baseline-shift: 0px; paint-order: normal; text-decoration: none solid rgb(61, 61, 61);"></path>
<path d="M530.3 528.199H515.8V529.999H530.3V528.199Z" class="change-color-in-svg-1" fill="#15247C" style="fill: rgb(40, 47, 79); baseline-shift: 0px; paint-order: normal; text-decoration: none solid rgb(61, 61, 61);"></path>
<path d="M517.935 483.984L505.378 491.234L506.328 492.88L518.885 485.63L517.935 483.984Z" class="change-color-in-svg-1" fill="#15247C" style="fill: rgb(40, 47, 79); baseline-shift: 0px; paint-order: normal; text-decoration: none solid rgb(61, 61, 61);"></path>
<path d="M485.128 451.892L477.885 464.453L479.531 465.402L486.773 452.841L485.128 451.892Z" class="change-color-in-svg-1" fill="#15247C" style="fill: rgb(40, 47, 79); baseline-shift: 0px; paint-order: normal; text-decoration: none solid rgb(61, 61, 61);"></path>
<path d="M529.6 529.1L436.9 532.9L437 523.9L529.6 526.6V529.1Z" class="change-color-in-svg-1" fill="#15247C" style="fill: rgb(40, 47, 79); baseline-shift: 0px; paint-order: normal; text-decoration: none solid rgb(61, 61, 61);"></path>
<path d="M442.9 463.9L446.3 534.5L437.2 534.3L440.5 463.9H442.9Z" class="change-color-in-svg-1" fill="#15247C" style="fill: rgb(40, 47, 79); baseline-shift: 0px; paint-order: normal; text-decoration: none solid rgb(61, 61, 61);"></path>
<path d="M441.7 532.2C443.412 532.2 444.8 530.812 444.8 529.1C444.8 527.388 443.412 526 441.7 526C439.988 526 438.6 527.388 438.6 529.1C438.6 530.812 439.988 532.2 441.7 532.2Z" class="change-color-in-svg-2" fill="#3562FF" style="fill: rgb(21, 112, 117); baseline-shift: 0px; paint-order: normal; text-decoration: none solid rgb(61, 61, 61);"></path>
<path opacity="0.08" d="M1184.2 364.5H497.3V862.5H1184.2V364.5Z" fill="black" style="baseline-shift: 0px; fill: rgb(0, 0, 0); opacity: 0.08; paint-order: normal; text-decoration: none solid rgb(61, 61, 61);"></path>
<path d="M1158 386.5H471.1V884.5H1158V386.5Z" fill="white" style="baseline-shift: 0px; fill: rgb(255, 255, 255); paint-order: normal; text-decoration: none solid rgb(61, 61, 61);"></path>
<path d="M1158 424.5H471.1V427.9H1158V424.5Z" class="change-color-in-svg-3" fill="#00BC7D" style="fill: rgb(128, 49, 85); baseline-shift: 0px; paint-order: normal; text-decoration: none solid rgb(61, 61, 61);"></path>
<path opacity="0.5" d="M1158 424.5H471.4V427.9H1158V424.5Z" fill="white" style="baseline-shift: 0px; fill: rgb(255, 255, 255); opacity: 0.5; paint-order: normal; text-decoration: none solid rgb(61, 61, 61);"></path>
<path d="M1159.7 886.1H469.5V384.9H1159.7V886.1ZM472.8 882.9H1156.3V388.1H472.8V882.9Z" class="change-color-in-svg-3" fill="#00BC7D" style="fill: rgb(128, 49, 85); baseline-shift: 0px; paint-order: normal; text-decoration: none solid rgb(61, 61, 61);"></path>
<path opacity="0.5" d="M1159.7 886.1H469.5V384.9H1159.7V886.1ZM472.8 882.9H1156.3V388.1H472.8V882.9Z" fill="white" style="baseline-shift: 0px; fill: rgb(255, 255, 255); opacity: 0.5; paint-order: normal; text-decoration: none solid rgb(61, 61, 61);"></path>
<path d="M494.3 406.799C494.3 409.399 492.2 411.499 489.7 411.499C487.2 411.499 485 409.399 485 406.899C485 404.299 487.1 402.199 489.6 402.199C492.2 402.199 494.3 404.299 494.3 406.799Z" class="change-color-in-svg-3" fill="#00BC7D" style="fill: rgb(128, 49, 85); baseline-shift: 0px; paint-order: normal; text-decoration: none solid rgb(61, 61, 61);"></path>
<path d="M510.2 406.799C510.2 409.399 508.1 411.499 505.6 411.499C503 411.499 500.9 409.399 500.9 406.899C500.9 404.299 503 402.199 505.5 402.199C508.2 402.199 510.2 404.299 510.2 406.799Z" class="change-color-in-svg-3" fill="#00BC7D" style="fill: rgb(128, 49, 85); baseline-shift: 0px; paint-order: normal; text-decoration: none solid rgb(61, 61, 61);"></path>
<path d="M526 406.799C526 409.399 523.9 411.499 521.4 411.499C518.9 411.499 516.7 409.399 516.7 406.899C516.7 404.299 518.8 402.199 521.3 402.199C523.9 402.199 526 404.299 526 406.799Z" class="change-color-in-svg-3" fill="#00BC7D" style="fill: rgb(128, 49, 85); baseline-shift: 0px; paint-order: normal; text-decoration: none solid rgb(61, 61, 61);"></path>
<path opacity="0.5" d="M494.3 406.799C494.3 409.399 492.2 411.499 489.7 411.499C487.2 411.499 485 409.399 485 406.899C485 404.299 487.1 402.199 489.6 402.199C492.2 402.199 494.3 404.299 494.3 406.799Z" fill="white" style="baseline-shift: 0px; fill: rgb(255, 255, 255); opacity: 0.5; paint-order: normal; text-decoration: none solid rgb(61, 61, 61);"></path>
<path opacity="0.5" d="M510.2 406.799C510.2 409.399 508.1 411.499 505.6 411.499C503 411.499 500.9 409.399 500.9 406.899C500.9 404.299 503 402.199 505.5 402.199C508.2 402.199 510.2 404.299 510.2 406.799Z" fill="white" style="baseline-shift: 0px; fill: rgb(255, 255, 255); opacity: 0.5; paint-order: normal; text-decoration: none solid rgb(61, 61, 61);"></path>
<path opacity="0.5" d="M526 406.799C526 409.399 523.9 411.499 521.4 411.499C518.9 411.499 516.7 409.399 516.7 406.899C516.7 404.299 518.8 402.199 521.3 402.199C523.9 402.199 526 404.299 526 406.799Z" fill="white" style="baseline-shift: 0px; fill: rgb(255, 255, 255); opacity: 0.5; paint-order: normal; text-decoration: none solid rgb(61, 61, 61);"></path>
<path d="M605 485.5H602.9V834.9H605V485.5Z" class="change-color-in-svg-3" fill="#00BC7D" style="fill: rgb(128, 49, 85); baseline-shift: 0px; paint-order: normal; text-decoration: none solid rgb(61, 61, 61);"></path>
<path d="M520.4 485.5H518.3V834.9H520.4V485.5Z" class="change-color-in-svg-3" fill="#00BC7D" style="fill: rgb(128, 49, 85); baseline-shift: 0px; paint-order: normal; text-decoration: none solid rgb(61, 61, 61);"></path>
<path d="M1112.7 485.5H1110.6V834.9H1112.7V485.5Z" class="change-color-in-svg-3" fill="#00BC7D" style="fill: rgb(128, 49, 85); baseline-shift: 0px; paint-order: normal; text-decoration: none solid rgb(61, 61, 61);"></path>
<path d="M1111.7 484.4H519.4V486.5H1111.7V484.4Z" class="change-color-in-svg-3" fill="#00BC7D" style="fill: rgb(128, 49, 85); baseline-shift: 0px; paint-order: normal; text-decoration: none solid rgb(61, 61, 61);"></path>
<path d="M1111.7 571.801H519.4V573.901H1111.7V571.801Z" class="change-color-in-svg-3" fill="#00BC7D" style="fill: rgb(128, 49, 85); baseline-shift: 0px; paint-order: normal; text-decoration: none solid rgb(61, 61, 61);"></path>
<path d="M1111.7 659.199H519.4V661.299H1111.7V659.199Z" class="change-color-in-svg-3" fill="#00BC7D" style="fill: rgb(128, 49, 85); baseline-shift: 0px; paint-order: normal; text-decoration: none solid rgb(61, 61, 61);"></path>
<path d="M1111.7 746.5H519.4V748.6H1111.7V746.5Z" class="change-color-in-svg-3" fill="#00BC7D" style="fill: rgb(128, 49, 85); baseline-shift: 0px; paint-order: normal; text-decoration: none solid rgb(61, 61, 61);"></path>
<path d="M1111.7 833.9H519.4V836H1111.7V833.9Z" class="change-color-in-svg-3" fill="#00BC7D" style="fill: rgb(128, 49, 85); baseline-shift: 0px; paint-order: normal; text-decoration: none solid rgb(61, 61, 61);"></path>
<path d="M689.7 485.5H687.6V834.9H689.7V485.5Z" class="change-color-in-svg-3" fill="#00BC7D" style="fill: rgb(128, 49, 85); baseline-shift: 0px; paint-order: normal; text-decoration: none solid rgb(61, 61, 61);"></path>
<path d="M774.3 485.5H772.2V834.9H774.3V485.5Z" class="change-color-in-svg-3" fill="#00BC7D" style="fill: rgb(128, 49, 85); baseline-shift: 0px; paint-order: normal; text-decoration: none solid rgb(61, 61, 61);"></path>
<path d="M858.9 485.5H856.8V834.9H858.9V485.5Z" class="change-color-in-svg-3" fill="#00BC7D" style="fill: rgb(128, 49, 85); baseline-shift: 0px; paint-order: normal; text-decoration: none solid rgb(61, 61, 61);"></path>
<path d="M943.5 485.5H941.4V834.9H943.5V485.5Z" class="change-color-in-svg-3" fill="#00BC7D" style="fill: rgb(128, 49, 85); baseline-shift: 0px; paint-order: normal; text-decoration: none solid rgb(61, 61, 61);"></path>
<path d="M1028.1 485.5H1026V834.9H1028.1V485.5Z" class="change-color-in-svg-3" fill="#00BC7D" style="fill: rgb(128, 49, 85); baseline-shift: 0px; paint-order: normal; text-decoration: none solid rgb(61, 61, 61);"></path>
<path d="M605 485.5H602.9V834.9H605V485.5Z" class="change-color-in-svg-3" fill="#00BC7D" style="fill: rgb(128, 49, 85); baseline-shift: 0px; paint-order: normal; text-decoration: none solid rgb(61, 61, 61);"></path>
<path d="M520.4 485.5H518.3V834.9H520.4V485.5Z" class="change-color-in-svg-3" fill="#00BC7D" style="fill: rgb(128, 49, 85); baseline-shift: 0px; paint-order: normal; text-decoration: none solid rgb(61, 61, 61);"></path>
<path d="M1112.7 485.5H1110.6V834.9H1112.7V485.5Z" class="change-color-in-svg-3" fill="#00BC7D" style="fill: rgb(128, 49, 85); baseline-shift: 0px; paint-order: normal; text-decoration: none solid rgb(61, 61, 61);"></path>
<path d="M1111.7 484.4H519.4V486.5H1111.7V484.4Z" class="change-color-in-svg-3" fill="#00BC7D" style="fill: rgb(128, 49, 85); baseline-shift: 0px; paint-order: normal; text-decoration: none solid rgb(61, 61, 61);"></path>
<path d="M1111.7 571.801H519.4V573.901H1111.7V571.801Z" class="change-color-in-svg-3" fill="#00BC7D" style="fill: rgb(128, 49, 85); baseline-shift: 0px; paint-order: normal; text-decoration: none solid rgb(61, 61, 61);"></path>
<path d="M1111.7 659.199H519.4V661.299H1111.7V659.199Z" class="change-color-in-svg-3" fill="#00BC7D" style="fill: rgb(128, 49, 85); baseline-shift: 0px; paint-order: normal; text-decoration: none solid rgb(61, 61, 61);"></path>
<path d="M1111.7 746.5H519.4V748.6H1111.7V746.5Z" class="change-color-in-svg-3" fill="#00BC7D" style="fill: rgb(128, 49, 85); baseline-shift: 0px; paint-order: normal; text-decoration: none solid rgb(61, 61, 61);"></path>
<path d="M1111.7 833.9H519.4V836H1111.7V833.9Z" class="change-color-in-svg-3" fill="#00BC7D" style="fill: rgb(128, 49, 85); baseline-shift: 0px; paint-order: normal; text-decoration: none solid rgb(61, 61, 61);"></path>
<path d="M689.7 485.5H687.6V834.9H689.7V485.5Z" class="change-color-in-svg-3" fill="#00BC7D" style="fill: rgb(128, 49, 85); baseline-shift: 0px; paint-order: normal; text-decoration: none solid rgb(61, 61, 61);"></path>
<path d="M774.3 485.5H772.2V834.9H774.3V485.5Z" class="change-color-in-svg-3" fill="#00BC7D" style="fill: rgb(128, 49, 85); baseline-shift: 0px; paint-order: normal; text-decoration: none solid rgb(61, 61, 61);"></path>
<path d="M858.9 485.5H856.8V834.9H858.9V485.5Z" class="change-color-in-svg-3" fill="#00BC7D" style="fill: rgb(128, 49, 85); baseline-shift: 0px; paint-order: normal; text-decoration: none solid rgb(61, 61, 61);"></path>
<path d="M943.5 485.5H941.4V834.9H943.5V485.5Z" class="change-color-in-svg-3" fill="#00BC7D" style="fill: rgb(128, 49, 85); baseline-shift: 0px; paint-order: normal; text-decoration: none solid rgb(61, 61, 61);"></path>
<path d="M1028.1 485.5H1026V834.9H1028.1V485.5Z" class="change-color-in-svg-3" fill="#00BC7D" style="fill: rgb(128, 49, 85); baseline-shift: 0px; paint-order: normal; text-decoration: none solid rgb(61, 61, 61);"></path>
<path opacity="0.5" d="M1112.8 485.5H1111.7V484.4H519.4V485.5H518.3V834.9H519.4V836H1111.7V834.9H1112.8V485.5V485.5ZM856.8 659.2H774.3V574H856.8V659.2ZM858.9 573.9H941.4V659.1H858.9V573.9ZM772.1 659.2H689.6V574H772.1V659.2ZM687.5 659.2H605V574H687.5V659.2ZM687.5 661.3V746.5H605V661.3H687.5ZM689.7 661.3H772.2V746.5H689.7V661.3ZM774.3 661.3H856.8V746.5H774.3V661.3ZM858.9 661.3H941.4V746.5H858.9V661.3ZM943.5 661.3H1026V746.5H943.5V661.3ZM943.5 659.2V574H1026V659.2H943.5ZM943.5 571.8V486.6H1026V571.8H943.5ZM941.4 571.8H858.9V486.6H941.4V571.8ZM856.8 571.8H774.3V486.6H856.8V571.8ZM772.1 571.8H689.6V486.6H772.1V571.8ZM687.5 571.8H605V486.6H687.5V571.8ZM602.9 571.8H520.4V486.6H602.9V571.8ZM602.9 573.9V659.1H520.4V573.9H602.9ZM602.9 661.3V746.5H520.4V661.3H602.9ZM602.9 748.6V833.8H520.4V748.6H602.9ZM605 748.6H687.5V833.8H605V748.6ZM689.7 748.6H772.2V833.8H689.7V748.6ZM774.3 748.6H856.8V833.8H774.3V748.6ZM858.9 748.6H941.4V833.8H858.9V748.6ZM943.5 748.6H1026V833.8H943.5V748.6ZM1028.1 748.6H1110.6V833.8H1028.1V748.6ZM1028.1 746.5V661.3H1110.6V746.5H1028.1ZM1028.1 659.2V574H1110.6V659.2H1028.1ZM1028.1 571.8V486.6H1110.6V571.8H1028.1Z" fill="white" style="baseline-shift: 0px; fill: rgb(255, 255, 255); opacity: 0.5; paint-order: normal; text-decoration: none solid rgb(61, 61, 61);"></path>
<path d="M925.9 449.301H703.2V459.901H925.9V449.301Z" class="change-color-in-svg-3" fill="#00BC7D" style="fill: rgb(128, 49, 85); baseline-shift: 0px; paint-order: normal; text-decoration: none solid rgb(61, 61, 61);"></path>
<path opacity="0.5" d="M925.9 449.301H703.2V459.901H925.9V449.301Z" fill="white" style="baseline-shift: 0px; fill: rgb(255, 255, 255); opacity: 0.5; paint-order: normal; text-decoration: none solid rgb(61, 61, 61);"></path>
<path d="M630 559H672.8V501.5H619.5V548.3C619.5 548.3 622.7 556.9 630 559Z" class="change-color-in-svg-2" fill="#3562FF" style="fill: rgb(21, 112, 117); baseline-shift: 0px; paint-order: normal; text-decoration: none solid rgb(61, 61, 61);"></path>
<path d="M662 514H628.7C628.4 514 628.2 513.8 628.2 513.5C628.2 513.2 628.4 513 628.7 513H662C662.3 513 662.5 513.2 662.5 513.5C662.5 513.8 662.3 514 662 514Z" fill="white" style="baseline-shift: 0px; fill: rgb(255, 255, 255); paint-order: normal; text-decoration: none solid rgb(61, 61, 61);"></path>
<path d="M643.2 519.301H662C662.3 519.301 662.5 519.501 662.5 519.801C662.5 520.101 662.3 520.301 662 520.301H628.7C628.4 520.301 628.2 520.101 628.2 519.801C628.2 519.501 628.4 519.301 628.7 519.301H643.2Z" fill="white" style="baseline-shift: 0px; fill: rgb(255, 255, 255); paint-order: normal; text-decoration: none solid rgb(61, 61, 61);"></path>
<path d="M645.5 526.801H628.5C628.3 526.801 628.2 526.601 628.2 526.301C628.2 526.001 628.3 525.801 628.5 525.801H645.5C645.7 525.801 645.8 526.001 645.8 526.301C645.8 526.601 645.6 526.801 645.5 526.801Z" fill="white" style="baseline-shift: 0px; fill: rgb(255, 255, 255); paint-order: normal; text-decoration: none solid rgb(61, 61, 61);"></path>
<path d="M643.2 532.1H662C662.3 532.1 662.5 532.4 662.5 532.7C662.5 532.9 662.3 533.1 662 533.2H628.7C628.4 533.2 628.1 533 628.1 532.7C628.1 532.4 628.3 532.1 628.6 532.1H628.7H643.2Z" fill="white" style="baseline-shift: 0px; fill: rgb(255, 255, 255); paint-order: normal; text-decoration: none solid rgb(61, 61, 61);"></path>
<path d="M645.5 539.6H628.5C628.3 539.6 628.2 539.4 628.2 539.1C628.2 538.8 628.3 538.6 628.5 538.6H645.5C645.7 538.6 645.8 538.8 645.8 539.1C645.8 539.4 645.6 539.6 645.5 539.6Z" fill="white" style="baseline-shift: 0px; fill: rgb(255, 255, 255); paint-order: normal; text-decoration: none solid rgb(61, 61, 61);"></path>
<path opacity="0.2" d="M619.5 547.301C619.5 547.301 621.6 556.901 631.2 559.001C631.2 559.001 629.6 556.201 631.2 548.301C627.3 549.301 623.2 548.901 619.5 547.301Z" fill="black" style="baseline-shift: 0px; fill: rgb(0, 0, 0); opacity: 0.2; paint-order: normal; text-decoration: none solid rgb(61, 61, 61);"></path>
<path d="M965.5 820H1008.3V762.5H955V809.3C955.1 809.3 958.3 817.9 965.5 820Z" class="change-color-in-svg-2" fill="#3562FF" style="fill: rgb(21, 112, 117); baseline-shift: 0px; paint-order: normal; text-decoration: none solid rgb(61, 61, 61);"></path>
<path d="M997.5 775H964.2C963.9 775 963.7 774.7 963.7 774.4C963.7 774.2 963.9 774 964.2 773.9H997.5C997.8 773.9 998.1 774.1 998.1 774.4C998.1 774.7 997.9 775 997.6 775C997.6 775 997.6 775 997.5 775Z" fill="white" style="baseline-shift: 0px; fill: rgb(255, 255, 255); paint-order: normal; text-decoration: none solid rgb(61, 61, 61);"></path>
<path d="M978.8 780.301H997.5C997.8 780.301 998 780.501 998 780.801C998 781.101 997.8 781.301 997.5 781.301H964.2C963.9 781.301 963.7 781.101 963.7 780.801C963.7 780.501 963.9 780.301 964.2 780.301H978.8Z" fill="white" style="baseline-shift: 0px; fill: rgb(255, 255, 255); paint-order: normal; text-decoration: none solid rgb(61, 61, 61);"></path>
<path d="M981 787.801H964C963.8 787.801 963.7 787.601 963.7 787.301C963.7 787.001 963.8 786.801 964 786.801H981C981.2 786.801 981.3 787.001 981.3 787.301C981.3 787.601 981.2 787.801 981 787.801Z" fill="white" style="baseline-shift: 0px; fill: rgb(255, 255, 255); paint-order: normal; text-decoration: none solid rgb(61, 61, 61);"></path>
<path d="M978.8 793.1H997.5C997.8 793.1 998 793.3 998 793.6C998 793.9 997.8 794.1 997.5 794.1H964.2C963.9 794.1 963.7 793.9 963.7 793.6C963.7 793.3 963.9 793.1 964.2 793.1H978.8Z" fill="white" style="baseline-shift: 0px; fill: rgb(255, 255, 255); paint-order: normal; text-decoration: none solid rgb(61, 61, 61);"></path>
<path d="M981 800.6H964C963.8 800.6 963.7 800.4 963.7 800.1C963.7 799.8 963.8 799.6 964 799.6H981C981.2 799.6 981.3 799.8 981.3 800.1C981.3 800.4 981.2 800.6 981 800.6Z" fill="white" style="baseline-shift: 0px; fill: rgb(255, 255, 255); paint-order: normal; text-decoration: none solid rgb(61, 61, 61);"></path>
<path opacity="0.2" d="M955.1 808.301C955.1 808.301 957.2 817.901 966.8 820.001C966.8 820.001 965.2 817.201 966.8 809.301C962.9 810.301 958.8 809.901 955.1 808.301Z" fill="black" style="baseline-shift: 0px; fill: rgb(0, 0, 0); opacity: 0.2; paint-order: normal; text-decoration: none solid rgb(61, 61, 61);"></path>
<path d="M798.3 732.699H841.1V675.199H787.8V721.999C787.8 721.999 791 730.499 798.3 732.699Z" class="change-color-in-svg-1" fill="#15247C" style="fill: rgb(40, 47, 79); baseline-shift: 0px; paint-order: normal; text-decoration: none solid rgb(61, 61, 61);"></path>
<path d="M830.3 687.6H797C796.7 687.6 796.5 687.4 796.5 687.1C796.5 686.8 796.7 686.6 797 686.6H830.3C830.6 686.6 830.8 686.8 830.8 687.1C830.8 687.4 830.6 687.6 830.3 687.6Z" fill="white" style="baseline-shift: 0px; fill: rgb(255, 255, 255); paint-order: normal; text-decoration: none solid rgb(61, 61, 61);"></path>
<path d="M811.6 693H830.3C830.6 693 830.8 693.3 830.8 693.6C830.8 693.8 830.6 694 830.3 694.1H797C796.7 694.1 796.5 693.8 796.5 693.5C796.5 693.3 796.7 693.1 797 693H811.6Z" fill="white" style="baseline-shift: 0px; fill: rgb(255, 255, 255); paint-order: normal; text-decoration: none solid rgb(61, 61, 61);"></path>
<path d="M813.8 700.4H796.8C796.6 700.4 796.5 700.2 796.5 699.9C796.5 699.6 796.6 699.4 796.8 699.4H813.8C814 699.4 814.1 699.6 814.1 699.9C814.1 700.2 813.9 700.4 813.8 700.4Z" fill="white" style="baseline-shift: 0px; fill: rgb(255, 255, 255); paint-order: normal; text-decoration: none solid rgb(61, 61, 61);"></path>
<path d="M811.6 705.801H830.3C830.6 705.801 830.8 706.101 830.8 706.401C830.8 706.601 830.6 706.801 830.3 706.901H797C796.7 706.901 796.5 706.601 796.5 706.301C796.5 706.101 796.7 705.901 797 705.801H811.6Z" fill="white" style="baseline-shift: 0px; fill: rgb(255, 255, 255); paint-order: normal; text-decoration: none solid rgb(61, 61, 61);"></path>
<path d="M813.8 713.199H796.8C796.6 713.199 796.5 712.999 796.5 712.699C796.5 712.399 796.6 712.199 796.8 712.199H813.8C814 712.199 814.1 712.399 814.1 712.699C814.1 712.999 813.9 713.199 813.8 713.199Z" fill="white" style="baseline-shift: 0px; fill: rgb(255, 255, 255); paint-order: normal; text-decoration: none solid rgb(61, 61, 61);"></path>
<path opacity="0.2" d="M787.8 720.9C787.8 720.9 789.9 730.5 799.5 732.6C799.5 732.6 797.9 729.9 799.5 721.9C795.7 722.9 791.5 722.6 787.8 720.9Z" fill="black" style="baseline-shift: 0px; fill: rgb(0, 0, 0); opacity: 0.2; paint-order: normal; text-decoration: none solid rgb(61, 61, 61);"></path>
<path d="M545.8 822.1H588.6V764.6H535.3V811.4C535.4 811.5 538.6 820 545.8 822.1Z" class="change-color-in-svg-1" fill="#15247C" style="fill: rgb(40, 47, 79); baseline-shift: 0px; paint-order: normal; text-decoration: none solid rgb(61, 61, 61);"></path>
<path d="M577.8 777.1H544.5C544.2 777.1 544 776.8 544 776.5C544 776.3 544.2 776.1 544.5 776H577.8C578.1 776 578.3 776.3 578.3 776.6C578.2 776.9 578.1 777.1 577.8 777.1Z" fill="white" style="baseline-shift: 0px; fill: rgb(255, 255, 255); paint-order: normal; text-decoration: none solid rgb(61, 61, 61);"></path>
<path d="M559.1 782.5H577.8C578.1 782.5 578.3 782.7 578.3 783C578.3 783.3 578.1 783.5 577.8 783.5H544.5C544.2 783.5 544 783.3 544 783C544 782.7 544.2 782.5 544.5 782.5H559.1Z" fill="white" style="baseline-shift: 0px; fill: rgb(255, 255, 255); paint-order: normal; text-decoration: none solid rgb(61, 61, 61);"></path>
<path d="M561.3 789.9H544.3C544.1 789.9 544 789.7 544 789.4C544 789.1 544.1 788.9 544.3 788.9H561.3C561.5 788.9 561.6 789.1 561.6 789.4C561.6 789.7 561.4 789.9 561.3 789.9Z" fill="white" style="baseline-shift: 0px; fill: rgb(255, 255, 255); paint-order: normal; text-decoration: none solid rgb(61, 61, 61);"></path>
<path d="M559.1 795.199H577.8C578.1 795.199 578.3 795.399 578.3 795.699C578.3 795.999 578.1 796.199 577.8 796.199H544.5C544.2 796.199 544 795.999 544 795.699C544 795.399 544.2 795.199 544.5 795.199H559.1Z" fill="white" style="baseline-shift: 0px; fill: rgb(255, 255, 255); paint-order: normal; text-decoration: none solid rgb(61, 61, 61);"></path>
<path d="M561.3 802.699H544.3C544.1 802.699 544 802.499 544 802.199C544 801.899 544.1 801.699 544.3 801.699H561.3C561.5 801.699 561.6 801.899 561.6 802.199C561.6 802.499 561.4 802.699 561.3 802.699Z" fill="white" style="baseline-shift: 0px; fill: rgb(255, 255, 255); paint-order: normal; text-decoration: none solid rgb(61, 61, 61);"></path>
<path opacity="0.2" d="M535.4 810.4C535.4 810.4 537.5 820 547.1 822.1C547.1 822.1 545.5 819.3 547.1 811.4C543.2 812.4 539.1 812 535.4 810.4Z" fill="black" style="baseline-shift: 0px; fill: rgb(0, 0, 0); opacity: 0.2; paint-order: normal; text-decoration: none solid rgb(61, 61, 61);"></path>
<path d="M592.9 593.1H531.1V597.5H592.9V593.1Z" class="change-color-in-svg-3" fill="#00BC7D" style="fill: rgb(128, 49, 85); baseline-shift: 0px; paint-order: normal; text-decoration: none solid rgb(61, 61, 61);"></path>
<path d="M592.9 603H531.1V607.4H592.9V603Z" class="change-color-in-svg-3" fill="#00BC7D" style="fill: rgb(128, 49, 85); baseline-shift: 0px; paint-order: normal; text-decoration: none solid rgb(61, 61, 61);"></path>
<path d="M569.4 613.199H531.1V617.599H569.4V613.199Z" class="change-color-in-svg-3" fill="#00BC7D" style="fill: rgb(128, 49, 85); baseline-shift: 0px; paint-order: normal; text-decoration: none solid rgb(61, 61, 61);"></path>
<path opacity="0.3" d="M592.9 593.1H531.1V597.5H592.9V593.1Z" fill="white" style="baseline-shift: 0px; fill: rgb(255, 255, 255); opacity: 0.3; paint-order: normal; text-decoration: none solid rgb(61, 61, 61);"></path>
<path opacity="0.3" d="M592.9 603H531.1V607.4H592.9V603Z" fill="white" style="baseline-shift: 0px; fill: rgb(255, 255, 255); opacity: 0.3; paint-order: normal; text-decoration: none solid rgb(61, 61, 61);"></path>
<path opacity="0.3" d="M569.4 613.199H531.1V617.599H569.4V613.199Z" fill="white" style="baseline-shift: 0px; fill: rgb(255, 255, 255); opacity: 0.3; paint-order: normal; text-decoration: none solid rgb(61, 61, 61);"></path>
<path d="M928.5 501.5H866.7V505.9H928.5V501.5Z" class="change-color-in-svg-3" fill="#00BC7D" style="fill: rgb(128, 49, 85); baseline-shift: 0px; paint-order: normal; text-decoration: none solid rgb(61, 61, 61);"></path>
<path d="M928.5 511.4H866.7V515.8H928.5V511.4Z" class="change-color-in-svg-3" fill="#00BC7D" style="fill: rgb(128, 49, 85); baseline-shift: 0px; paint-order: normal; text-decoration: none solid rgb(61, 61, 61);"></path>
<path d="M905 521.5H866.7V525.9H905V521.5Z" class="change-color-in-svg-3" fill="#00BC7D" style="fill: rgb(128, 49, 85); baseline-shift: 0px; paint-order: normal; text-decoration: none solid rgb(61, 61, 61);"></path>
<path opacity="0.3" d="M928.5 501.5H866.7V505.9H928.5V501.5Z" fill="white" style="baseline-shift: 0px; fill: rgb(255, 255, 255); opacity: 0.3; paint-order: normal; text-decoration: none solid rgb(61, 61, 61);"></path>
<path opacity="0.3" d="M928.5 511.4H866.7V515.8H928.5V511.4Z" fill="white" style="baseline-shift: 0px; fill: rgb(255, 255, 255); opacity: 0.3; paint-order: normal; text-decoration: none solid rgb(61, 61, 61);"></path>
<path opacity="0.3" d="M905 521.5H866.7V525.9H905V521.5Z" fill="white" style="baseline-shift: 0px; fill: rgb(255, 255, 255); opacity: 0.3; paint-order: normal; text-decoration: none solid rgb(61, 61, 61);"></path>
<path d="M729.8 763.1L738.2 780.2L757 782.9L743.4 796.2L746.6 815L729.8 806.1L713 815L716.2 796.2L702.5 782.9L721.4 780.2L729.8 763.1Z" class="change-color-in-svg-2" fill="#3562FF" style="fill: rgb(21, 112, 117); baseline-shift: 0px; paint-order: normal; text-decoration: none solid rgb(61, 61, 61);"></path>
<path d="M694.7 612C694.7 612 694.6 611.2 694.4 609.6C694.3 607.3 694.4 605 694.9 602.7C695.3 601 695.8 599.4 696.4 597.8C697.2 595.9 698.2 594.1 699.4 592.4C702.4 588.1 706.5 584.8 711.2 582.7C714 581.5 717 580.6 720 580.3C723.4 579.9 726.8 579.9 730.1 580.5C737.7 581.9 744.7 585.6 750.1 591.1C753.1 594.1 755.7 597.6 757.8 601.4C759.9 605.4 761.4 609.8 762.1 614.3C762.9 619.1 762.7 624 761.7 628.7C761.1 631.2 760.3 633.5 759.2 635.8C755.6 643 749.1 648.4 741.3 650.4C735.9 651.9 730.3 652.5 724.8 652.1C719 651.8 713.3 650.8 707.7 649C702.1 647.1 696.7 643.8 693 638.8C689.3 633.7 687.4 627.5 687.3 621.2C687.3 618 687.7 614.8 688.6 611.7C689.6 608.6 690.9 605.6 692.6 602.8C694.4 600 696.5 597.4 698.8 595.1C701.2 592.8 704 590.8 706.9 589.2C709.9 587.6 713.1 586.4 716.4 585.7C719.8 585 723.2 584.8 726.7 585.2C741.1 586.8 753.5 596 759.4 609.2C762.3 616 762.9 623.5 761.3 630.7C760.5 634.3 758.9 637.8 756.7 640.8C754.4 643.8 751.5 646.3 748.2 648C744.8 649.7 741.1 650.8 737.4 651.2C733.6 651.6 729.8 651.4 726 650.7C718.4 649.3 711.3 645.6 705.8 640.2C703 637.5 700.7 634.2 699.1 630.7C697.5 627.1 696.7 623.1 696.9 619.2C697.3 611.2 701.6 603.8 707.4 598.5C713.3 593.1 720.8 589.8 728.7 588.9C732.6 588.5 736.6 588.8 740.4 589.9C742.3 590.4 744.1 591.1 745.9 592C751.2 594.6 755.6 598.6 758.6 603.7C759.6 605.4 760.4 607.1 760.9 609C761.2 609.9 761.4 610.8 761.7 611.8C761.9 612.8 762.1 613.7 762.1 614.6C762.9 622.3 760.8 629.9 756.2 636.1C751.6 642.1 745.1 646.3 737.8 648.2C730.7 650.1 723.1 649.7 716.2 647.1C702.6 642.2 692.1 630 689.8 616.3C688.6 609.5 689.8 602.5 693.2 596.5C696.5 590.7 701.4 586 707.4 582.9C713.2 580 719.5 578.4 726 578.3C732.3 578.2 738.5 579.2 744.3 581.5C755.8 585.8 765.2 594.6 769.3 605.3C773.3 615.7 772.3 627.3 766.6 636.8C763.9 641.2 760.2 644.8 755.7 647.3C751.4 649.6 746.8 651.1 741.9 651.6C732.5 652.6 723.6 650 716.3 646.4C709.4 643 703.2 638.2 698.2 632.4C693.9 627.5 691 621.6 689.8 615.2C689 610.1 689.6 604.8 691.5 600C692.9 596.5 695.1 593.3 697.8 590.7C699.5 589.1 701.5 587.9 703.6 587C705.1 586.5 705.8 586.2 705.8 586.2L705.2 586.4C704.8 586.5 704.3 586.7 703.5 587C701.4 587.9 699.4 589.2 697.7 590.8C695 593.4 692.8 596.5 691.4 600C689.5 604.8 688.9 610 689.7 615.1C690.9 621.4 693.8 627.3 698.1 632.1C703.1 637.9 709.2 642.6 716.1 645.9C723.4 649.5 732.2 652 741.5 651C746.3 650.5 750.9 649.1 755.2 646.8C759.6 644.3 763.3 640.8 765.9 636.5C771.5 627.1 772.4 615.6 768.5 605.4C764.4 594.9 755.1 586.3 743.7 582C737.9 579.8 731.8 578.7 725.6 578.8C719.2 578.9 712.9 580.4 707.3 583.3C701.4 586.3 696.6 591 693.4 596.8C690.1 602.7 688.9 609.6 690.1 616.2C692.3 629.7 702.7 641.7 716.1 646.5C722.9 649 730.3 649.4 737.3 647.5C744.5 645.7 750.8 641.5 755.3 635.7C759.8 629.7 761.8 622.2 761.1 614.7C761 613.8 760.8 612.9 760.7 611.9C760.6 610.9 760.3 610.1 760 609.2C759.4 607.4 758.7 605.7 757.7 604C755.8 600.7 753.2 597.8 750.2 595.6C744 590.9 736.3 588.8 728.5 589.5C720.7 590.3 713.3 593.6 707.5 598.9C701.7 604.1 697.6 611.4 697.2 619.2C697 623.1 697.8 626.9 699.4 630.4C701 633.9 703.2 637 706 639.7C711.5 645 718.4 648.6 725.9 650.1C729.6 650.8 733.4 651 737.1 650.6C740.8 650.2 744.4 649.2 747.7 647.5C751 645.8 753.8 643.4 756 640.5C758.1 637.5 759.7 634.2 760.5 630.6C762.1 623.5 761.5 616.1 758.6 609.5C752.9 596.5 740.6 587.5 726.5 585.9C723.1 585.6 719.7 585.8 716.4 586.4C713.1 587.1 710 588.3 707.1 589.9C701.3 593.1 696.5 597.7 693 603.2C691.3 605.9 690 608.9 689.1 611.9C688.2 614.9 687.8 618.1 687.8 621.2C687.8 627.4 689.7 633.4 693.3 638.5C696.9 643.4 702.2 646.6 707.7 648.5C713.2 650.3 718.9 651.3 724.7 651.5C730.2 651.9 735.7 651.3 741 649.8C748.7 647.8 755.1 642.6 758.7 635.5C759.8 633.3 760.6 630.9 761.2 628.5C762.2 623.8 762.4 619 761.6 614.3C760.2 605.6 756.1 597.5 749.8 591.3C744.5 585.8 737.5 582.1 730 580.7C726.7 580.1 723.3 580 720 580.5C717 580.9 714 581.7 711.2 582.9C706.5 584.9 702.4 588.3 699.4 592.5C698.2 594.2 697.2 596 696.4 597.9C695.7 599.5 695.2 601.1 694.8 602.7C694.3 605 694.1 607.3 694.2 609.6C694.2 610.4 694.3 611 694.4 611.4C694.5 611.8 694.7 612 694.7 612Z" class="change-color-in-svg-1" fill="#15247C" style="fill: rgb(40, 47, 79); baseline-shift: 0px; paint-order: normal; text-decoration: none solid rgb(61, 61, 61);"></path>
<path d="M709.7 609.1H748.8C749.2 609.1 749.5 609.4 749.5 609.8C749.5 610.2 749.2 610.5 748.8 610.5H709.7C709.3 610.5 709 610.2 709 609.8C709 609.4 709.3 609.1 709.7 609.1Z" class="change-color-in-svg-3" fill="#00BC7D" style="fill: rgb(128, 49, 85); baseline-shift: 0px; paint-order: normal; text-decoration: none solid rgb(61, 61, 61);"></path>
<path d="M709.7 614.801H733.9C734.3 614.801 734.6 615.101 734.6 615.501C734.6 615.901 734.3 616.201 733.9 616.201H709.7C709.3 616.201 709 615.901 709 615.501C709 615.101 709.3 614.801 709.7 614.801Z" class="change-color-in-svg-3" fill="#00BC7D" style="fill: rgb(128, 49, 85); baseline-shift: 0px; paint-order: normal; text-decoration: none solid rgb(61, 61, 61);"></path>
<path d="M737.4 614.801H748.9C749.3 614.801 749.5 615.101 749.5 615.401C749.5 615.801 749.2 616.001 748.9 616.001H737.4C737 616.001 736.8 615.701 736.8 615.401C736.7 615.101 737 614.801 737.4 614.801Z" class="change-color-in-svg-3" fill="#00BC7D" style="fill: rgb(128, 49, 85); baseline-shift: 0px; paint-order: normal; text-decoration: none solid rgb(61, 61, 61);"></path>
<path d="M709.7 620.5H730.7C731.1 620.5 731.4 620.8 731.4 621.2C731.4 621.6 731.1 621.9 730.7 621.9H709.7C709.3 621.9 709 621.6 709 621.2C709 620.8 709.3 620.5 709.7 620.5Z" class="change-color-in-svg-3" fill="#00BC7D" style="fill: rgb(128, 49, 85); baseline-shift: 0px; paint-order: normal; text-decoration: none solid rgb(61, 61, 61);"></path>
<path d="M1339.4 467.699H1135.6C1133.2 467.799 1131.3 469.799 1131.4 472.199V515.899L1124.1 534.199L1141.3 527.399H1339.4C1341.8 527.299 1343.7 525.299 1343.6 522.899V472.299C1343.7 469.799 1341.9 467.799 1339.4 467.699Z" class="change-color-in-svg-2" fill="#3562FF" style="fill: rgb(21, 112, 117); baseline-shift: 0px; paint-order: normal; text-decoration: none solid rgb(61, 61, 61);"></path>
<path opacity="0.9" d="M1339.4 467.699H1135.6C1133.2 467.799 1131.3 469.799 1131.4 472.199V515.899L1124.1 534.199L1141.3 527.399H1339.4C1341.8 527.299 1343.7 525.299 1343.6 522.899V472.299C1343.7 469.799 1341.9 467.799 1339.4 467.699Z" fill="white" style="baseline-shift: 0px; fill: rgb(255, 255, 255); opacity: 0.9; paint-order: normal; text-decoration: none solid rgb(61, 61, 61);"></path>
<path d="M1343.7 483.2V471.2C1343.5 469.1 1341.7 467.5 1339.6 467.7H1135.6C1133.3 467.7 1131.5 469.3 1131.5 471.2V483.2H1343.7Z" class="change-color-in-svg-2" fill="#3562FF" style="fill: rgb(21, 112, 117); baseline-shift: 0px; paint-order: normal; text-decoration: none solid rgb(61, 61, 61);"></path>
<path d="M1339.4 467.699H1135.6C1133.2 467.799 1131.3 469.799 1131.4 472.199V515.899L1124.1 534.199L1141.3 527.399H1339.4C1341.8 527.299 1343.7 525.299 1343.6 522.899V472.299C1343.7 469.799 1341.9 467.799 1339.4 467.699Z" stroke="black" stroke-width="1.03" stroke-miterlimit="10" style="baseline-shift: 0px; paint-order: normal; stroke: rgb(0, 0, 0); stroke-miterlimit: 10; stroke-width: 1.03px; text-decoration: none solid rgb(61, 61, 61);"></path>
<path d="M1152.5 515.5C1146.3 515.5 1141.2 510.4 1141.2 504.2C1141.2 498 1146.3 492.9 1152.5 492.9C1158.7 492.9 1163.8 498 1163.8 504.2C1163.8 510.4 1158.7 515.5 1152.5 515.5ZM1152.5 494.7C1147.2 494.7 1143 499 1143 504.3C1143 509.6 1147.3 513.8 1152.6 513.8C1157.9 513.8 1162.1 509.5 1162.1 504.2C1162.1 498.9 1157.8 494.7 1152.5 494.7Z" class="change-color-in-svg-3" fill="#00BC7D" style="fill: rgb(128, 49, 85); baseline-shift: 0px; paint-order: normal; text-decoration: none solid rgb(61, 61, 61);"></path>
<path d="M1151.9 505.899C1151.8 505.899 1151.7 505.899 1151.6 505.799C1151.3 505.699 1151.1 505.299 1151.1 504.999V497.999C1151.2 497.499 1151.6 497.199 1152.1 497.199C1152.5 497.199 1152.8 497.599 1152.9 497.999V502.899L1155.6 500.199C1155.9 499.899 1156.5 499.799 1156.8 500.199C1157.1 500.599 1157.2 501.099 1156.8 501.399L1152.6 505.599C1152.3 505.799 1152.1 505.899 1151.9 505.899Z" class="change-color-in-svg-3" fill="#00BC7D" style="fill: rgb(128, 49, 85); baseline-shift: 0px; paint-order: normal; text-decoration: none solid rgb(61, 61, 61);"></path>
<path d="M1244.2 493.801C1240.2 493.801 1236.9 497.101 1236.9 501.101C1236.9 505.101 1244.2 514.601 1244.2 514.601C1244.2 514.601 1251.4 505.101 1251.4 501.101C1251.5 497.101 1248.2 493.801 1244.2 493.801ZM1244.2 505.201C1241.9 505.201 1240.1 503.401 1240.1 501.101C1240.1 498.801 1241.9 497.001 1244.2 497.001C1246.5 497.001 1248.3 498.801 1248.3 501.101C1248.3 503.401 1246.5 505.201 1244.2 505.201Z" class="change-color-in-svg-3" fill="#00BC7D" style="fill: rgb(128, 49, 85); baseline-shift: 0px; paint-order: normal; text-decoration: none solid rgb(61, 61, 61);"></path>
<path d="M1216.9 498.1H1171.1V501.3H1216.9V498.1Z" class="change-color-in-svg-3" fill="#00BC7D" style="fill: rgb(128, 49, 85); baseline-shift: 0px; paint-order: normal; text-decoration: none solid rgb(61, 61, 61);"></path>
<path d="M1196.7 504.5H1171.1V507.7H1196.7V504.5Z" class="change-color-in-svg-3" fill="#00BC7D" style="fill: rgb(128, 49, 85); baseline-shift: 0px; paint-order: normal; text-decoration: none solid rgb(61, 61, 61);"></path>
<path d="M1330.8 498.1H1261.6V501.3H1330.8V498.1Z" class="change-color-in-svg-3" fill="#00BC7D" style="fill: rgb(128, 49, 85); baseline-shift: 0px; paint-order: normal; text-decoration: none solid rgb(61, 61, 61);"></path>
<path d="M1300.3 504.5H1261.6V507.7H1300.3V504.5Z" class="change-color-in-svg-3" fill="#00BC7D" style="fill: rgb(128, 49, 85); baseline-shift: 0px; paint-order: normal; text-decoration: none solid rgb(61, 61, 61);"></path>
<path d="M1131.5 483.199H1343.7" stroke="black" stroke-width="1.03" stroke-miterlimit="10" style="baseline-shift: 0px; paint-order: normal; stroke: rgb(0, 0, 0); stroke-miterlimit: 10; stroke-width: 1.03px; text-decoration: none solid rgb(61, 61, 61);"></path>
<path d="M629 917.299C627 917.299 625.5 915.699 625.5 913.799V862.199C625.4 859.799 627.3 857.799 629.7 857.699H833.5C835.9 857.799 837.8 859.799 837.7 862.199V912.899C837.8 915.299 835.9 917.299 833.5 917.399L629 917.299Z" class="change-color-in-svg-2" fill="#3562FF" style="fill: rgb(21, 112, 117); baseline-shift: 0px; paint-order: normal; text-decoration: none solid rgb(61, 61, 61);"></path>
<path opacity="0.9" d="M629 917.299C627 917.299 625.5 915.699 625.5 913.799V862.199C625.4 859.799 627.3 857.799 629.7 857.699H833.5C835.9 857.799 837.8 859.799 837.7 862.199V912.899C837.8 915.299 835.9 917.299 833.5 917.399L629 917.299Z" fill="white" style="baseline-shift: 0px; fill: rgb(255, 255, 255); opacity: 0.9; paint-order: normal; text-decoration: none solid rgb(61, 61, 61);"></path>
<path d="M833.5 857.6H745L739.3 844.5L734.3 857.6H629.6C627.5 857.5 625.7 859 625.5 861.1V873.1H837.7V861.1C837.7 859.2 835.8 857.6 833.5 857.6Z" class="change-color-in-svg-2" fill="#3562FF" style="fill: rgb(21, 112, 117); baseline-shift: 0px; paint-order: normal; text-decoration: none solid rgb(61, 61, 61);"></path>
<path d="M646.5 905.401C640.3 905.401 635.2 900.301 635.2 894.101C635.2 887.901 640.3 882.801 646.5 882.801C652.7 882.801 657.8 887.901 657.8 894.101C657.8 900.301 652.7 905.401 646.5 905.401ZM646.5 884.601C641.2 884.601 637 888.901 637 894.101C637 899.401 641.3 903.601 646.5 903.601C651.8 903.601 656 899.301 656 894.101C656 888.801 651.8 884.601 646.5 884.601Z" class="change-color-in-svg-3" fill="#00BC7D" style="fill: rgb(128, 49, 85); baseline-shift: 0px; paint-order: normal; text-decoration: none solid rgb(61, 61, 61);"></path>
<path d="M645.8 895.8C645.7 895.8 645.6 895.8 645.5 895.7C645.2 895.6 645 895.2 645 894.9V887.9C645.1 887.4 645.5 887.1 646 887.1C646.4 887.1 646.7 887.5 646.8 887.9V892.8L649.5 890.1C649.9 889.8 650.4 889.8 650.7 890.2C651 890.5 651 891 650.7 891.3L646.5 895.5C646.3 895.7 646.1 895.8 645.8 895.8Z" class="change-color-in-svg-3" fill="#00BC7D" style="fill: rgb(128, 49, 85); baseline-shift: 0px; paint-order: normal; text-decoration: none solid rgb(61, 61, 61);"></path>
<path d="M738.2 883.699C734.2 883.699 731 886.999 731 890.999C731 894.999 738.2 904.499 738.2 904.499C738.2 904.499 745.5 894.999 745.5 890.999C745.5 886.999 742.3 883.699 738.2 883.699ZM738.2 895.099C735.9 895.099 734.1 893.299 734.1 890.999C734.1 888.699 735.9 886.899 738.2 886.899C740.5 886.899 742.3 888.699 742.3 890.999C742.3 893.299 740.5 895.099 738.2 895.099Z" class="change-color-in-svg-3" fill="#00BC7D" style="fill: rgb(128, 49, 85); baseline-shift: 0px; paint-order: normal; text-decoration: none solid rgb(61, 61, 61);"></path>
<path d="M710.9 888H665.1V891.2H710.9V888Z" class="change-color-in-svg-3" fill="#00BC7D" style="fill: rgb(128, 49, 85); baseline-shift: 0px; paint-order: normal; text-decoration: none solid rgb(61, 61, 61);"></path>
<path d="M690.7 894.4H665.1V897.6H690.7V894.4Z" class="change-color-in-svg-3" fill="#00BC7D" style="fill: rgb(128, 49, 85); baseline-shift: 0px; paint-order: normal; text-decoration: none solid rgb(61, 61, 61);"></path>
<path d="M824.8 888H755.6V891.2H824.8V888Z" class="change-color-in-svg-3" fill="#00BC7D" style="fill: rgb(128, 49, 85); baseline-shift: 0px; paint-order: normal; text-decoration: none solid rgb(61, 61, 61);"></path>
<path d="M794.3 894.4H755.6V897.6H794.3V894.4Z" class="change-color-in-svg-3" fill="#00BC7D" style="fill: rgb(128, 49, 85); baseline-shift: 0px; paint-order: normal; text-decoration: none solid rgb(61, 61, 61);"></path>
<path d="M625.5 873.1H837.7" stroke="black" stroke-width="1.03" stroke-miterlimit="10" style="baseline-shift: 0px; paint-order: normal; stroke: rgb(0, 0, 0); stroke-miterlimit: 10; stroke-width: 1.03px; text-decoration: none solid rgb(61, 61, 61);"></path>
<path d="M833.4 857.6H745L739.3 844.5L734.3 857.6H629.7C627.3 857.7 625.4 859.7 625.5 862.1V913.7C625.5 915.7 627.1 917.2 629 917.2H833.4C835.8 917.1 837.7 915.1 837.6 912.7V862.1C837.7 859.7 835.8 857.7 833.4 857.6Z" stroke="black" stroke-width="1.03" stroke-miterlimit="10" style="baseline-shift: 0px; paint-order: normal; stroke: rgb(0, 0, 0); stroke-miterlimit: 10; stroke-width: 1.03px; text-decoration: none solid rgb(61, 61, 61);"></path>
<path d="M629.6 1028.8L673.4 1010.4L674.9 1048.3L629.6 1028.8Z" class="change-color-in-svg-2" fill="#3562FF" style="fill: rgb(21, 112, 117); baseline-shift: 0px; paint-order: normal; text-decoration: none solid rgb(61, 61, 61);"></path>
<path opacity="0.75" d="M629.6 1028.8L673.4 1010.4L674.9 1048.3L629.6 1028.8Z" fill="white" style="baseline-shift: 0px; fill: rgb(255, 255, 255); opacity: 0.75; paint-order: normal; text-decoration: none solid rgb(61, 61, 61);"></path>
<path d="M1014.1 1022.7L1013.6 1010.1L673.5 1010.5L674 1023.1L1014.1 1022.7Z" class="change-color-in-svg-3" fill="#00BC7D" style="fill: rgb(128, 49, 85); baseline-shift: 0px; paint-order: normal; text-decoration: none solid rgb(61, 61, 61);"></path>
<path d="M1015 1047.9L1014.5 1035.3L674.4 1035.6L674.9 1048.3L1015 1047.9Z" class="change-color-in-svg-3" fill="#00BC7D" style="fill: rgb(128, 49, 85); baseline-shift: 0px; paint-order: normal; text-decoration: none solid rgb(61, 61, 61);"></path>
<path d="M1014.6 1035.3L1014.1 1022.7L673.9 1023.1L674.4 1035.7L1014.6 1035.3Z" class="change-color-in-svg-3" fill="#00BC7D" style="fill: rgb(128, 49, 85); baseline-shift: 0px; paint-order: normal; text-decoration: none solid rgb(61, 61, 61);"></path>
<path opacity="0.3" d="M1014.6 1035.3L1014.1 1022.7L673.9 1023.1L674.4 1035.7L1014.6 1035.3Z" fill="black" style="baseline-shift: 0px; fill: rgb(0, 0, 0); opacity: 0.3; paint-order: normal; text-decoration: none solid rgb(61, 61, 61);"></path>
<path d="M641.2 1024L629.6 1028.9L641.6 1034.1L641.2 1024Z" class="change-color-in-svg-1" fill="#15247C" style="fill: rgb(40, 47, 79); baseline-shift: 0px; paint-order: normal; text-decoration: none solid rgb(61, 61, 61);"></path>
<path d="M1085.6 1042.2L1084.6 1015.4C1084.5 1012.4 1081.6 1009.9 1078 1009.9L1013.7 1010L1015.2 1047.8L1079.5 1047.7C1082.9 1047.7 1085.7 1045.2 1085.6 1042.2Z" class="change-color-in-svg-2" fill="#3562FF" style="fill: rgb(21, 112, 117); baseline-shift: 0px; paint-order: normal; text-decoration: none solid rgb(61, 61, 61);"></path>
<path opacity="0.7" d="M1015.1 1047.9L1013.6 1010.1H1025.2L1026.7 1048L1015.1 1047.9Z" fill="white" style="baseline-shift: 0px; fill: rgb(255, 255, 255); opacity: 0.7; paint-order: normal; text-decoration: none solid rgb(61, 61, 61);"></path>
<path opacity="0.4" d="M1014.6 1036.3L1079 1036.2C1082.5 1036.2 1085.3 1033.7 1085.2 1030.6L1085.6 1042.2C1085.7 1045.2 1083 1047.7 1079.4 1047.7L1015.1 1047.8L1014.6 1036.3Z" fill="black" style="baseline-shift: 0px; fill: rgb(0, 0, 0); opacity: 0.4; paint-order: normal; text-decoration: none solid rgb(61, 61, 61);"></path>
<path d="M1038 1036.4L988.7 1037.6L1008.4 1023.6C1011.6 1021.3 1013.6 1017.7 1013.7 1013.7L1014.6 998.1L1041.4 998.2L1038 1036.4Z" fill="#FC9D9D" style="baseline-shift: 0px; fill: rgb(252, 157, 157); paint-order: normal; text-decoration: none solid rgb(61, 61, 61);"></path>
<path opacity="0.15" d="M1032.5 1018.3V1018C1032.7 1016.3 1031.5 1014.8 1029.8 1014.5L1013.8 1012.2L1014 1009.1H1040.6L1038.2 1035.2L1016.7 1032.8L1023.8 1030C1028.7 1028.1 1032 1023.6 1032.5 1018.3Z" fill="black" style="baseline-shift: 0px; fill: rgb(0, 0, 0); opacity: 0.15; paint-order: normal; text-decoration: none solid rgb(61, 61, 61);"></path>
<path d="M1124.6 1035.4H1102.4L1098.3 997.9L1124.5 998L1124.6 1035.4Z" fill="#FC9D9D" style="baseline-shift: 0px; fill: rgb(252, 157, 157); paint-order: normal; text-decoration: none solid rgb(61, 61, 61);"></path>
<path opacity="0.15" d="M1119 1029.1L1118.4 1017.6C1118.3 1016.1 1117.2 1014.9 1115.7 1014.6L1099.8 1012.2L1099.4 1009L1124.3 1009.1L1124.4 1035.7L1119 1029.1Z" fill="black" style="baseline-shift: 0px; fill: rgb(0, 0, 0); opacity: 0.15; paint-order: normal; text-decoration: none solid rgb(61, 61, 61);"></path>
<path d="M1120.9 713.9L1125.7 1011.6H1097.4L1072.8 758.7C1072.6 757.1 1071.3 755.9 1069.7 755.9C1068.1 755.9 1066.8 757.1 1066.7 758.7L1040.5 1011.6H1012.2L1018.7 713.9H1120.9V713.9Z" class="change-color-in-svg-1" fill="#15247C" style="fill: rgb(40, 47, 79); baseline-shift: 0px; paint-order: normal; text-decoration: none solid rgb(61, 61, 61);"></path>
<path d="M1126.4 1011.6H1096.3L1095.8 1005.4H1126.4V1011.6Z" class="change-color-in-svg-1" fill="#15247C" style="fill: rgb(40, 47, 79); baseline-shift: 0px; paint-order: normal; text-decoration: none solid rgb(61, 61, 61);"></path>
<path opacity="0.15" d="M1126.4 1011.6H1113.8L1113.6 1005.4H1126.4V1011.6Z" fill="black" style="baseline-shift: 0px; fill: rgb(0, 0, 0); opacity: 0.15; paint-order: normal; text-decoration: none solid rgb(61, 61, 61);"></path>
<path opacity="0.2" d="M1023.6 1008.2L1051.5 769C1052.4 761.5 1058.7 755.9 1066.2 755.9H1069.7C1068.1 755.9 1066.8 757.1 1066.7 758.7L1040.7 1010.2L1023.6 1008.2Z" fill="black" style="baseline-shift: 0px; fill: rgb(0, 0, 0); opacity: 0.2; paint-order: normal; text-decoration: none solid rgb(61, 61, 61);"></path>
<path d="M1041.2 1011.6H1011.2L1011.6 1005.4H1041.9L1041.2 1011.6Z" class="change-color-in-svg-1" fill="#15247C" style="fill: rgb(40, 47, 79); baseline-shift: 0px; paint-order: normal; text-decoration: none solid rgb(61, 61, 61);"></path>
<path opacity="0.15" d="M1126.4 1011.6H1096.3L1095.8 1005.4H1126.4V1011.6Z" fill="black" style="baseline-shift: 0px; fill: rgb(0, 0, 0); opacity: 0.15; paint-order: normal; text-decoration: none solid rgb(61, 61, 61);"></path>
<path opacity="0.15" d="M1041.2 1011.6H1011.2L1011.6 1005.4H1041.9L1041.2 1011.6Z" fill="black" style="baseline-shift: 0px; fill: rgb(0, 0, 0); opacity: 0.15; paint-order: normal; text-decoration: none solid rgb(61, 61, 61);"></path>
<path opacity="0.15" d="M1041.2 1011.6H1023.3L1024 1005.4H1041.9L1041.2 1011.6Z" fill="black" style="baseline-shift: 0px; fill: rgb(0, 0, 0); opacity: 0.15; paint-order: normal; text-decoration: none solid rgb(61, 61, 61);"></path>
<path d="M970.9 1044.5V1043.4C970.9 1039.9 973.7 1037.1 977.2 1037.1H986C987.9 1037.1 989.7 1036.4 991 1035.1L1013.5 1013.7L1020.5 1022.9C1022.5 1025.5 1026.3 1026 1028.9 1024C1029.3 1023.7 1029.6 1023.4 1029.9 1023C1031.1 1021.6 1032.7 1020.8 1034.5 1020.8H1039.2V1044L970.9 1044.5Z" class="change-color-in-svg-3" fill="#00BC7D" style="fill: rgb(128, 49, 85); baseline-shift: 0px; paint-order: normal; text-decoration: none solid rgb(61, 61, 61);"></path>
<path d="M970.9 1044.5V1048H1039.5V1044.1L970.9 1044.5Z" fill="black" style="baseline-shift: 0px; fill: rgb(0, 0, 0); paint-order: normal; text-decoration: none solid rgb(61, 61, 61);"></path>
<g opacity="0.3" style="baseline-shift: 0px; opacity: 0.3; paint-order: normal; text-decoration: none solid rgb(61, 61, 61);">
<path opacity="0.3" d="M970.9 1044.5V1043.4C970.9 1039.9 973.7 1037.1 977.2 1037.1H986C987.9 1037.1 989.7 1036.4 991 1035.1L1013.5 1013.7L1020.5 1022.9C1022.5 1025.5 1026.3 1026 1028.9 1024C1029.3 1023.7 1029.6 1023.4 1029.9 1023C1031.1 1021.6 1032.7 1020.8 1034.5 1020.8H1039.2V1044L970.9 1044.5Z" fill="black" style="baseline-shift: 0px; fill: rgb(0, 0, 0); opacity: 0.3; paint-order: normal; text-decoration: none solid rgb(61, 61, 61);"></path>
<path opacity="0.3" d="M970.9 1044.5V1048H1039.5V1044.1L970.9 1044.5Z" fill="black" style="baseline-shift: 0px; fill: rgb(0, 0, 0); opacity: 0.3; paint-order: normal; text-decoration: none solid rgb(61, 61, 61);"></path>
</g>
<path d="M1018.1 1019.5L1002.9 1031.9C1001.2 1033.3 998.8 1033.1 997.2 1031.6L996 1030.4L1013.5 1013.7C1014.4 1013.4 1015.4 1013.8 1016 1014.6L1017.8 1017.2C1018.3 1017.8 1018.4 1018.6 1018.1 1019.3V1019.5Z" fill="black" style="baseline-shift: 0px; fill: rgb(0, 0, 0); paint-order: normal; text-decoration: none solid rgb(61, 61, 61);"></path>
<path d="M1105.3 1018.4H1103.5C1101.8 1018.4 1100.3 1019.7 1100.1 1021.4L1099.7 1028.3C1099.6 1030.4 1099 1032.5 1098.1 1034.4L1097.4 1035.6C1096.2 1038 1095.6 1040.7 1095.6 1043.4V1044.6H1130.7C1130.7 1041.2 1129.6 1037.8 1127.7 1035C1126.3 1032.9 1125.4 1030.4 1125.1 1027.9L1124.3 1021C1124 1019.4 1122.6 1018.3 1120.9 1018.3H1119.7" class="change-color-in-svg-3" fill="#00BC7D" style="fill: rgb(128, 49, 85); baseline-shift: 0px; paint-order: normal; text-decoration: none solid rgb(61, 61, 61);"></path>
<path opacity="0.3" d="M1105.3 1018.4H1103.5C1101.8 1018.4 1100.3 1019.7 1100.1 1021.4L1099.7 1028.3C1099.6 1030.4 1099 1032.5 1098.1 1034.4L1097.4 1035.6C1096.2 1038 1095.6 1040.7 1095.6 1043.4V1044.6H1130.7C1130.7 1041.2 1129.6 1037.8 1127.7 1035C1126.3 1032.9 1125.4 1030.4 1125.1 1027.9L1124.3 1021C1124 1019.4 1122.6 1018.3 1120.9 1018.3H1119.7" fill="black" style="baseline-shift: 0px; fill: rgb(0, 0, 0); opacity: 0.3; paint-order: normal; text-decoration: none solid rgb(61, 61, 61);"></path>
<path d="M1130.5 1044.6H1095.5V1048H1130.5V1044.6Z" fill="black" style="baseline-shift: 0px; fill: rgb(0, 0, 0); paint-order: normal; text-decoration: none solid rgb(61, 61, 61);"></path>
<path d="M1109.9 1015.3H1115.1C1117.5 1015.3 1119.5 1017.2 1119.5 1019.6C1119.5 1019.8 1119.5 1020 1119.5 1020.2L1118.3 1029.6C1117.9 1032.5 1115.5 1034.6 1112.5 1034.7C1109.5 1034.7 1107 1032.5 1106.7 1029.5L1105.6 1020.1C1105.3 1017.8 1106.8 1015.7 1109.1 1015.3C1109.4 1015.3 1109.7 1015.3 1109.9 1015.3Z" fill="black" style="baseline-shift: 0px; fill: rgb(0, 0, 0); paint-order: normal; text-decoration: none solid rgb(61, 61, 61);"></path>
<path d="M1103.2 1021.5H1121.8" stroke="white" stroke-width="1.26" stroke-linecap="round" stroke-linejoin="round" style="baseline-shift: 0px; paint-order: normal; stroke: rgb(255, 255, 255); stroke-linecap: round; stroke-linejoin: round; stroke-width: 1.26px; text-decoration: none solid rgb(61, 61, 61);"></path>
<path d="M1103.8 1025.9H1121.2" stroke="white" stroke-width="1.26" stroke-linecap="round" stroke-linejoin="round" style="baseline-shift: 0px; paint-order: normal; stroke: rgb(255, 255, 255); stroke-linecap: round; stroke-linejoin: round; stroke-width: 1.26px; text-decoration: none solid rgb(61, 61, 61);"></path>
<path d="M1104.2 1030.2H1120.7" stroke="white" stroke-width="1.26" stroke-linecap="round" stroke-linejoin="round" style="baseline-shift: 0px; paint-order: normal; stroke: rgb(255, 255, 255); stroke-linecap: round; stroke-linejoin: round; stroke-width: 1.26px; text-decoration: none solid rgb(61, 61, 61);"></path>
<path d="M1000.7 1023.9L1007.5 1030.3" stroke="white" stroke-width="1.26" stroke-linecap="round" stroke-linejoin="round" style="baseline-shift: 0px; paint-order: normal; stroke: rgb(255, 255, 255); stroke-linecap: round; stroke-linejoin: round; stroke-width: 1.26px; text-decoration: none solid rgb(61, 61, 61);"></path>
<path d="M1004.3 1020.5L1011.3 1027.2" stroke="white" stroke-width="1.26" stroke-linecap="round" stroke-linejoin="round" style="baseline-shift: 0px; paint-order: normal; stroke: rgb(255, 255, 255); stroke-linecap: round; stroke-linejoin: round; stroke-width: 1.26px; text-decoration: none solid rgb(61, 61, 61);"></path>
<path d="M1008 1017.4L1015 1023.9" stroke="white" stroke-width="1.26" stroke-linecap="round" stroke-linejoin="round" style="baseline-shift: 0px; paint-order: normal; stroke: rgb(255, 255, 255); stroke-linecap: round; stroke-linejoin: round; stroke-width: 1.26px; text-decoration: none solid rgb(61, 61, 61);"></path>
<path opacity="0.2" d="M1094.6 741.7L1096.4 744.9L1098.8 737.1L1105.3 737.3L1108.8 757.8L1107.8 710.5L1120.9 717.8L1125.8 1005.7L1113.6 1005.4L1109 767.4C1100.3 759.9 1095.6 748.6 1094 744.8C1093.6 743.7 1093.8 742.5 1094.6 741.7Z" fill="black" style="baseline-shift: 0px; fill: rgb(0, 0, 0); opacity: 0.2; paint-order: normal; text-decoration: none solid rgb(61, 61, 61);"></path>
<path d="M934.1 630C938 624.6 941.6 625.8 932 613.2C929.8 610.8 928.8 612.5 924.3 610.4C921.3 609.2 914.2 607.2 912.5 608.7C904.7 620.8 900.7 618.6 914 626.8C914 626.8 924 633.4 928 633.1C930.4 632.7 932.5 631.6 934.1 630Z" fill="#FC9D9D" style="baseline-shift: 0px; fill: rgb(252, 157, 157); paint-order: normal; text-decoration: none solid rgb(61, 61, 61);"></path>
<path d="M918.7 613.4L921 610L906.1 601.7C905.2 601.2 904 601.5 903.4 602.4C902.8 603.3 903 604.6 903.9 605.2C904 605.2 904 605.3 904.1 605.3L918.7 613.4Z" fill="#FC9D9D" style="baseline-shift: 0px; fill: rgb(252, 157, 157); paint-order: normal; text-decoration: none solid rgb(61, 61, 61);"></path>
<path d="M915.1 616.6L917.8 612.6L900.7 602.7C899.6 602.1 898.3 602.5 897.6 603.5C896.9 604.6 897.2 606.1 898.2 606.8C898.3 606.8 898.3 606.9 898.4 606.9L915.1 616.6Z" fill="#FC9D9D" style="baseline-shift: 0px; fill: rgb(252, 157, 157); paint-order: normal; text-decoration: none solid rgb(61, 61, 61);"></path>
<path opacity="0.15" d="M916.2 612.299C916.1 612.299 916 612.299 915.9 612.199L903.6 605.399C903.3 605.299 903.3 604.899 903.4 604.699C903.5 604.399 903.9 604.399 904.1 604.499L916.4 611.299C916.7 611.499 916.7 611.799 916.6 611.999C916.6 612.199 916.4 612.299 916.2 612.299Z" fill="black" style="baseline-shift: 0px; fill: rgb(0, 0, 0); opacity: 0.15; paint-order: normal; text-decoration: none solid rgb(61, 61, 61);"></path>
<path d="M915.1 621.9L917.8 618L900.7 608.1C899.6 607.5 898.3 607.9 897.6 608.9C896.9 610 897.2 611.5 898.2 612.2C898.3 612.2 898.3 612.3 898.4 612.3L915.1 621.9Z" fill="#FC9D9D" style="baseline-shift: 0px; fill: rgb(252, 157, 157); paint-order: normal; text-decoration: none solid rgb(61, 61, 61);"></path>
<path d="M915.1 627.2L917.8 623.2L900.7 613.3C899.6 612.7 898.3 613 897.6 614.1C896.9 615.2 897.2 616.7 898.2 617.4C898.3 617.4 898.3 617.5 898.4 617.5L915.1 627.2Z" fill="#FC9D9D" style="baseline-shift: 0px; fill: rgb(252, 157, 157); paint-order: normal; text-decoration: none solid rgb(61, 61, 61);"></path>
<path d="M912.2 619L912.3 619.1C912.3 619.1 912.3 619.1 912.2 619Z" fill="#FC9D9D" style="baseline-shift: 0px; fill: rgb(252, 157, 157); paint-order: normal; text-decoration: none solid rgb(61, 61, 61);"></path>
<path opacity="0.2" d="M926.6 611C926.6 611 924 617.2 925.5 622.6C927 628 929 629 929 629L928 611.9L926.6 611Z" fill="black" style="baseline-shift: 0px; fill: rgb(0, 0, 0); opacity: 0.2; paint-order: normal; text-decoration: none solid rgb(61, 61, 61);"></path>
<path d="M910.7 623.699C910.9 623.799 910.9 623.899 910.7 623.899C910.6 623.899 910.6 623.899 910.5 623.899V623.799L910.7 623.699Z" fill="#FC9D9D" style="baseline-shift: 0px; fill: rgb(252, 157, 157); paint-order: normal; text-decoration: none solid rgb(61, 61, 61);"></path>
<path opacity="0.15" d="M914.1 616.5C914 616.5 913.9 616.5 913.8 616.4L900.4 608.5C900.2 608.3 900.1 608 900.3 607.7C900.5 607.5 900.7 607.4 900.9 607.5L914.3 615.4C914.6 615.6 914.6 615.9 914.5 616.1C914.4 616.4 914.3 616.5 914.1 616.5Z" fill="black" style="baseline-shift: 0px; fill: rgb(0, 0, 0); opacity: 0.15; paint-order: normal; text-decoration: none solid rgb(61, 61, 61);"></path>
<path opacity="0.15" d="M912.1 620.099C912 620.099 911.9 620.099 911.9 619.999L900.6 613.899C900.3 613.799 900.2 613.399 900.4 613.199C900.6 612.899 900.9 612.899 901.1 612.999L912.4 619.099C912.7 619.199 912.8 619.599 912.6 619.799C912.5 619.999 912.3 620.099 912.1 620.099Z" fill="black" style="baseline-shift: 0px; fill: rgb(0, 0, 0); opacity: 0.15; paint-order: normal; text-decoration: none solid rgb(61, 61, 61);"></path>
<path d="M873.7 639L914.8 651L930.9 595.8L879.8 580.9L866.7 625.9C866.6 625.9 867.3 634.9 873.7 639Z" class="change-color-in-svg-2" fill="#3562FF" style="fill: rgb(21, 112, 117); baseline-shift: 0px; paint-order: normal; text-decoration: none solid rgb(61, 61, 61);"></path>
<path d="M917 604.701L885 595.401C884.7 595.301 884.6 595.001 884.6 594.701C884.7 594.401 885 594.301 885.3 594.301L917.3 603.601C917.6 603.601 917.8 603.901 917.8 604.201C917.8 604.501 917.5 604.701 917.2 604.701C917.1 604.701 917 604.701 917 604.701Z" fill="white" style="baseline-shift: 0px; fill: rgb(255, 255, 255); paint-order: normal; text-decoration: none solid rgb(61, 61, 61);"></path>
<path d="M897.5 604.6L915.5 609.8C915.8 609.8 916 610.1 916 610.4C916 610.7 915.7 610.9 915.4 610.9C915.3 610.9 915.3 610.9 915.2 610.8L883.2 601.5C882.9 601.4 882.8 601.1 882.8 600.8C882.9 600.5 883.2 600.4 883.5 600.4L897.5 604.6Z" fill="white" style="baseline-shift: 0px; fill: rgb(255, 255, 255); paint-order: normal; text-decoration: none solid rgb(61, 61, 61);"></path>
<path d="M897.5 612.301L881.2 607.501C881 607.501 881 607.201 881.1 606.901C881.2 606.601 881.4 606.401 881.5 606.501L897.8 611.301C898 611.301 898 611.601 897.9 611.901C897.8 612.201 897.7 612.401 897.5 612.301Z" fill="white" style="baseline-shift: 0px; fill: rgb(255, 255, 255); paint-order: normal; text-decoration: none solid rgb(61, 61, 61);"></path>
<path d="M894 616.8L912 622C912.3 622 912.5 622.3 912.5 622.6C912.5 622.9 912.2 623.1 911.9 623.1C911.8 623.1 911.8 623.1 911.7 623L879.7 613.7C879.4 613.6 879.3 613.3 879.3 613C879.4 612.7 879.7 612.6 880 612.6L894 616.8Z" fill="white" style="baseline-shift: 0px; fill: rgb(255, 255, 255); paint-order: normal; text-decoration: none solid rgb(61, 61, 61);"></path>
<path d="M894 624.599L877.7 619.799C877.5 619.799 877.5 619.499 877.6 619.199C877.7 618.899 877.9 618.699 878 618.799L894.3 623.599C894.5 623.599 894.5 623.899 894.4 624.199C894.3 624.499 894.1 624.699 894 624.599Z" fill="white" style="baseline-shift: 0px; fill: rgb(255, 255, 255); paint-order: normal; text-decoration: none solid rgb(61, 61, 61);"></path>
<path opacity="0.2" d="M866.9 624.801C866.9 624.801 866.3 634.601 874.9 639.301C874.9 639.301 874.1 636.201 877.9 629.101C873.9 628.901 870 627.401 866.9 624.801Z" fill="black" style="baseline-shift: 0px; fill: rgb(0, 0, 0); opacity: 0.2; paint-order: normal; text-decoration: none solid rgb(61, 61, 61);"></path>
<path opacity="0.2" d="M925.1 616.799C925.1 616.799 917.3 618.599 915.2 614.599C913 610.299 919.5 610.899 921.5 610.599C923.5 610.299 922.2 612.999 925.4 613.699L925.1 616.799Z" fill="black" style="baseline-shift: 0px; fill: rgb(0, 0, 0); opacity: 0.2; paint-order: normal; text-decoration: none solid rgb(61, 61, 61);"></path>
<path d="M921.7 610.901C927.6 608.601 933.2 611.901 934.7 618.001L935.1 619.501C936.3 625.001 934.1 628.601 931.9 629.401C930.3 630.001 928.1 629.601 926.8 624.501C926 621.801 925.8 619.001 926.2 616.201C922.9 616.701 918 617.001 916.2 614.601C913 610.401 920 611.601 921.7 610.901Z" fill="#FC9D9D" style="baseline-shift: 0px; fill: rgb(252, 157, 157); paint-order: normal; text-decoration: none solid rgb(61, 61, 61);"></path>
<path d="M1002 608.9L989.3 645.6L938.2 620.3L927.5 634.7L990.7 675.9C997.6 680.1 1006.9 678 1010.8 670.9C1011 670.6 1011.1 670.4 1011.2 670.1L1028.1 626.6" class="change-color-in-svg-3" fill="#00BC7D" style="fill: rgb(128, 49, 85); baseline-shift: 0px; paint-order: normal; text-decoration: none solid rgb(61, 61, 61);"></path>
<path d="M1050.4 525.2C1045 524.9 1040.9 520.2 1041.2 514.8C1041.5 509.6 1045.9 505.5 1051.2 505.6C1051.5 505.6 1052.3 505.4 1052.2 505.7C1050 514.2 1052.6 525.2 1050.4 525.2Z" fill="black" style="baseline-shift: 0px; fill: rgb(0, 0, 0); paint-order: normal; text-decoration: none solid rgb(61, 61, 61);"></path>
<path d="M1021.4 604.499C1021.5 602.399 1056.2 562.199 1056.2 562.199L1094.9 562.399L1122 620.999L1113.8 675.799L1113.3 713.999C1113.4 715.399 1112.3 716.599 1110.9 716.599H1110.8L1099.6 717.399C1076.2 719.099 1052.7 718.799 1029.4 716.599C1028 716.599 1026.9 715.499 1026.9 714.099C1026.9 714.099 1026.9 714.099 1026.9 713.999L1021.4 604.499Z" fill="white" style="baseline-shift: 0px; fill: rgb(255, 255, 255); paint-order: normal; text-decoration: none solid rgb(61, 61, 61);"></path>
<path d="M1044.7 747.3L1015.8 745.2C1014.4 745.1 1013.3 743.8 1013.5 742.4V742.3L1020.5 679.4L1020.6 635.8L995.2 629.5L1010.7 582.2H1010.8C1013.4 575 1017.8 571.6 1025.9 569.3L1052.9 564.1L1056 634.5L1047.7 744.9C1047.6 746.3 1046.4 747.4 1045 747.3C1044.7 747.3 1044.7 747.3 1044.7 747.3Z" class="change-color-in-svg-3" fill="#00BC7D" style="fill: rgb(128, 49, 85); baseline-shift: 0px; paint-order: normal; text-decoration: none solid rgb(61, 61, 61);"></path>
<path d="M1055.5 517C1055.5 517 1087.7 496.8 1088.9 521.5L1089.4 527.9L1091.6 560.2C1091.6 561.1 1091.3 562 1090.7 562.6L1068.4 581.3C1067.8 581.7 1067.1 581.6 1066.6 581.2L1056.5 565.2C1055.6 564.4 1055.1 563.2 1055.2 562L1057.2 541.1C1056.8 539.2 1056.6 537.3 1056.6 535.4C1056.4 525.8 1055.5 517 1055.5 517Z" fill="#FC9D9D" style="baseline-shift: 0px; fill: rgb(252, 157, 157); paint-order: normal; text-decoration: none solid rgb(61, 61, 61);"></path>
<path d="M1068.2 583.1L1063 569.3L1055.8 557.9L1051.8 563.7L1062.2 584L1068.2 583.1Z" fill="white" style="baseline-shift: 0px; fill: rgb(255, 255, 255); paint-order: normal; text-decoration: none solid rgb(61, 61, 61);"></path>
<path opacity="0.2" d="M1067.3 581.399L1062.8 574.099C1062.8 574.099 1061.3 572.799 1059.1 579.099L1051.2 563.799L1051.7 563.699L1058.5 577.399C1058.5 577.399 1062 571.099 1063.2 573.499L1067.3 581.399Z" fill="black" style="baseline-shift: 0px; fill: rgb(0, 0, 0); opacity: 0.2; paint-order: normal; text-decoration: none solid rgb(61, 61, 61);"></path>
<path d="M1053.6 560.801L1052.7 573.601L1055.3 634.701L1045.8 565.901L1053.6 560.801Z" class="change-color-in-svg-3" fill="#00BC7D" style="fill: rgb(128, 49, 85); baseline-shift: 0px; paint-order: normal; text-decoration: none solid rgb(61, 61, 61);"></path>
<path opacity="0.2" d="M1046.8 565.7L1044.2 582.8L1051.6 583.1L1043.6 588.8C1043.6 588.8 1046.7 618.4 1055.3 634.6C1055.3 634.6 1046.7 611.5 1045.3 589.7L1053.1 582.9L1044.8 582.5L1047.8 565.1L1046.8 565.7Z" fill="black" style="baseline-shift: 0px; fill: rgb(0, 0, 0); opacity: 0.2; paint-order: normal; text-decoration: none solid rgb(61, 61, 61);"></path>
<path d="M1051.9 499.601C1051.9 499.601 1040.5 547.501 1065.1 550.801C1086.4 553.601 1088.8 520.501 1088.8 520.501L1087.8 496.301L1051.9 499.601Z" fill="#FC9D9D" style="baseline-shift: 0px; fill: rgb(252, 157, 157); paint-order: normal; text-decoration: none solid rgb(61, 61, 61);"></path>
<path d="M1096.3 503.401C1095.5 497.201 1092.3 492.501 1086.8 491.301C1084.5 490.901 1082.1 491.001 1079.9 491.601C1079.1 491.901 1078.2 491.401 1077.9 490.601V490.501C1076.8 486.301 1073.1 483.301 1068.7 483.301C1065.7 483.301 1062.8 484.701 1061.1 487.201C1060.6 487.901 1059.7 488.101 1059 487.601C1058.9 487.601 1058.9 487.501 1058.8 487.501C1058.8 487.501 1052.5 482.501 1044.2 487.601C1038.4 491.401 1036.4 498.901 1039.6 505.101C1043 511.701 1051.7 513.701 1057 508.701C1059.2 506.501 1060.6 503.501 1060.7 500.301C1061 498.101 1060.8 495.901 1060.1 493.801H1062.9C1066.2 493.601 1071.3 493.001 1076.1 493.701C1076 493.801 1075.9 493.801 1075.8 493.901L1084.4 496.801C1084.4 496.801 1087.1 519.501 1088.4 519.301C1094.4 518.001 1097.1 509.101 1096.3 503.401Z" fill="black" style="baseline-shift: 0px; fill: rgb(0, 0, 0); paint-order: normal; text-decoration: none solid rgb(61, 61, 61);"></path>
<path opacity="0.2" d="M1089.6 529.501C1088.5 529.601 1087.4 529.301 1086.4 528.801L1089.9 534.201L1089.6 529.501Z" fill="black" style="baseline-shift: 0px; fill: rgb(0, 0, 0); opacity: 0.2; paint-order: normal; text-decoration: none solid rgb(61, 61, 61);"></path>
<path opacity="0.2" d="M1055.8 554.599L1056.6 546.899C1058.6 548.999 1064.6 552.099 1071.3 550.499C1074.7 549.699 1077.7 547.799 1079.9 545.099C1080.1 544.899 1080.4 544.899 1080.6 544.999C1080.8 545.199 1080.9 545.499 1080.7 545.699C1073.4 551.099 1064.7 554.099 1055.8 554.599Z" fill="black" style="baseline-shift: 0px; fill: rgb(0, 0, 0); opacity: 0.2; paint-order: normal; text-decoration: none solid rgb(61, 61, 61);"></path>
<path opacity="0.2" d="M1067.3 581.4C1067.3 581.4 1064.6 673.1 1064.2 718.4" stroke="black" stroke-width="0.86" stroke-miterlimit="10" style="baseline-shift: 0px; opacity: 0.2; paint-order: normal; stroke: rgb(0, 0, 0); stroke-miterlimit: 10; stroke-width: 0.86px; text-decoration: none solid rgb(61, 61, 61);"></path>
<path d="M1068.7 525.301C1069.8 525.301 1070.7 524.405 1070.7 523.301C1070.7 522.196 1069.8 521.301 1068.7 521.301C1067.6 521.301 1066.7 522.196 1066.7 523.301C1066.7 524.405 1067.6 525.301 1068.7 525.301Z" fill="black" style="baseline-shift: 0px; fill: rgb(0, 0, 0); paint-order: normal; text-decoration: none solid rgb(61, 61, 61);"></path>
<path d="M1067.8 523.9C1068.02 523.9 1068.2 523.721 1068.2 523.5C1068.2 523.279 1068.02 523.1 1067.8 523.1C1067.58 523.1 1067.4 523.279 1067.4 523.5C1067.4 523.721 1067.58 523.9 1067.8 523.9Z" fill="white" style="baseline-shift: 0px; fill: rgb(255, 255, 255); paint-order: normal; text-decoration: none solid rgb(61, 61, 61);"></path>
<path d="M1053.1 525.301C1054.2 525.301 1055.1 524.405 1055.1 523.301C1055.1 522.196 1054.2 521.301 1053.1 521.301C1052 521.301 1051.1 522.196 1051.1 523.301C1051.1 524.405 1052 525.301 1053.1 525.301Z" fill="black" style="baseline-shift: 0px; fill: rgb(0, 0, 0); paint-order: normal; text-decoration: none solid rgb(61, 61, 61);"></path>
<path d="M1052.2 523.999C1052.42 523.999 1052.6 523.82 1052.6 523.599C1052.6 523.378 1052.42 523.199 1052.2 523.199C1051.98 523.199 1051.8 523.378 1051.8 523.599C1051.8 523.82 1051.98 523.999 1052.2 523.999Z" fill="white" style="baseline-shift: 0px; fill: rgb(255, 255, 255); paint-order: normal; text-decoration: none solid rgb(61, 61, 61);"></path>
<path opacity="0.2" d="M1060.8 533.3L1063.4 533.5C1063.7 533.5 1064 533.3 1064 533C1064 532.7 1063.8 532.4 1063.4 532.4L1060.8 532.2C1060.2 532.1 1059.7 531.6 1059.7 530.9C1059.8 530.3 1060.3 529.8 1061 529.8C1061.3 529.8 1061.6 529.6 1061.6 529.3C1061.7 529 1061.4 528.8 1061 528.7C1059.7 528.6 1058.6 529.6 1058.5 530.8C1058.5 532.1 1059.4 533.2 1060.8 533.3Z" fill="black" style="baseline-shift: 0px; fill: rgb(0, 0, 0); opacity: 0.2; paint-order: normal; text-decoration: none solid rgb(61, 61, 61);"></path>
<path d="M1045.8 520.599V522.799C1045.8 526.999 1049.2 530.399 1053.4 530.399C1057.6 530.399 1061 526.999 1061 522.799V520.599C1061 519.999 1060.8 519.299 1060.5 518.799H1063.4C1063 519.299 1062.8 519.899 1062.8 520.599V522.799C1062.8 526.999 1066.2 530.399 1070.4 530.399C1074.6 530.399 1078 526.999 1078 522.799V520.599C1078 518.999 1076.8 517.799 1075.2 517.699H1048.7C1047.1 517.699 1045.8 518.999 1045.8 520.599ZM1065.4 518.899H1075C1075.9 518.899 1076.7 519.699 1076.7 520.699V522.899C1076.7 526.499 1073.8 529.299 1070.2 529.299C1066.6 529.299 1063.8 526.399 1063.8 522.799V520.599C1063.8 519.699 1064.5 518.899 1065.4 518.899ZM1046.8 520.699C1046.8 519.699 1047.5 518.999 1048.5 518.899H1058.1C1059.1 518.899 1059.8 519.699 1059.8 520.699V522.899C1059.9 526.499 1057.1 529.399 1053.6 529.599C1050 529.699 1047.1 526.899 1046.9 523.399C1046.9 523.199 1046.9 523.099 1046.9 522.899L1046.8 520.699Z" fill="black" style="baseline-shift: 0px; fill: rgb(0, 0, 0); paint-order: normal; text-decoration: none solid rgb(61, 61, 61);"></path>
<path opacity="0.15" d="M1008.9 659.6L1016.6 638.1L1019.2 604.6H1020.9L1020 646.7L1012.1 668C1010.9 671.2 1008.8 673.9 1006.1 676C1002.5 678.4 997.9 679.1 993.7 677.8L992.9 677.4C1000 679.2 1006.3 667.3 1008.9 659.6Z" fill="black" style="baseline-shift: 0px; fill: rgb(0, 0, 0); opacity: 0.15; paint-order: normal; text-decoration: none solid rgb(61, 61, 61);"></path>
<path opacity="0.15" d="M989.6 645.8L996.3 649C996.6 649.1 996.9 649 997 648.8C997.1 648.6 997.1 648.3 996.9 648.2L990.7 641.5L989.6 645.8Z" fill="black" style="baseline-shift: 0px; fill: rgb(0, 0, 0); opacity: 0.15; paint-order: normal; text-decoration: none solid rgb(61, 61, 61);"></path>
<path d="M1025.8 682.301H1065.8C1066.8 682.301 1067.6 681.601 1067.8 680.601L1073.1 631.501C1073.2 630.501 1072.4 629.601 1071.3 629.501C1071.2 629.501 1071.2 629.501 1071.1 629.501H1020.5C1019.5 629.401 1018.6 630.201 1018.5 631.301C1018.5 631.401 1018.5 631.401 1018.5 631.501L1023.8 680.601C1023.9 681.601 1024.8 682.301 1025.8 682.301Z" class="change-color-in-svg-2" fill="#3562FF" style="fill: rgb(21, 112, 117); baseline-shift: 0px; paint-order: normal; text-decoration: none solid rgb(61, 61, 61);"></path>
<path opacity="0.5" d="M1025.8 682.301H1065.8C1066.8 682.301 1067.6 681.601 1067.8 680.601L1073.1 631.501C1073.2 630.501 1072.4 629.601 1071.3 629.501C1071.2 629.501 1071.2 629.501 1071.1 629.501H1020.5C1019.5 629.401 1018.6 630.201 1018.5 631.301C1018.5 631.401 1018.5 631.401 1018.5 631.501L1023.8 680.601C1023.9 681.601 1024.8 682.301 1025.8 682.301Z" fill="black" style="baseline-shift: 0px; fill: rgb(0, 0, 0); opacity: 0.5; paint-order: normal; text-decoration: none solid rgb(61, 61, 61);"></path>
<path d="M1025.8 684H1065.8C1066.8 684 1067.6 683.3 1067.8 682.3L1073.1 633.2C1073.2 632.2 1072.4 631.3 1071.3 631.2C1071.2 631.2 1071.2 631.2 1071.1 631.2H1020.5C1019.5 631.1 1018.6 631.9 1018.5 633C1018.5 633.1 1018.5 633.1 1018.5 633.2L1023.8 682.3C1023.9 683.3 1024.8 684 1025.8 684Z" class="change-color-in-svg-2" fill="#3562FF" style="fill: rgb(21, 112, 117); baseline-shift: 0px; paint-order: normal; text-decoration: none solid rgb(61, 61, 61);"></path>
<g opacity="0.5" style="baseline-shift: 0px; opacity: 0.5; paint-order: normal; text-decoration: none solid rgb(61, 61, 61);">
<path opacity="0.5" d="M1025.3 639C1025.1 640.4 1026.1 641.6 1027.5 641.8C1028.9 642 1030.1 641 1030.3 639.6C1030.5 638.2 1029.5 637 1028.1 636.8C1028 636.8 1027.9 636.8 1027.8 636.8C1026.5 636.7 1025.4 637.7 1025.3 639Z" fill="black" style="baseline-shift: 0px; fill: rgb(0, 0, 0); opacity: 0.5; paint-order: normal; text-decoration: none solid rgb(61, 61, 61);"></path>
</g>
<path d="M1027.8 636.699C1026.5 636.599 1025.5 637.599 1025.3 638.799V638.699C1025.3 637.299 1026.4 636.199 1027.8 636.199C1029.2 636.199 1030.3 637.299 1030.3 638.699V638.799C1030.2 637.599 1029.1 636.699 1027.8 636.699Z" fill="black" style="baseline-shift: 0px; fill: rgb(0, 0, 0); paint-order: normal; text-decoration: none solid rgb(61, 61, 61);"></path>
<path d="M1026.3 639C1026.2 639.9 1026.8 640.6 1027.7 640.7C1028.6 640.8 1029.3 640.2 1029.4 639.3C1029.5 638.4 1028.9 637.7 1028 637.6C1027.9 637.6 1027.9 637.6 1027.8 637.6C1027 637.6 1026.3 638.2 1026.3 639Z" fill="white" style="baseline-shift: 0px; fill: rgb(255, 255, 255); paint-order: normal; text-decoration: none solid rgb(61, 61, 61);"></path>
<path opacity="0.2" d="M1027.8 640.001C1028.5 640.001 1029.2 639.501 1029.3 638.801C1029.3 638.901 1029.3 638.901 1029.3 639.001C1029.2 639.901 1028.4 640.501 1027.6 640.401C1026.9 640.301 1026.3 639.801 1026.2 639.001C1026.2 638.901 1026.2 638.901 1026.2 638.801C1026.4 639.501 1027.1 640.001 1027.8 640.001Z" fill="black" style="baseline-shift: 0px; fill: rgb(0, 0, 0); opacity: 0.2; paint-order: normal; text-decoration: none solid rgb(61, 61, 61);"></path>
<path d="M1070.7 646.699C1071.8 649.899 1072.3 653.199 1072.3 656.599H1073.5L1075.8 661.899C1077 664.499 1076.3 667.599 1074.2 669.499L1072.8 670.699C1070.1 673.099 1066.7 674.499 1063 674.599C1059.8 674.699 1056.3 674.899 1055.9 674.899C1053.7 675.299 1051.4 675.399 1049.1 675.399C1047.7 675.199 1032.7 676.699 1030.9 676.699C1029.1 676.699 1028.2 674.299 1029.7 673.499C1030.6 673.099 1045.4 671.299 1050.1 670.599C1051.1 670.399 1050.1 669.399 1050.1 669.399C1050.1 669.399 1034.2 669.399 1032.5 668.999C1030.8 668.599 1030.6 665.799 1033.8 665.099C1036.4 664.599 1054 664.899 1054.8 662.799C1055.6 660.699 1046.5 658.599 1044.6 657.599C1042.7 656.599 1040.5 655.999 1041.7 653.599C1042.5 652.099 1055.9 655.899 1058.2 656.199C1060.5 656.499 1064 654.099 1065.7 652.099C1066.6 650.999 1066.9 648.399 1066.9 646.299C1066.9 644.599 1067.6 641.899 1068.9 640.699C1069.2 640.399 1069.6 640.499 1069.8 640.699C1069.9 640.799 1069.9 640.799 1069.9 640.899L1070.7 646.699Z" fill="#FC9D9D" style="baseline-shift: 0px; fill: rgb(252, 157, 157); paint-order: normal; text-decoration: none solid rgb(61, 61, 61);"></path>
<path opacity="0.15" d="M1071.3 670.5C1071.1 670.7 1067.4 674.4 1056.4 673.1L1034.4 675.6C1032.8 675.9 1031.3 676 1029.7 675.7C1029.8 676.4 1030.4 676.8 1031 676.8C1032.8 676.8 1047.8 675.3 1049.2 675.5C1051.5 675.5 1053.7 675.4 1056 675C1056.5 675 1059.9 674.7 1063.1 674.7C1066.7 674.6 1070.2 673.2 1072.9 670.8L1071.3 670.5Z" fill="black" style="baseline-shift: 0px; fill: rgb(0, 0, 0); opacity: 0.15; paint-order: normal; text-decoration: none solid rgb(61, 61, 61);"></path>
<path d="M1059.3 504.4C1062 500.6 1065 498.9 1069.7 499C1075 499.1 1079.4 503.4 1078.9 509.6L1078.8 511C1078.7 512.3 1079.7 513.4 1081 513.6C1083.4 513.6 1085.4 515.7 1085.4 518.1L1085.3 522.1C1085.3 522.6 1085.7 523 1086.2 523C1086.2 523 1087.4 523.2 1087.6 522.2L1088.2 517.9L1084 493.4L1063.6 488L1055.1 495.2L1059.3 504.4Z" fill="black" style="baseline-shift: 0px; fill: rgb(0, 0, 0); paint-order: normal; text-decoration: none solid rgb(61, 61, 61);"></path>
<path d="M1068.4 537.199C1068.7 537.199 1068.8 537.399 1068.7 537.699C1068 540.299 1065.4 541.899 1062.8 541.199C1061.4 540.899 1060.3 539.899 1059.7 538.699C1059.6 538.499 1059.7 538.299 1059.9 538.199C1059.9 538.199 1059.9 538.199 1060 538.199L1068.4 537.199Z" fill="white" style="baseline-shift: 0px; fill: rgb(255, 255, 255); paint-order: normal; text-decoration: none solid rgb(61, 61, 61);"></path>
<path d="M1091.4 555.6L1075.9 568.5L1066.5 582.2L1072.5 586.5L1094 563.3L1091.4 555.6Z" fill="white" style="baseline-shift: 0px; fill: rgb(255, 255, 255); paint-order: normal; text-decoration: none solid rgb(61, 61, 61);"></path>
<path opacity="0.2" d="M1092.2 563.301L1080 577.101L1076.3 572.501C1076 572.201 1075.5 572.101 1075.2 572.301C1073.3 573.701 1071.7 575.401 1070.3 577.201L1067.3 581.301C1067.3 581.301 1075 571.001 1076.8 574.401L1080.2 579.601L1093.5 563.501L1092.2 563.301Z" fill="black" style="baseline-shift: 0px; fill: rgb(0, 0, 0); opacity: 0.2; paint-order: normal; text-decoration: none solid rgb(61, 61, 61);"></path>
<path d="M1091.4 748.3L1123.5 746C1124.9 745.9 1126 744.7 1125.9 743.3V743.2L1120.7 682.1L1122.2 631.3L1124.5 641.9L1154.9 638.8L1144.8 590.1C1140.5 573.8 1127.2 570 1127.2 570L1093.2 562.6L1084.6 633.1L1086.3 678.7L1088.7 745.9C1088.7 747.2 1089.9 748.3 1091.4 748.3C1091.3 748.3 1091.3 748.3 1091.4 748.3Z" class="change-color-in-svg-3" fill="#00BC7D" style="fill: rgb(128, 49, 85); baseline-shift: 0px; paint-order: normal; text-decoration: none solid rgb(61, 61, 61);"></path>
<path d="M1119.8 621.8L1127.4 655.8L1071.7 656.2L1069.1 673.4L1131.3 685.5C1141.8 687.5 1163.6 687.7 1159.7 659.5L1149.9 614.9L1119.8 621.8Z" class="change-color-in-svg-3" fill="#00BC7D" style="fill: rgb(128, 49, 85); baseline-shift: 0px; paint-order: normal; text-decoration: none solid rgb(61, 61, 61);"></path>
<path opacity="0.15" d="M1160.1 664.1C1160.4 686.9 1141 687.4 1131.3 685.5C1130.5 685.1 1069.1 673.4 1069.1 673.4L1069.2 671.2L1129.9 680.4C1162.1 684.7 1159.7 665.3 1160.1 664.1Z" fill="black" style="baseline-shift: 0px; fill: rgb(0, 0, 0); opacity: 0.15; paint-order: normal; text-decoration: none solid rgb(61, 61, 61);"></path>
<path opacity="0.15" d="M1127.3 655.8H1134.7C1135 655.8 1135.2 655.6 1135.2 655.3C1135.2 655.1 1135.1 654.9 1134.9 654.8L1126.4 651.4L1127.3 655.8Z" fill="black" style="baseline-shift: 0px; fill: rgb(0, 0, 0); opacity: 0.15; paint-order: normal; text-decoration: none solid rgb(61, 61, 61);"></path>
<path opacity="0.2" d="M1120.9 655.7L1122.1 632.1L1121.5 606.3L1120.2 605.9L1117 629.6L1115.4 653.3L1085.5 654.4L1085.6 656.6L1120.9 655.7Z" fill="black" style="baseline-shift: 0px; fill: rgb(0, 0, 0); opacity: 0.2; paint-order: normal; text-decoration: none solid rgb(61, 61, 61);"></path>
<path d="M1093 559.4L1084.5 633L1100.5 564.3L1093 559.4Z" class="change-color-in-svg-3" fill="#00BC7D" style="fill: rgb(128, 49, 85); baseline-shift: 0px; paint-order: normal; text-decoration: none solid rgb(61, 61, 61);"></path>
<path opacity="0.2" d="M1100.5 564.3L1101.4 583.1H1094L1101.7 589.1C1101.7 589.1 1093.2 620.9 1084.6 634.2C1084.6 634.2 1098.3 601.1 1100 590L1092.5 582.8H1100.8L1099.5 563.6L1100.5 564.3Z" fill="black" style="baseline-shift: 0px; fill: rgb(0, 0, 0); opacity: 0.2; paint-order: normal; text-decoration: none solid rgb(61, 61, 61);"></path>
<path opacity="0.15" d="M1113.7 681.9L1120.7 683.3L1125.8 742.9C1126 744.3 1125 745.6 1123.5 745.8C1123.4 745.8 1123.3 745.8 1123.2 745.8H1117.9L1113.7 681.9Z" fill="black" style="baseline-shift: 0px; fill: rgb(0, 0, 0); opacity: 0.15; paint-order: normal; text-decoration: none solid rgb(61, 61, 61);"></path>
<g class="mask-in-svg" style="baseline-shift: 0px; paint-order: normal; text-decoration: none solid rgb(61, 61, 61);"><path d="M1082.5 542.2L1079 530.1L1089.2 516.4L1090.8 527.4L1082.5 542.2ZM1080 530.2L1082.8 539.9L1089.9 527.2L1088.8 518.5L1080 530.2Z" class="change-color-in-svg-3" fill="#00BC7D" style="fill: rgb(128, 49, 85); baseline-shift: 0px; paint-order: normal; text-decoration: none solid rgb(61, 61, 61);"></path></g>
<g class="mask-in-svg" style="baseline-shift: 0px; paint-order: normal; text-decoration: none solid rgb(61, 61, 61);"><path d="M1080.2 528.4C1080.2 528.4 1065.4 533.5 1049 530.8C1049 530.8 1049 547 1060.9 551.5C1060.9 551.5 1074.6 555.7 1083.4 541.2C1083.4 541.1 1080.3 534.4 1080.2 528.4Z" class="change-color-in-svg-3" fill="#00BC7D" style="fill: rgb(128, 49, 85); baseline-shift: 0px; paint-order: normal; text-decoration: none solid rgb(61, 61, 61);"></path></g>
<g class="mask-in-svg" style="baseline-shift: 0px; paint-order: normal; text-decoration: none solid rgb(61, 61, 61);"><path opacity="0.2" d="M1082.4 538.5C1081.1 535.3 1080.4 531.9 1080.2 528.4C1080.2 528.4 1065.4 533.5 1049 530.8C1049.2 535.8 1050.7 540.6 1053.3 544.8C1053.4 544.7 1069.3 552.5 1082.4 538.5Z" fill="white" style="baseline-shift: 0px; fill: rgb(255, 255, 255); opacity: 0.2; paint-order: normal; text-decoration: none solid rgb(61, 61, 61);"></path></g>
<g class="mask-in-svg" style="baseline-shift: 0px; paint-order: normal; text-decoration: none solid rgb(61, 61, 61);"><path opacity="0.2" d="M1049 530.7C1049 530.7 1049.8 538.4 1050.4 538.5C1060.8 540.4 1071.6 538.7 1080.9 533.7C1080.5 532.1 1080.3 530.6 1080.2 529L1080.1 528.4C1079.1 528.7 1064.8 533.3 1049 530.7Z" fill="white" style="baseline-shift: 0px; fill: rgb(255, 255, 255); opacity: 0.2; paint-order: normal; text-decoration: none solid rgb(61, 61, 61);"></path></g>
<path d="M1088.2 516.7C1089 514.4 1091.5 513.2 1093.8 514C1094 514.1 1094.3 514.2 1094.5 514.3C1099.9 516.7 1098.8 528.8 1089.7 529.5C1085 529.9 1085.9 527.1 1086.7 523.4L1088.2 516.7Z" fill="#FC9D9D" style="baseline-shift: 0px; fill: rgb(252, 157, 157); paint-order: normal; text-decoration: none solid rgb(61, 61, 61);"></path>
<path opacity="0.2" d="M1094.8 517.4C1094.1 516.8 1093.1 516.6 1092.2 516.7C1091.3 516.9 1090.6 517.5 1090.2 518.4C1089.6 519.4 1089.3 520.5 1089.3 521.7L1089.2 522.7C1089.2 523 1089.4 523.2 1089.7 523.2C1090 523.2 1090.2 523 1090.3 522.7L1090.4 521.7C1090.4 520.7 1090.7 519.8 1091.1 518.9C1091.4 518.4 1091.9 517.9 1092.4 517.7C1093 517.6 1093.6 517.8 1094.1 518.2C1094.4 518.4 1094.7 518.3 1094.9 518C1095.1 518 1095 517.7 1094.8 517.4Z" fill="black" style="baseline-shift: 0px; fill: rgb(0, 0, 0); opacity: 0.2; paint-order: normal; text-decoration: none solid rgb(61, 61, 61);"></path>
<path d="M469.8 899.8L521 864.2C527.4 859.9 531.3 852.7 531.3 845V775.4H457.2L457.1 777.2V775.4H383V845C383.1 852.7 386.9 859.9 393.3 864.2L444.6 899.8C446.7 901.2 448 903.6 448 906.1C448 908.7 446.7 911 444.6 912.5L393.4 948.1C387 952.4 383.2 959.6 383.1 967.3V1036.9H457.2V1035.1L457.3 1036.9H531.4V967.3C531.3 959.6 527.4 952.4 521 948.1L469.7 912.5C467.6 911.1 466.3 908.7 466.3 906.1C466.4 903.6 467.6 901.2 469.8 899.8Z" class="change-color-in-svg-3" fill="#00BC7D" style="fill: rgb(128, 49, 85); baseline-shift: 0px; paint-order: normal; text-decoration: none solid rgb(61, 61, 61);"></path>
<path opacity="0.75" d="M469.8 899.8L521 864.2C527.4 859.9 531.3 852.7 531.3 845V775.4H457.2L457.1 777.2V775.4H383V845C383.1 852.7 386.9 859.9 393.3 864.2L444.6 899.8C446.7 901.2 448 903.6 448 906.1C448 908.7 446.7 911 444.6 912.5L393.4 948.1C387 952.4 383.2 959.6 383.1 967.3V1036.9H457.2V1035.1L457.3 1036.9H531.4V967.3C531.3 959.6 527.4 952.4 521 948.1L469.7 912.5C467.6 911.1 466.3 908.7 466.3 906.1C466.4 903.6 467.6 901.2 469.8 899.8Z" fill="white" style="baseline-shift: 0px; fill: rgb(255, 255, 255); opacity: 0.75; paint-order: normal; text-decoration: none solid rgb(61, 61, 61);"></path>
<path d="M398 826.4C398 826.4 449.1 829.6 505.6 809.4C505.5 809.4 467.2 849.8 398 826.4Z" class="change-color-in-svg-3" fill="#00BC7D" style="fill: rgb(128, 49, 85); baseline-shift: 0px; paint-order: normal; text-decoration: none solid rgb(61, 61, 61);"></path>
<path d="M511.5 808.301C497.9 808.301 485.4 824.701 457.1 830.401C442.3 833.901 423.9 830.201 401.6 826.401C396.2 825.501 391.2 829.101 391.2 833.901V847.601C391.3 853.301 394.3 858.701 399.1 861.801C435.6 886.901 438.2 887.401 450.4 896.301C452.3 897.701 453.5 899.901 453.5 902.201V996.701C453.6 1000.3 452.3 1003.8 449.8 1006.3C447.7 1008.6 445.1 1010.4 442.2 1011.6C436.6 1014 426.1 1018.7 422.7 1021.2C415 1026.8 413.9 1028.5 413.9 1028.5H500.5L500.3 1028.3L499.8 1027.9C492.2 1022 483.6 1017.7 474.4 1015C471.1 1014 467.5 1012.4 465.1 1009.7C461.6 1005.8 461.2 1004 461.2 999.001V902.801C461.2 900.501 462.4 898.301 464.3 896.901C476.5 887.901 463.2 898.401 515.3 861.901C520 858.801 522.9 853.501 523 847.801V819.601C523 814.201 520.5 808.301 511.5 808.301Z" class="change-color-in-svg-3" fill="#00BC7D" style="fill: rgb(128, 49, 85); baseline-shift: 0px; paint-order: normal; text-decoration: none solid rgb(61, 61, 61);"></path>
<path opacity="0.3" d="M511.5 808.301C497.9 808.301 485.4 824.701 457.1 830.401C442.3 833.901 423.9 830.201 401.6 826.401C396.2 825.501 391.2 829.101 391.2 833.901V847.601C391.3 853.301 394.3 858.701 399.1 861.801C435.6 886.901 438.2 887.401 450.4 896.301C452.3 897.701 453.5 899.901 453.5 902.201V996.701C453.6 1000.3 452.3 1003.8 449.8 1006.3C447.7 1008.6 445.1 1010.4 442.2 1011.6C436.6 1014 426.1 1018.7 422.7 1021.2C415 1026.8 413.9 1028.5 413.9 1028.5H500.5L500.3 1028.3L499.8 1027.9C492.2 1022 483.6 1017.7 474.4 1015C471.1 1014 467.5 1012.4 465.1 1009.7C461.6 1005.8 461.2 1004 461.2 999.001V902.801C461.2 900.501 462.4 898.301 464.3 896.901C476.5 887.901 463.2 898.401 515.3 861.901C520 858.801 522.9 853.501 523 847.801V819.601C523 814.201 520.5 808.301 511.5 808.301Z" fill="white" style="baseline-shift: 0px; fill: rgb(255, 255, 255); opacity: 0.3; paint-order: normal; text-decoration: none solid rgb(61, 61, 61);"></path>
<path opacity="0.1" d="M469.8 899.8L521 864.2C527.4 859.9 531.3 852.7 531.3 845V775.4H506.8V845C506.8 852 503.5 862.3 497.9 867.4L493.9 871.1L464.5 899.8C461 902.1 460 906.8 462.3 910.4C462.9 911.3 463.6 912 464.5 912.6L493.7 941.2L498.1 945.3C503.6 950.4 506.9 960.6 506.9 967.5V1037.1H531.4V967.5C531.3 959.8 527.4 952.6 521.1 948.3L469.8 912.7C466.3 910.4 465.3 905.6 467.7 902.1C468.2 901.1 468.9 900.3 469.8 899.8Z" fill="black" style="baseline-shift: 0px; fill: rgb(0, 0, 0); opacity: 0.1; paint-order: normal; text-decoration: none solid rgb(61, 61, 61);"></path>
<path opacity="0.5" d="M433.2 935.8C433.1 936 433 936.1 432.9 936.3L420.3 946.3C416.3 951.4 414.1 957.5 413.9 964V1022.9C413.8 1025.2 411.9 1026.9 409.6 1026.8H398C395.7 1026.9 393.8 1025.2 393.7 1022.9V964C393.7 957.5 397.1 951.5 403 947.4C403.7 946.9 404.4 946.4 405 945.9L427.3 930.3C429.2 929 431.8 929.3 433.3 931C434.3 932.2 434.5 933.9 433.7 935.2L433.2 935.8Z" fill="white" style="baseline-shift: 0px; fill: rgb(255, 255, 255); opacity: 0.5; paint-order: normal; text-decoration: none solid rgb(61, 61, 61);"></path>
<path opacity="0.5" d="M421.3 866.5C417.4 860.8 415.2 854 415 847V781C415 779 413.4 777.4 411.4 777.4H398.3C396.3 777.4 394.7 779 394.7 781V847C394.8 854.7 398.6 861.8 404.9 866.2L405.1 866.4L427.4 880.2C428.8 881.1 430.6 880.9 431.8 879.7C433.1 878.4 433.2 876.4 432.1 874.9L421.3 866.5Z" fill="white" style="baseline-shift: 0px; fill: rgb(255, 255, 255); opacity: 0.5; paint-order: normal; text-decoration: none solid rgb(61, 61, 61);"></path>
<path d="M546.7 755H367.7V766.7H546.7V755Z" class="change-color-in-svg-2" fill="#3562FF" style="fill: rgb(21, 112, 117); baseline-shift: 0px; paint-order: normal; text-decoration: none solid rgb(61, 61, 61);"></path>
<path opacity="0.4" d="M546.6 755H512.2V766.7H546.6V755Z" fill="black" style="baseline-shift: 0px; fill: rgb(0, 0, 0); opacity: 0.4; paint-order: normal; text-decoration: none solid rgb(61, 61, 61);"></path>
<path d="M540.3 766.699H374.1V775.199H540.3V766.699Z" class="change-color-in-svg-2" fill="#3562FF" style="fill: rgb(21, 112, 117); baseline-shift: 0px; paint-order: normal; text-decoration: none solid rgb(61, 61, 61);"></path>
<path opacity="0.4" d="M540.3 766.699H508.3V775.199H540.3V766.699Z" fill="black" style="baseline-shift: 0px; fill: rgb(0, 0, 0); opacity: 0.4; paint-order: normal; text-decoration: none solid rgb(61, 61, 61);"></path>
<path opacity="0.4" d="M508.3 766.699H374.1V768.699H508.3V766.699Z" fill="black" style="baseline-shift: 0px; fill: rgb(0, 0, 0); opacity: 0.4; paint-order: normal; text-decoration: none solid rgb(61, 61, 61);"></path>
<path d="M546.7 1036.3H367.7V1048H546.7V1036.3Z" class="change-color-in-svg-2" fill="#3562FF" style="fill: rgb(21, 112, 117); baseline-shift: 0px; paint-order: normal; text-decoration: none solid rgb(61, 61, 61);"></path>
<path opacity="0.4" d="M546.6 1036.3H512.2V1048H546.6V1036.3Z" fill="black" style="baseline-shift: 0px; fill: rgb(0, 0, 0); opacity: 0.4; paint-order: normal; text-decoration: none solid rgb(61, 61, 61);"></path>
<path d="M540.3 1027.7H374.1V1036.2H540.3V1027.7Z" class="change-color-in-svg-2" fill="#3562FF" style="fill: rgb(21, 112, 117); baseline-shift: 0px; paint-order: normal; text-decoration: none solid rgb(61, 61, 61);"></path>
<path opacity="0.4" d="M540.3 1027.7H508.3V1036.2H540.3V1027.7Z" fill="black" style="baseline-shift: 0px; fill: rgb(0, 0, 0); opacity: 0.4; paint-order: normal; text-decoration: none solid rgb(61, 61, 61);"></path>
<path opacity="0.4" d="M508.3 1034.2H374.1V1036.3H508.3V1034.2Z" fill="black" style="baseline-shift: 0px; fill: rgb(0, 0, 0); opacity: 0.4; paint-order: normal; text-decoration: none solid rgb(61, 61, 61);"></path>
<path d="M1292.4 835.699C1281.4 841.399 1272.9 851.199 1266.8 862.099C1260.7 872.999 1256.8 884.799 1252.9 896.599L1249.5 957.499C1262.3 935.699 1272.6 909.999 1275.4 884.799L1266.9 883.999C1272.6 883.099 1277.4 878.999 1280.5 874.099C1283.6 869.199 1285.1 863.499 1286.7 857.899L1276.3 859.399C1284.5 853.899 1290.3 845.399 1292.4 835.699Z" class="change-color-in-svg-2" fill="#3562FF" style="fill: rgb(21, 112, 117); baseline-shift: 0px; paint-order: normal; text-decoration: none solid rgb(61, 61, 61);"></path>
<g opacity="0.3" style="baseline-shift: 0px; opacity: 0.3; paint-order: normal; text-decoration: none solid rgb(61, 61, 61);">
<path opacity="0.3" d="M1292.4 835.699C1281.4 841.399 1272.9 851.199 1266.8 862.099C1260.7 872.999 1256.8 884.799 1252.9 896.599L1249.5 957.499C1262.3 935.699 1272.6 909.999 1275.4 884.799L1266.9 883.999C1272.6 883.099 1277.4 878.999 1280.5 874.099C1283.6 869.199 1285.1 863.499 1286.7 857.899L1276.3 859.399C1284.5 853.899 1290.3 845.399 1292.4 835.699Z" fill="black" style="baseline-shift: 0px; fill: rgb(0, 0, 0); opacity: 0.3; paint-order: normal; text-decoration: none solid rgb(61, 61, 61);"></path>
</g>
<path d="M1247.7 971.7C1247.7 971.7 1219.8 938.4 1220.2 906.5H1231.5C1231.5 906.5 1219.3 898.5 1220.2 894C1221.1 889.5 1221.5 872.5 1221.5 872.5L1231.8 875C1231.8 875 1224.1 871.2 1223.1 865C1222.1 858.8 1225.3 830.6 1225.3 830.6C1225.3 830.6 1237.8 843.8 1241.7 857.3C1245.6 870.8 1255.7 886.6 1252.7 927.7C1249.7 968.8 1247.7 971.7 1247.7 971.7Z" class="change-color-in-svg-2" fill="#3562FF" style="fill: rgb(21, 112, 117); baseline-shift: 0px; paint-order: normal; text-decoration: none solid rgb(61, 61, 61);"></path>
<path d="M1261.8 974.9C1261.8 974.9 1292 954.8 1298.7 929.1L1289.7 926.6C1289.7 926.6 1301.3 922.8 1301.5 919C1301.7 915.2 1305.2 901.4 1305.2 901.4L1296.4 901.2C1296.4 901.2 1303.4 899.8 1305.6 895.1C1307.8 890.4 1311.3 866.9 1311.3 866.9C1311.3 866.9 1298.3 874.7 1292.3 884.8C1286.3 894.9 1274.6 905.3 1268 939C1261.4 972.7 1261.8 974.9 1261.8 974.9Z" class="change-color-in-svg-2" fill="#3562FF" style="fill: rgb(21, 112, 117); baseline-shift: 0px; paint-order: normal; text-decoration: none solid rgb(61, 61, 61);"></path>
<path d="M1243.8 992.1C1243.8 992.1 1218.3 963.2 1210.4 945.7L1216.4 943.2C1212.1 943.9 1207.6 942 1204.3 939.2C1201 936.4 1198.5 932.7 1196.1 929L1204 927.7C1196.8 925.6 1190.6 920.9 1186.8 914.4C1196.1 915.9 1204.5 921 1211.4 927.4C1216.9 932.7 1221.9 938.5 1226.3 944.7C1228.5 947.7 1230.5 950.9 1232.1 954.2C1236.3 963 1243.8 981.5 1243.8 992.1Z" class="change-color-in-svg-2" fill="#3562FF" style="fill: rgb(21, 112, 117); baseline-shift: 0px; paint-order: normal; text-decoration: none solid rgb(61, 61, 61);"></path>
<path d="M1254.5 998.9H1254.4C1254.1 998.8 1254 998.6 1254 998.3C1266.9 944.6 1297.8 885.3 1298.2 884.7C1298.3 884.5 1298.6 884.4 1298.8 884.5C1299 884.6 1299.1 884.9 1299 885.2C1298.7 885.8 1267.8 945 1254.9 998.6C1254.9 998.8 1254.7 998.9 1254.5 998.9Z" class="change-color-in-svg-2" fill="#3562FF" style="fill: rgb(21, 112, 117); baseline-shift: 0px; paint-order: normal; text-decoration: none solid rgb(61, 61, 61);"></path>
<path d="M1248.9 998.8C1248.6 998.8 1248.4 998.6 1248.4 998.3C1246.6 952.3 1241.4 906.4 1232.8 861.2C1232.7 861 1232.9 860.7 1233.1 860.6C1233.4 860.5 1233.6 860.7 1233.7 861C1242.3 906.3 1247.5 952.2 1249.3 998.3C1249.3 998.6 1249.1 998.8 1248.9 998.8Z" class="change-color-in-svg-2" fill="#3562FF" style="fill: rgb(21, 112, 117); baseline-shift: 0px; paint-order: normal; text-decoration: none solid rgb(61, 61, 61);"></path>
<path d="M1245.9 998.7C1245.7 998.7 1245.5 998.6 1245.4 998.4C1239.4 976.6 1230 964.2 1229.9 964.1C1229.7 963.9 1229.7 963.6 1229.9 963.4C1230.1 963.2 1230.4 963.2 1230.6 963.4C1230.6 963.4 1230.6 963.4 1230.7 963.5C1230.8 963.6 1240.4 976.2 1246.4 998.2C1246.5 998.5 1246.3 998.7 1246.1 998.8L1245.9 998.7Z" class="change-color-in-svg-2" fill="#3562FF" style="fill: rgb(21, 112, 117); baseline-shift: 0px; paint-order: normal; text-decoration: none solid rgb(61, 61, 61);"></path>
<path opacity="0.3" d="M1254.5 998.9H1254.4C1254.1 998.8 1254 998.6 1254 998.3C1266.9 944.6 1297.8 885.3 1298.2 884.7C1298.3 884.5 1298.6 884.4 1298.8 884.5C1299 884.6 1299.1 884.9 1299 885.2C1298.7 885.8 1267.8 945 1254.9 998.6C1254.9 998.8 1254.7 998.9 1254.5 998.9Z" fill="black" style="baseline-shift: 0px; fill: rgb(0, 0, 0); opacity: 0.3; paint-order: normal; text-decoration: none solid rgb(61, 61, 61);"></path>
<path opacity="0.3" d="M1248.9 998.8C1248.6 998.8 1248.4 998.6 1248.4 998.3C1246.6 952.3 1241.4 906.4 1232.8 861.2C1232.7 861 1232.9 860.7 1233.1 860.6C1233.4 860.5 1233.6 860.7 1233.7 861C1242.3 906.3 1247.5 952.2 1249.3 998.3C1249.3 998.6 1249.1 998.8 1248.9 998.8Z" fill="black" style="baseline-shift: 0px; fill: rgb(0, 0, 0); opacity: 0.3; paint-order: normal; text-decoration: none solid rgb(61, 61, 61);"></path>
<path opacity="0.3" d="M1245.9 998.7C1245.7 998.7 1245.5 998.6 1245.4 998.4C1239.4 976.6 1230 964.2 1229.9 964.1C1229.7 963.9 1229.7 963.6 1229.9 963.4C1230.1 963.2 1230.4 963.2 1230.6 963.4C1230.6 963.4 1230.6 963.4 1230.7 963.5C1230.8 963.6 1240.4 976.2 1246.4 998.2C1246.5 998.5 1246.3 998.7 1246.1 998.8L1245.9 998.7Z" fill="black" style="baseline-shift: 0px; fill: rgb(0, 0, 0); opacity: 0.3; paint-order: normal; text-decoration: none solid rgb(61, 61, 61);"></path>
<path d="M1267.3 1047.6H1233.6L1227.3 1001.3H1273.6L1267.3 1047.6Z" class="change-color-in-svg-1" fill="#15247C" style="fill: rgb(40, 47, 79); baseline-shift: 0px; paint-order: normal; text-decoration: none solid rgb(61, 61, 61);"></path>
<path d="M1277.5 1008.4H1223.4L1222.6 998.199H1278.3L1277.5 1008.4Z" class="change-color-in-svg-1" fill="#15247C" style="fill: rgb(40, 47, 79); baseline-shift: 0px; paint-order: normal; text-decoration: none solid rgb(61, 61, 61);"></path>
<path opacity="0.2" d="M1228.2 1008.4H1272.6L1267.3 1047.6L1262 1047.2L1264.9 1011.5L1228.6 1010.9L1228.2 1008.4Z" fill="black" style="baseline-shift: 0px; fill: rgb(0, 0, 0); opacity: 0.2; paint-order: normal; text-decoration: none solid rgb(61, 61, 61);"></path>
<path opacity="0.2" d="M1265.9 998.199L1264.3 1008.4H1277.5L1278.3 998.199H1265.9Z" fill="black" style="baseline-shift: 0px; fill: rgb(0, 0, 0); opacity: 0.2; paint-order: normal; text-decoration: none solid rgb(61, 61, 61);"></path>
<g opacity="0.2" style="baseline-shift: 0px; opacity: 0.2; paint-order: normal; text-decoration: none solid rgb(61, 61, 61);">
<path opacity="0.2" d="M1270.4 1020H1230.3V1020.8H1270.4V1020Z" fill="white" style="baseline-shift: 0px; fill: rgb(255, 255, 255); opacity: 0.2; paint-order: normal; text-decoration: none solid rgb(61, 61, 61);"></path>
</g>
<g opacity="0.2" style="baseline-shift: 0px; opacity: 0.2; paint-order: normal; text-decoration: none solid rgb(61, 61, 61);">
<path opacity="0.2" d="M1270.4 1023.2H1230.3V1024H1270.4V1023.2Z" fill="white" style="baseline-shift: 0px; fill: rgb(255, 255, 255); opacity: 0.2; paint-order: normal; text-decoration: none solid rgb(61, 61, 61);"></path>
</g>
</svg>