<svg viewBox="0 0 640 400" data-background-color="#fafafa" preserveAspectRatio="xMidYMid meet" height="400" width="640" xmlns="http://www.w3.org/2000/svg" xmlns:xlink="http://www.w3.org/1999/xlink">
  <rect width="640" height="400" x="0" y="0" opacity="1" fill="#fafafa" data-fill-palette-color="background" id="background"/>
  <g id="tight-bounds" transform="matrix(1,0,0,1,122.24000000000001,170.092649059386)">
    <svg viewBox="0 0 395.52 59.81470188122802" height="59.81470188122802" width="395.52">
      <g>
        <svg viewBox="0 0 462.7195823720844 69.97733079033313" height="59.81470188122802" width="395.52">
          <g transform="matrix(1,0,0,1,0,1.2321141214892322)">
            <svg viewBox="0 0 395.52 67.51310254735466" height="67.51310254735466" width="395.52">
              <g>
                <svg viewBox="0 0 395.52 67.51310254735466" height="67.51310254735466" width="395.52">
                  <g>
                    <svg viewBox="0 0 395.52 67.51310254735466" height="67.51310254735466" width="395.52">
                      <g transform="matrix(1,0,0,1,0,0)">
                        <svg width="395.52" viewBox="2.299999713897705 -35.599998474121094 229.65000915527344 36.20000076293945" height="67.51310254735466" data-palette-color="#1e66aa">
                          <svg/>
                          <g class="undefined-text-0" data-fill-palette-color="primary" id="text-0">
                            <path xmlns="http://www.w3.org/2000/svg" d="M13.7 0.6v0c-1.6 0-3.1-0.283-4.5-0.85-1.4-0.567-2.607-1.393-3.62-2.48-1.02-1.08-1.82-2.413-2.4-4-0.587-1.58-0.88-3.37-0.88-5.37v0c0-2.033 0.317-3.843 0.95-5.43 0.633-1.58 1.483-2.92 2.55-4.02 1.067-1.1 2.31-1.933 3.73-2.5 1.413-0.567 2.903-0.85 4.47-0.85v0c1.6 0 2.967 0.283 4.1 0.85 1.133 0.567 2.133 1.233 3 2v0l-2.1 2.7c-0.7-0.633-1.44-1.15-2.22-1.55-0.787-0.4-1.663-0.6-2.63-0.6v0c-1.1 0-2.117 0.223-3.05 0.67-0.933 0.453-1.733 1.097-2.4 1.93-0.667 0.833-1.19 1.823-1.57 2.97-0.387 1.153-0.58 2.43-0.58 3.83v0c0 1.4 0.183 2.667 0.55 3.8 0.367 1.133 0.877 2.107 1.53 2.92 0.647 0.82 1.437 1.453 2.37 1.9 0.933 0.453 1.95 0.68 3.05 0.68v0c1.133 0 2.177-0.243 3.13-0.73 0.947-0.48 1.803-1.053 2.57-1.72v0l1.8 2.75c-1.1 0.967-2.317 1.723-3.65 2.27-1.333 0.553-2.733 0.83-4.2 0.83zM35.3 0.6v0c-1.5 0-2.927-0.283-4.28-0.85-1.347-0.567-2.537-1.393-3.57-2.48-1.033-1.08-1.857-2.413-2.47-4-0.62-1.58-0.93-3.37-0.93-5.37v0c0-2.033 0.31-3.843 0.93-5.43 0.613-1.58 1.437-2.92 2.47-4.02 1.033-1.1 2.223-1.933 3.57-2.5 1.353-0.567 2.78-0.85 4.28-0.85v0c1.5 0 2.927 0.283 4.28 0.85 1.347 0.567 2.537 1.4 3.57 2.5 1.033 1.1 1.86 2.44 2.48 4.02 0.613 1.587 0.92 3.397 0.92 5.43v0c0 2-0.307 3.79-0.92 5.37-0.62 1.587-1.447 2.92-2.48 4-1.033 1.087-2.223 1.913-3.57 2.48-1.353 0.567-2.78 0.85-4.28 0.85zM35.3-2.8v0c1.033 0 1.983-0.227 2.85-0.68 0.867-0.447 1.61-1.08 2.23-1.9 0.613-0.813 1.087-1.787 1.42-2.92 0.333-1.133 0.5-2.4 0.5-3.8v0c0-1.4-0.167-2.677-0.5-3.83-0.333-1.147-0.807-2.137-1.42-2.97-0.62-0.833-1.363-1.477-2.23-1.93-0.867-0.447-1.817-0.67-2.85-0.67v0c-1.033 0-1.983 0.223-2.85 0.67-0.867 0.453-1.607 1.097-2.22 1.93-0.62 0.833-1.097 1.823-1.43 2.97-0.333 1.153-0.5 2.43-0.5 3.83v0c0 1.4 0.167 2.667 0.5 3.8 0.333 1.133 0.81 2.107 1.43 2.92 0.613 0.82 1.353 1.453 2.22 1.9 0.867 0.453 1.817 0.68 2.85 0.68zM60.05 0.6v0c-2.6 0-4.49-0.8-5.67-2.4-1.187-1.6-1.78-3.967-1.78-7.1v0-15.4h4.15v14.85c0 2.3 0.36 3.957 1.08 4.97 0.713 1.02 1.87 1.53 3.47 1.53v0c1.267 0 2.383-0.327 3.35-0.98 0.967-0.647 2.033-1.687 3.2-3.12v0-17.25h4.1v24.3h-3.4l-0.35-3.8h-0.15c-1.133 1.333-2.327 2.4-3.58 3.2-1.247 0.8-2.72 1.2-4.42 1.2zM84.25 0h-4.1v-24.3h3.4l0.35 4.4h0.15c0.833-1.533 1.843-2.75 3.03-3.65 1.18-0.9 2.47-1.35 3.87-1.35v0c0.967 0 1.833 0.167 2.6 0.5v0l-0.8 3.6c-0.4-0.133-0.767-0.233-1.1-0.3-0.333-0.067-0.75-0.1-1.25-0.1v0c-1.033 0-2.107 0.417-3.22 1.25-1.12 0.833-2.097 2.283-2.93 4.35v0zM103.65 0.6v0c-1.733 0-3.383-0.317-4.95-0.95-1.567-0.633-2.933-1.433-4.1-2.4v0l2.05-2.75c1.067 0.867 2.157 1.567 3.27 2.1 1.12 0.533 2.413 0.8 3.88 0.8v0c1.6 0 2.8-0.367 3.6-1.1 0.8-0.733 1.2-1.633 1.2-2.7v0c0-0.633-0.167-1.183-0.5-1.65-0.333-0.467-0.757-0.877-1.27-1.23-0.52-0.347-1.113-0.653-1.78-0.92-0.667-0.267-1.333-0.533-2-0.8v0c-0.867-0.3-1.733-0.643-2.6-1.03-0.867-0.38-1.64-0.847-2.32-1.4-0.687-0.547-1.247-1.187-1.68-1.92-0.433-0.733-0.65-1.617-0.65-2.65v0c0-0.967 0.193-1.877 0.58-2.73 0.38-0.847 0.93-1.58 1.65-2.2 0.713-0.613 1.587-1.097 2.62-1.45 1.033-0.347 2.2-0.52 3.5-0.52v0c1.533 0 2.943 0.267 4.23 0.8 1.28 0.533 2.387 1.183 3.32 1.95v0l-1.95 2.6c-0.833-0.633-1.7-1.15-2.6-1.55-0.9-0.4-1.883-0.6-2.95-0.6v0c-1.533 0-2.657 0.35-3.37 1.05-0.72 0.7-1.08 1.517-1.08 2.45v0c0 0.567 0.15 1.057 0.45 1.47 0.3 0.42 0.7 0.787 1.2 1.1 0.5 0.32 1.077 0.603 1.73 0.85 0.647 0.253 1.32 0.513 2.02 0.78v0c0.867 0.333 1.743 0.683 2.63 1.05 0.88 0.367 1.67 0.823 2.37 1.37 0.7 0.553 1.277 1.23 1.73 2.03 0.447 0.8 0.67 1.767 0.67 2.9v0c0 1-0.19 1.933-0.57 2.8-0.387 0.867-0.953 1.633-1.7 2.3-0.753 0.667-1.687 1.193-2.8 1.58-1.12 0.38-2.397 0.57-3.83 0.57zM128.1 0.6v0c-1.633 0-3.157-0.293-4.57-0.88-1.42-0.58-2.653-1.413-3.7-2.5-1.053-1.08-1.88-2.403-2.48-3.97-0.6-1.567-0.9-3.35-0.9-5.35v0c0-2 0.31-3.793 0.93-5.38 0.613-1.58 1.43-2.92 2.45-4.02 1.013-1.1 2.17-1.943 3.47-2.53 1.3-0.58 2.65-0.87 4.05-0.87v0c1.533 0 2.907 0.267 4.12 0.8 1.22 0.533 2.24 1.3 3.06 2.3 0.813 1 1.437 2.2 1.87 3.6 0.433 1.4 0.65 2.967 0.65 4.7v0c0 0.433-0.007 0.857-0.02 1.27-0.02 0.42-0.063 0.78-0.13 1.08v0h-16.4c0.167 2.6 0.977 4.657 2.43 6.17 1.447 1.52 3.337 2.28 5.67 2.28v0c1.167 0 2.243-0.177 3.23-0.53 0.98-0.347 1.92-0.803 2.82-1.37v0l1.45 2.7c-1.067 0.667-2.25 1.25-3.55 1.75-1.3 0.5-2.783 0.75-4.45 0.75zM120.45-14.1v0h13c0-2.467-0.523-4.343-1.57-5.63-1.053-1.28-2.53-1.92-4.43-1.92v0c-0.867 0-1.69 0.167-2.47 0.5-0.787 0.333-1.497 0.823-2.13 1.47-0.633 0.653-1.157 1.447-1.57 2.38-0.42 0.933-0.697 2-0.83 3.2zM147.15 0h-4.1v-24.3h3.4l0.35 4.4h0.15c0.833-1.533 1.843-2.75 3.03-3.65 1.18-0.9 2.47-1.35 3.87-1.35v0c0.967 0 1.833 0.167 2.6 0.5v0l-0.8 3.6c-0.4-0.133-0.767-0.233-1.1-0.3-0.333-0.067-0.75-0.1-1.25-0.1v0c-1.033 0-2.107 0.417-3.22 1.25-1.12 0.833-2.097 2.283-2.93 4.35v0zM164.8 0.6v0c-2.033 0-3.723-0.6-5.07-1.8-1.353-1.2-2.03-2.9-2.03-5.1v0c0-2.667 1.183-4.71 3.55-6.13 2.367-1.413 6.15-2.403 11.35-2.97v0c0-0.767-0.073-1.517-0.22-2.25-0.153-0.733-0.413-1.383-0.78-1.95-0.367-0.567-0.873-1.027-1.52-1.38-0.653-0.347-1.48-0.52-2.48-0.52v0c-1.4 0-2.717 0.267-3.95 0.8-1.233 0.533-2.333 1.133-3.3 1.8v0l-1.6-2.85c1.133-0.733 2.517-1.443 4.15-2.13 1.633-0.68 3.433-1.02 5.4-1.02v0c2.967 0 5.117 0.907 6.45 2.72 1.333 1.82 2 4.247 2 7.28v0 14.9h-3.4l-0.35-2.9h-0.15c-1.167 0.967-2.417 1.79-3.75 2.47-1.333 0.687-2.767 1.03-4.3 1.03zM166-2.7v0c1.167 0 2.267-0.277 3.3-0.83 1.033-0.547 2.133-1.353 3.3-2.42v0-6.75c-2.033 0.267-3.74 0.583-5.12 0.95-1.387 0.367-2.503 0.8-3.35 1.3-0.853 0.5-1.47 1.077-1.85 1.73-0.387 0.647-0.58 1.353-0.58 2.12v0c0 1.4 0.417 2.4 1.25 3 0.833 0.6 1.85 0.9 3.05 0.9zM188.5 0h-4.1v-24.3h3.4l0.35 3.5h0.15c1.167-1.167 2.393-2.143 3.68-2.93 1.28-0.78 2.77-1.17 4.47-1.17v0c2.567 0 4.443 0.8 5.63 2.4 1.18 1.6 1.77 3.967 1.77 7.1v0 15.4h-4.1v-14.85c0-2.3-0.367-3.96-1.1-4.98-0.733-1.013-1.9-1.52-3.5-1.52v0c-1.267 0-2.383 0.317-3.35 0.95-0.967 0.633-2.067 1.567-3.3 2.8v0zM215.8 0h-4.05v-35.6h4.05v24.1h0.15l10.35-12.8h4.55l-8.15 9.75 9.25 14.55h-4.5l-7.1-11.7-4.55 5.3z" fill="#1e66aa" fill-rule="nonzero" stroke="none" stroke-width="1" stroke-linecap="butt" stroke-linejoin="miter" stroke-miterlimit="10" stroke-dasharray="" stroke-dashoffset="0" font-family="none" font-weight="none" font-size="none" text-anchor="none" style="mix-blend-mode: normal" data-fill-palette-color="primary" opacity="1"/>
                          </g>
                        </svg>
                      </g>
                    </svg>
                  </g>
                </svg>
              </g>
            </svg>
          </g>
          <g transform="matrix(1,0,0,1,410.23846121760937,0)">
            <svg viewBox="0 0 52.481121154475005 69.97733079033313" height="69.97733079033313" width="52.481121154475005">
              <g>
                <svg xmlns="http://www.w3.org/2000/svg" xmlns:xlink="http://www.w3.org/1999/xlink" version="1.0" x="0" y="0" viewBox="3.999972343444824 0 23.999141693115234 32" enable-background="new 0 0 32 32" xml:space="preserve" height="69.97733079033313" width="52.481121154475005" class="icon-icon-0" data-fill-palette-color="accent" id="icon-0">
                  <path d="M25.98 0h-20C4.875 0 4 0.895 4 2v28c0 1.156-0.018 2 0.865 2 0.77 0 2.026-1.156 3.12-2l7.997-6 7.999 6c1 0.688 2.277 2 3.031 2 1.03 0 0.917-0.824 0.968-2 0.043-1.062 0-28 0-28C27.98 0.895 27.086 0 25.98 0zM19.004 13.895l1.984 6.109-4.992-3.734-5.008 3.734 1.992-6.059L7.988 10h5.996l2.004-6L18 10h5.996L19.004 13.895z" fill="#1e66aa" data-fill-palette-color="accent"/>
                </svg>
              </g>
            </svg>
          </g>
        </svg>
      </g>
      <defs/>
    </svg>
    <rect width="395.52" height="59.81470188122802" fill="none" stroke="none" visibility="hidden"/>
  </g>
</svg>
