<svg data-version="clipboard" use-custom-elements="" xmlns="http://www.w3.org/2000/svg" xmlns:xlink="http://www.w3.org/1999/xlink" x="0" y="0" id="IDI_196f51g" class="showed" data-unit-key="PIXEL" data-drawing-scale="1"><defs>
    </defs><g transform="matrix(1 0 0 1 1.94345 5.13408)" class=""><path d="M 16.204954147338867 5.4360737800598145 L 16.204954147338867 5.4360737800598145 C 14.27684497833252 5.4360737800598145 12.46924114227295 5.095039367675781 10.782143592834473 4.411764621734619 C 9.095046997070312 3.7284905910491943 7.640528202056885 2.7331032752990723 6.419792652130127 1.4231927394866943 C 5.190622329711914 0.12171787768602371 4.226566314697266 -1.4846396446228027 3.5276269912719727 -3.3970842361450195 C 2.820251226425171 -5.301094055175781 2.46716570854187 -7.458167552947998 2.46716570854187 -9.868307113647461 L 2.46716570854187 -9.868307113647461 C 2.46716570854187 -12.318212509155273 2.849172830581665 -14.499387741088867 3.6119816303253174 -16.411832809448242 C 4.374790191650391 -18.31584358215332 5.399098873138428 -19.930635452270508 6.684908390045166 -21.256208419799805 C 7.970717430114746 -22.581787109375 9.46861743927002 -23.58561134338379 11.179816246032715 -24.268882751464844 C 12.882579803466797 -24.952157974243164 14.678133010864258 -25.29319190979004 16.566476821899414 -25.29319190979004 L 16.566476821899414 -25.29319190979004 C 18.49458885192871 -25.29319190979004 20.141916275024414 -24.952157974243164 21.507261276245117 -24.268882751464844 C 22.872604370117188 -23.58561134338379 24.077672958374023 -22.78303337097168 25.122468948364258 -21.85874366760254 L 25.122468948364258 -21.85874366760254 L 22.59182357788086 -18.605058670043945 C 21.748273849487305 -19.36786651611328 20.856523513793945 -19.990888595581055 19.916568756103516 -20.472915649414062 C 18.96817970275879 -20.95494270324707 17.912538528442383 -21.19595718383789 16.747236251831055 -21.19595718383789 L 16.747236251831055 -21.19595718383789 C 15.421660423278809 -21.19595718383789 14.196105003356934 -20.927228927612305 13.071775436401367 -20.388559341430664 C 11.9474458694458 -19.842666625976562 10.983389854431152 -19.066600799560547 10.179608345031738 -18.06277847290039 C 9.37582778930664 -17.0589542388916 8.745576858520508 -15.865935325622559 8.287650108337402 -14.483721733093262 C 7.821288585662842 -13.094276428222656 7.588710308074951 -11.555402755737305 7.588710308074951 -9.868307113647461 L 7.588710308074951 -9.868307113647461 C 7.588710308074951 -8.181208610534668 7.809237480163574 -6.654385566711426 8.251498222351074 -5.289042949676514 C 8.693758964538574 -3.923699378967285 9.308343887329102 -2.7499616146087646 10.095253944396973 -1.7702409029006958 C 10.874934196472168 -0.7820836305618286 11.826939582824707 -0.019275113940238953 12.951268196105957 0.5193910002708435 C 14.075597763061523 1.0652872323989868 15.301153182983398 1.33883798122406 16.62672996520996 1.33883798122406 L 16.62672996520996 1.33883798122406 C 17.99207305908203 1.33883798122406 19.250164031982422 1.046006202697754 20.398597717285156 0.45913735032081604 C 21.539798736572266 -0.11929603666067123 22.57133674621582 -0.8098006248474121 23.495624542236328 -1.6135817766189575 L 23.495624542236328 -1.6135817766189575 L 25.66474723815918 1.7003588676452637 C 24.339174270629883 2.8656609058380127 22.872604370117188 3.776693344116211 21.266246795654297 4.435866355895996 C 19.659889221191406 5.102269649505615 17.97279167175293 5.4360737800598145 16.204954147338867 5.4360737800598145 Z M 42.23445129394531 5.4360737800598145 L 42.23445129394531 5.4360737800598145 C 40.42684555053711 5.4360737800598145 38.707218170166016 5.095039367675781 37.07675552368164 4.411764621734619 C 35.45352554321289 3.7284905910491943 34.01949691772461 2.7331032752990723 32.774662017822266 1.4231927394866943 C 31.529821395874023 0.12171787768602371 30.53684425354004 -1.4846396446228027 29.798137664794922 -3.3970842361450195 C 29.050994873046875 -5.301094055175781 28.67742156982422 -7.458167552947998 28.67742156982422 -9.868307113647461 L 28.67742156982422 -9.868307113647461 C 28.67742156982422 -12.318212509155273 29.050994873046875 -14.499387741088867 29.798137664794922 -16.411832809448242 C 30.53684425354004 -18.31584358215332 31.529821395874023 -19.930635452270508 32.774662017822266 -21.256208419799805 C 34.01949691772461 -22.581787109375 35.45352554321289 -23.58561134338379 37.07675552368164 -24.268882751464844 C 38.707218170166016 -24.952157974243164 40.42684555053711 -25.29319190979004 42.23445129394531 -25.29319190979004 L 42.23445129394531 -25.29319190979004 C 44.042057037353516 -25.29319190979004 45.76169204711914 -24.952157974243164 47.39215087890625 -24.268882751464844 C 49.01537322998047 -23.58561134338379 50.44940948486328 -22.581787109375 51.69424819946289 -21.256208419799805 C 52.93907928466797 -19.930635452270508 53.935672760009766 -18.31584358215332 54.68281936645508 -16.411832809448242 C 55.42152404785156 -14.499387741088867 55.791481018066406 -12.318212509155273 55.791481018066406 -9.868307113647461 L 55.791481018066406 -9.868307113647461 C 55.791481018066406 -7.458167552947998 55.42152404785156 -5.301094055175781 54.68281936645508 -3.3970842361450195 C 53.935672760009766 -1.4846396446228027 52.93907928466797 0.12171787768602371 51.69424819946289 1.4231927394866943 C 50.44940948486328 2.7331032752990723 49.01537322998047 3.7284905910491943 47.39215087890625 4.411764621734619 C 45.76169204711914 5.095039367675781 44.042057037353516 5.4360737800598145 42.23445129394531 5.4360737800598145 Z M 42.23445129394531 1.33883798122406 L 42.23445129394531 1.33883798122406 C 43.47929000854492 1.33883798122406 44.624107360839844 1.0652872323989868 45.66890335083008 0.5193910002708435 C 46.71369552612305 -0.019275113940238953 47.60906219482422 -0.7820836305618286 48.35620880126953 -1.7702409029006958 C 49.094913482666016 -2.7499616146087646 49.666114807128906 -3.923699378967285 50.067405700683594 -5.289042949676514 C 50.46868896484375 -6.654385566711426 50.66993713378906 -8.181208610534668 50.66993713378906 -9.868307113647461 L 50.66993713378906 -9.868307113647461 C 50.66993713378906 -11.555402755737305 50.46868896484375 -13.094276428222656 50.067405700683594 -14.483721733093262 C 49.666114807128906 -15.865935325622559 49.094913482666016 -17.0589542388916 48.35620880126953 -18.06277847290039 C 47.60906219482422 -19.066600799560547 46.71369552612305 -19.842666625976562 45.66890335083008 -20.388559341430664 C 44.624107360839844 -20.927228927612305 43.47929000854492 -21.19595718383789 42.23445129394531 -21.19595718383789 L 42.23445129394531 -21.19595718383789 C 40.98961639404297 -21.19595718383789 39.84480285644531 -20.927228927612305 38.80000686645508 -20.388559341430664 C 37.755210876464844 -19.842666625976562 36.86345672607422 -19.066600799560547 36.124752044677734 -18.06277847290039 C 35.37760925292969 -17.0589542388916 34.80278778076172 -15.865935325622559 34.4015007019043 -14.483721733093262 C 34.000213623046875 -13.094276428222656 33.79896545410156 -11.555402755737305 33.79896545410156 -9.868307113647461 L 33.79896545410156 -9.868307113647461 C 33.79896545410156 -8.181208610534668 34.000213623046875 -6.654385566711426 34.4015007019043 -5.289042949676514 C 34.80278778076172 -3.923699378967285 35.37760925292969 -2.7499616146087646 36.124752044677734 -1.7702409029006958 C 36.86345672607422 -0.7820836305618286 37.755210876464844 -0.019275113940238953 38.80000686645508 0.5193910002708435 C 39.84480285644531 1.0652872323989868 40.98961639404297 1.33883798122406 42.23445129394531 1.33883798122406 Z M 72.0599136352539 5.4360737800598145 L 72.0599136352539 5.4360737800598145 C 68.9267349243164 5.4360737800598145 66.64915466308594 4.472018241882324 65.2271728515625 2.543907642364502 C 63.796756744384766 0.6157962679862976 63.082149505615234 -2.236602544784546 63.082149505615234 -6.012084007263184 L 63.082149505615234 -6.012084007263184 L 63.082149505615234 -24.57015037536621 L 68.08319091796875 -24.57015037536621 L 68.08319091796875 -6.674872398376465 C 68.08319091796875 -3.9032137393951416 68.51701354980469 -1.9064137935638428 69.3846664428711 -0.6856786012649536 C 70.24388122558594 0.5434923768043518 71.63814544677734 1.1580774784088135 73.56625366210938 1.1580774784088135 L 73.56625366210938 1.1580774784088135 C 75.09307861328125 1.1580774784088135 76.43793487548828 0.7640199661254883 77.60323333740234 -0.022890469059348106 C 78.7685317993164 -0.8025704622268677 80.05313873291016 -2.055842399597168 81.45945739746094 -3.7827069759368896 L 81.45945739746094 -3.7827069759368896 L 81.45945739746094 -24.57015037536621 L 86.40023803710938 -24.57015037536621 L 86.40023803710938 4.713032245635986 L 82.30300903320312 4.713032245635986 L 81.88123321533203 0.1337687075138092 L 81.70047760009766 0.1337687075138092 C 80.33512878417969 1.740126132965088 78.89627838134766 3.025935173034668 77.38632202148438 3.989990711212158 C 75.88360595703125 4.954046249389648 74.10853576660156 5.4360737800598145 72.0599136352539 5.4360737800598145 Z M 101.22259521484375 4.713032245635986 L 96.28180694580078 4.713032245635986 L 96.28180694580078 -24.57015037536621 L 100.3790512084961 -24.57015037536621 L 100.80082702636719 -19.267845153808594 L 100.98158264160156 -19.267845153808594 C 101.98540496826172 -21.115219116210938 103.20252227783203 -22.581787109375 104.63294219970703 -23.666349411010742 C 106.054931640625 -24.750913619995117 107.60946655273438 -25.29319190979004 109.29656219482422 -25.29319190979004 L 109.29656219482422 -25.29319190979004 C 110.46186065673828 -25.29319190979004 111.50545501708984 -25.091947555541992 112.42974090576172 -24.690656661987305 L 112.42974090576172 -24.690656661987305 L 111.46568298339844 -20.352407455444336 C 110.98365783691406 -20.512683868408203 110.54139709472656 -20.63319206237793 110.14010620117188 -20.713930130004883 C 109.73882293701172 -20.79467010498047 109.2363052368164 -20.834436416625977 108.63377380371094 -20.834436416625977 L 108.63377380371094 -20.834436416625977 C 107.38893127441406 -20.834436416625977 106.09468841552734 -20.33192253112793 104.75344848632812 -19.328100204467773 C 103.40377044677734 -18.324277877807617 102.2264175415039 -16.57692527770996 101.22259521484375 -14.08604907989502 L 101.22259521484375 -14.08604907989502 L 101.22259521484375 4.713032245635986 Z M 124.60094451904297 5.4360737800598145 L 124.60094451904297 5.4360737800598145 C 122.51255798339844 5.4360737800598145 120.52418518066406 5.0540666580200195 118.6358413696289 4.291257858276367 C 116.74750518798828 3.528449058532715 115.10137176513672 2.5643935203552246 113.69506072998047 1.3990916013717651 L 113.69506072998047 1.3990916013717651 L 116.16545104980469 -1.9148492813110352 C 117.4512710571289 -0.8700537085533142 118.7647933959961 -0.02650582604110241 120.10603332519531 0.6157962679862976 C 121.4557113647461 1.2580983638763428 123.01386260986328 1.5798519849777222 124.78170013427734 1.5798519849777222 L 124.78170013427734 1.5798519849777222 C 126.70980834960938 1.5798519849777222 128.15589904785156 1.1375913619995117 129.1199493408203 0.25427567958831787 C 130.08399963378906 -0.6290403604507446 130.5660400390625 -1.7136026620864868 130.5660400390625 -2.9994115829467773 L 130.5660400390625 -2.9994115829467773 C 130.5660400390625 -3.7622201442718506 130.3647918701172 -4.4250078201293945 129.9635009765625 -4.9877753257751465 C 129.5622100830078 -5.550543308258057 129.05126953125 -6.044620990753174 128.4330596923828 -6.470010280609131 C 127.8064193725586 -6.888169288635254 127.0918197631836 -7.256920337677002 126.28804016113281 -7.578673839569092 C 125.48426055908203 -7.900428295135498 124.68167877197266 -8.220975875854492 123.87789916992188 -8.542729377746582 L 123.87789916992188 -8.542729377746582 C 122.83309936523438 -8.904251098632812 121.78951263427734 -9.317588806152344 120.74471282958984 -9.783950805664062 C 119.69992065429688 -10.241877555847168 118.76840209960938 -10.804644584655762 117.9489517211914 -11.471049308776855 C 117.12107849121094 -12.130221366882324 116.44624328613281 -12.901464462280273 115.9244384765625 -13.784782409667969 C 115.40264129638672 -14.668097496032715 115.14115142822266 -15.733376502990723 115.14115142822266 -16.978214263916016 L 115.14115142822266 -16.978214263916016 C 115.14115142822266 -18.143516540527344 115.37371826171875 -19.240131378173828 115.84008026123047 -20.26805305480957 C 116.29801177978516 -21.288745880126953 116.96080017089844 -22.17206382751465 117.82845306396484 -22.919206619262695 C 118.68766021728516 -23.657913208007812 119.74089050292969 -24.241167068481445 120.98573303222656 -24.666555404663086 C 122.2305679321289 -25.084714889526367 123.63688659667969 -25.29319190979004 125.20347595214844 -25.29319190979004 L 125.20347595214844 -25.29319190979004 C 127.05084228515625 -25.29319190979004 128.74998474121094 -24.971439361572266 130.30091857910156 -24.329137802124023 C 131.84341430664062 -23.68683433532715 133.1774139404297 -22.903541564941406 134.30174255371094 -21.979251861572266 L 134.30174255371094 -21.979251861572266 L 131.9518585205078 -18.846071243286133 C 130.9480438232422 -19.6088809967041 129.9032440185547 -20.231903076171875 128.8186798095703 -20.713930130004883 C 127.73412322998047 -21.19595718383789 126.54953002929688 -21.43697166442871 125.26372528076172 -21.43697166442871 L 125.26372528076172 -21.43697166442871 C 123.4163589477539 -21.43697166442871 122.06185913085938 -21.015195846557617 121.20265197753906 -20.171648025512695 C 120.33499908447266 -19.328100204467773 119.90116882324219 -18.343557357788086 119.90116882324219 -17.21923065185547 L 119.90116882324219 -17.21923065185547 C 119.90116882324219 -16.535953521728516 120.0819320678711 -15.945469856262207 120.44345092773438 -15.447775840759277 C 120.80496978759766 -14.94164752960205 121.28699493408203 -14.499387741088867 121.88954162597656 -14.122201919555664 C 122.49207305908203 -13.736578941345215 123.18739318847656 -13.395543098449707 123.97429656982422 -13.097891807556152 C 124.75398254394531 -12.793009757995605 125.56498718261719 -12.479690551757812 126.4085464477539 -12.157938003540039 L 126.4085464477539 -12.157938003540039 C 127.45333862304688 -11.7566499710083 128.50897216796875 -11.33487606048584 129.577880859375 -10.892614364624023 C 130.63833618164062 -10.450355529785156 131.59033203125 -9.900842666625977 132.43389892578125 -9.241670608520508 C 133.27743530273438 -8.57526683807373 133.97276306152344 -7.759435176849365 134.51864624023438 -6.795379638671875 C 135.0573272705078 -5.831324100494385 135.32606506347656 -4.666022300720215 135.32606506347656 -3.3006792068481445 L 135.32606506347656 -3.3006792068481445 C 135.32606506347656 -2.095609664916992 135.0970916748047 -0.9712799191474915 134.63917541503906 0.0735156312584877 C 134.1728057861328 1.1183104515075684 133.49073791503906 2.041393518447876 132.59054565429688 2.845174789428711 C 131.68313598632812 3.648956060409546 130.55760192871094 4.282822608947754 129.2163543701172 4.7491841316223145 C 127.86668395996094 5.207110404968262 126.32779693603516 5.4360737800598145 124.60094451904297 5.4360737800598145 Z M 154.06488037109375 5.4360737800598145 L 154.06488037109375 5.4360737800598145 C 152.09701538085938 5.4360737800598145 150.26046752929688 5.082988262176514 148.55770874023438 4.375612735748291 C 146.84652709960938 3.6766724586486816 145.3606719970703 2.6728498935699463 144.09896850585938 1.3629393577575684 C 142.83001708984375 0.06146480143070221 141.83343505859375 -1.5328423976898193 141.11038208007812 -3.4211859703063965 C 140.38734436035156 -5.309528827667236 140.02581787109375 -7.458167552947998 140.02581787109375 -9.868307113647461 L 140.02581787109375 -9.868307113647461 C 140.02581787109375 -12.27844524383545 140.39939880371094 -14.439133644104004 141.14654541015625 -16.351579666137695 C 141.88523864746094 -18.255586624145508 142.86978149414062 -19.870380401611328 144.09896850585938 -21.19595718383789 C 145.3197021484375 -22.521533966064453 146.71395874023438 -23.53740692138672 148.28054809570312 -24.244783401489258 C 149.84715270996094 -24.943723678588867 151.47396850585938 -25.29319190979004 153.16107177734375 -25.29319190979004 L 153.16107177734375 -25.29319190979004 C 155.00845336914062 -25.29319190979004 156.6642303466797 -24.971439361572266 158.12596130371094 -24.329137802124023 C 159.5961456298828 -23.68683433532715 160.82533264160156 -22.76254653930664 161.8134765625 -21.557477951049805 C 162.79319763183594 -20.352407455444336 163.54515075683594 -18.90632438659668 164.06695556640625 -17.21923065185547 C 164.5887451171875 -15.53213119506836 164.85025024414062 -13.643787384033203 164.85025024414062 -11.555402755737305 L 164.85025024414062 -11.555402755737305 C 164.85025024414062 -11.033608436584473 164.84182739257812 -10.522658348083496 164.82615661621094 -10.024964332580566 C 164.80203247070312 -9.51883602142334 164.75022888183594 -9.085010528564453 164.6694793701172 -8.723489761352539 L 164.6694793701172 -8.723489761352539 L 144.90635681152344 -8.723489761352539 C 145.10760498046875 -5.590310573577881 146.08370971679688 -3.111482858657837 147.8346710205078 -1.2882131338119507 C 149.5784149169922 0.5434923768043518 151.85598754882812 1.4593449831008911 154.66741943359375 1.4593449831008911 L 154.66741943359375 1.4593449831008911 C 156.07374572753906 1.4593449831008911 157.37039184570312 1.2460474967956543 158.55979919433594 0.8206582069396973 C 159.74075317382812 0.40249937772750854 160.87351989746094 -0.14701251685619354 161.95806884765625 -0.8302863836288452 L 161.95806884765625 -0.8302863836288452 L 163.7054443359375 2.423400402069092 C 162.41964721679688 3.2271816730499268 160.99404907226562 3.929737091064453 159.42745971679688 4.532271862030029 C 157.86083984375 5.1348066329956055 156.07374572753906 5.4360737800598145 154.06488037109375 5.4360737800598145 Z M 144.84609985351562 -12.27844524383545 L 144.84609985351562 -12.27844524383545 L 160.51199340820312 -12.27844524383545 C 160.51199340820312 -15.251349449157715 159.88174438476562 -17.512060165405273 158.6200408935547 -19.062984466552734 C 157.35110473632812 -20.605472564697266 155.57122802734375 -21.37671661376953 153.28158569335938 -21.37671661376953 L 153.28158569335938 -21.37671661376953 C 152.23678588867188 -21.37671661376953 151.24502563476562 -21.17547035217285 150.30508422851562 -20.774181365966797 C 149.35667419433594 -20.372894287109375 148.50108337402344 -19.78240966796875 147.73826599121094 -19.002731323242188 C 146.9754638671875 -18.215822219848633 146.34400939941406 -17.258995056152344 145.84629821777344 -16.134666442871094 C 145.34019470214844 -15.010337829589844 145.00637817382812 -13.724528312683105 144.84609985351562 -12.27844524383545 Z M 177.0214385986328 4.713032245635986 L 172.08067321777344 4.713032245635986 L 172.08067321777344 -24.57015037536621 L 176.1779022216797 -24.57015037536621 L 176.5996856689453 -19.267845153808594 L 176.7804412841797 -19.267845153808594 C 177.7842559814453 -21.115219116210938 179.00137329101562 -22.581787109375 180.43179321289062 -23.666349411010742 C 181.85379028320312 -24.750913619995117 183.40830993652344 -25.29319190979004 185.09542846679688 -25.29319190979004 L 185.09542846679688 -25.29319190979004 C 186.26072692871094 -25.29319190979004 187.30430603027344 -25.091947555541992 188.2285919189453 -24.690656661987305 L 188.2285919189453 -24.690656661987305 L 187.26454162597656 -20.352407455444336 C 186.7825164794922 -20.512683868408203 186.34024047851562 -20.63319206237793 185.93896484375 -20.713930130004883 C 185.5376739501953 -20.79467010498047 185.03517150878906 -20.834436416625977 184.43263244628906 -20.834436416625977 L 184.43263244628906 -20.834436416625977 C 183.18780517578125 -20.834436416625977 181.89353942871094 -20.33192253112793 180.5523223876953 -19.328100204467773 C 179.20263671875 -18.324277877807617 178.02528381347656 -16.57692527770996 177.0214385986328 -14.08604907989502 L 177.0214385986328 -14.08604907989502 L 177.0214385986328 4.713032245635986 Z M 198.2909393310547 5.4360737800598145 L 198.2909393310547 5.4360737800598145 C 195.8410186767578 5.4360737800598145 193.804443359375 4.713032245635986 192.18121337890625 3.266948938369751 C 190.55076599121094 1.8208656311035156 189.73492431640625 -0.22775189578533173 189.73492431640625 -2.8789050579071045 L 189.73492431640625 -2.8789050579071045 C 189.73492431640625 -6.0928239822387695 191.1605224609375 -8.554780006408691 194.012939453125 -10.265978813171387 C 196.86534118652344 -11.968742370605469 201.42410278320312 -13.161760330200195 207.6904754638672 -13.8450345993042 L 207.6904754638672 -13.8450345993042 C 207.6904754638672 -14.769323348999023 207.6024932861328 -15.673124313354492 207.42535400390625 -16.556438446044922 C 207.24098205566406 -17.439756393432617 206.9276580810547 -18.223052978515625 206.48541259765625 -18.90632438659668 C 206.04315185546875 -19.589599609375 205.43336486816406 -20.143932342529297 204.65370178222656 -20.569320678710938 C 203.8667755126953 -20.98748016357422 202.8701934814453 -21.19595718383789 201.66513061523438 -21.19595718383789 L 201.66513061523438 -21.19595718383789 C 199.97801208496094 -21.19595718383789 198.3909454345703 -20.874204635620117 196.90509033203125 -20.231903076171875 C 195.41925048828125 -19.589599609375 194.0936737060547 -18.866558074951172 192.92837524414062 -18.06277847290039 L 192.92837524414062 -18.06277847290039 L 191.00025939941406 -21.497224807739258 C 192.36558532714844 -22.38054084777832 194.0334014892578 -23.236141204833984 196.0012969970703 -24.064022064208984 C 197.96917724609375 -24.883468627929688 200.13829040527344 -25.29319190979004 202.5086669921875 -25.29319190979004 L 202.5086669921875 -25.29319190979004 C 206.08412170410156 -25.29319190979004 208.67501831054688 -24.200193405151367 210.2813720703125 -22.015405654907227 C 211.88771057128906 -19.822179794311523 212.69149780273438 -16.89747428894043 212.69149780273438 -13.242499351501465 L 212.69149780273438 -13.242499351501465 L 212.69149780273438 4.713032245635986 L 208.59426879882812 4.713032245635986 L 208.1724853515625 1.2183310985565186 L 207.9917449951172 1.2183310985565186 C 206.58541870117188 2.3836331367492676 205.07908630371094 3.3754053115844727 203.4727325439453 4.194852352142334 C 201.86636352539062 5.022735118865967 200.13829040527344 5.4360737800598145 198.2909393310547 5.4360737800598145 Z M 199.7370147705078 1.4593449831008911 L 199.7370147705078 1.4593449831008911 C 201.14332580566406 1.4593449831008911 202.46890258789062 1.125540852546692 203.71372985839844 0.45913735032081604 C 204.9585723876953 -0.20003540813922882 206.28414916992188 -1.1713212728500366 207.6904754638672 -2.457130193710327 L 207.6904754638672 -2.457130193710327 L 207.6904754638672 -10.591346740722656 C 205.2405548095703 -10.269593238830566 203.18350219726562 -9.88879108428955 201.5205078125 -9.446532249450684 C 199.84909057617188 -9.004271507263184 198.5042266845703 -8.482476234436035 197.48355102539062 -7.879941463470459 C 196.45559692382812 -7.277406215667725 195.7120819091797 -6.5820817947387695 195.254150390625 -5.795172691345215 C 194.7877960205078 -5.015491962432861 194.55520629882812 -4.164713382720947 194.55520629882812 -3.2404251098632812 L 194.55520629882812 -3.2404251098632812 C 194.55520629882812 -1.5533281564712524 195.05772399902344 -0.3482585847377777 196.06153869628906 0.37478262186050415 C 197.0653839111328 1.0978240966796875 198.2909393310547 1.4593449831008911 199.7370147705078 1.4593449831008911 Z M 226.85107421875 4.713032245635986 L 221.9102783203125 4.713032245635986 L 221.9102783203125 -24.57015037536621 L 226.00753784179688 -24.57015037536621 L 226.42929077148438 -20.352407455444336 L 226.6100616455078 -20.352407455444336 C 228.01637268066406 -21.75872230529785 229.4937744140625 -22.934873580932617 231.04470825195312 -23.883262634277344 C 232.5872039794922 -24.82321548461914 234.38275146484375 -25.29319190979004 236.43136596679688 -25.29319190979004 L 236.43136596679688 -25.29319190979004 C 239.5247802734375 -25.29319190979004 241.78549194335938 -24.329137802124023 243.21591186523438 -22.40102767944336 C 244.6378936767578 -20.472915649414062 245.34889221191406 -17.62051773071289 245.34889221191406 -13.8450345993042 L 245.34889221191406 -13.8450345993042 L 245.34889221191406 4.713032245635986 L 240.40809631347656 4.713032245635986 L 240.40809631347656 -13.182247161865234 C 240.40809631347656 -15.953906059265137 239.96583557128906 -17.954320907592773 239.08250427246094 -19.18349266052246 C 238.19921875 -20.40422821044922 236.7928924560547 -21.015195846557617 234.86477661132812 -21.015195846557617 L 234.86477661132812 -21.015195846557617 C 233.33795166015625 -21.015195846557617 231.9930877685547 -20.63319206237793 230.82778930664062 -19.870380401611328 C 229.6624755859375 -19.107572555541992 228.33692932128906 -17.982036590576172 226.85107421875 -16.496187210083008 L 226.85107421875 -16.496187210083008 L 226.85107421875 4.713032245635986 Z M 259.74945068359375 4.713032245635986 L 254.86892700195312 4.713032245635986 L 254.86892700195312 -38.18743133544922 L 259.74945068359375 -38.18743133544922 L 259.74945068359375 -9.145264625549316 L 259.93023681640625 -9.145264625549316 L 272.4027099609375 -24.57015037536621 L 277.8857421875 -24.57015037536621 L 268.0644226074219 -12.820725440979004 L 279.2113342285156 4.713032245635986 L 273.78851318359375 4.713032245635986 L 265.2325439453125 -9.38627815246582 L 259.74945068359375 -2.9994115829467773 L 259.74945068359375 4.713032245635986 Z " fill="#1e66aa" transform="matrix(1 0 0 1 -2.46716 38.1874)" class=""/><path d="M 64.75633239746094 0.2812986969947815 L 38.43638610839844 0.2812986969947815 C 36.98221206665039 0.2812986969947815 35.83071517944336 1.4591162204742432 35.83071517944336 2.9132931232452393 L 35.83071517944336 39.76121139526367 C 35.83071517944336 41.28250503540039 35.80702590942383 42.393211364746094 36.969051361083984 42.393211364746094 C 37.98236846923828 42.393211364746094 39.63526153564453 40.87191390991211 41.0749626159668 39.76121139526367 L 51.59899139404297 31.865230560302734 L 62.12565231323242 39.76121139526367 C 63.441650390625 40.66661834716797 65.12217712402344 42.393211364746094 66.11444091796875 42.393211364746094 C 67.46991729736328 42.393211364746094 67.32121276855469 41.3088264465332 67.38832092285156 39.76121139526367 C 67.44491577148438 38.363624572753906 67.38832092285156 2.9132931232452393 67.38832092285156 2.9132931232452393 C 67.38832092285156 1.4591162204742432 66.21182250976562 0.2812986969947815 64.75633239746094 0.2812986969947815 Z M 55.575931549072266 18.567079544067383 L 58.18687438964844 26.60650634765625 L 51.61741256713867 21.69257354736328 L 45.02690124511719 26.60650634765625 L 47.64836502075195 18.632877349853516 L 41.07891082763672 13.441269874572754 L 48.969627380371094 13.441269874572754 L 51.60688781738281 5.545287132263184 L 54.25467300415039 13.441269874572754 L 62.145389556884766 13.441269874572754 L 55.575931549072266 18.567079544067383 Z " fill="#1e66aa" transform="matrix(1 0 0 1 247.668 2.27922)" class=""/></g></svg>