<svg id="Layer_1" data-name="Layer 1" xmlns="http://www.w3.org/2000/svg" viewBox="0 0 364 50.004"><defs><style>.cls-1{fill:#1e66aa;}.cls-2{fill:#231f20;}</style></defs><path class="cls-1" d="M2.139,40.474c0-3.468-.07-6.311-.277-9.086H7.2l.277,5.41h.209a11.569,11.569,0,0,1,10.541-6.173,9.924,9.924,0,0,1,9.5,6.728h.138a13.841,13.841,0,0,1,3.746-4.369,11.454,11.454,0,0,1,7.42-2.359c4.439,0,11.028,2.913,11.028,14.565V64.956H44.1v-19c0-6.45-2.357-10.334-7.282-10.334A7.9,7.9,0,0,0,29.6,41.167a10.074,10.074,0,0,0-.485,3.052V64.956H23.154V44.843c0-5.34-2.359-9.224-7.006-9.224-3.814,0-6.588,3.052-7.559,6.1A8.409,8.409,0,0,0,8.1,44.7V64.956H2.139Z" transform="translate(-1.862 -15.715)"/><path class="cls-1" d="M66.771,21.956a3.78,3.78,0,0,1-7.56,0,3.718,3.718,0,0,1,3.815-3.814A3.622,3.622,0,0,1,66.771,21.956Zm-6.8,43V31.388h6.1V64.956Z" transform="translate(-1.862 -15.715)"/><path class="cls-1" d="M105.191,15.715V56.287c0,2.982.069,6.381.278,8.669h-5.48l-.277-5.826h-.139A12.416,12.416,0,0,1,88.13,65.719c-8.115,0-14.357-6.866-14.357-17.061-.069-11.166,6.866-18.033,15.05-18.033,5.132,0,8.6,2.428,10.126,5.133h.139V15.715Zm-6.1,29.336a10.832,10.832,0,0,0-.277-2.566A8.977,8.977,0,0,0,90,35.411c-6.312,0-10.057,5.548-10.057,12.969,0,6.8,3.329,12.415,9.918,12.415a9.176,9.176,0,0,0,8.947-7.283,10.642,10.642,0,0,0,.277-2.635Z" transform="translate(-1.862 -15.715)"/><path class="cls-1" d="M144.3,15.715V56.287c0,2.982.069,6.381.277,8.669H139.1l-.278-5.826h-.139a12.416,12.416,0,0,1-11.443,6.589c-8.115,0-14.357-6.866-14.357-17.061-.069-11.166,6.867-18.033,15.05-18.033,5.133,0,8.6,2.428,10.127,5.133h.138V15.715Zm-6.1,29.336a10.781,10.781,0,0,0-.277-2.566,8.978,8.978,0,0,0-8.808-7.074c-6.312,0-10.057,5.548-10.057,12.969,0,6.8,3.329,12.415,9.918,12.415a9.175,9.175,0,0,0,8.947-7.283,10.594,10.594,0,0,0,.277-2.635Z" transform="translate(-1.862 -15.715)"/><path class="cls-2" d="M178.351,63.708a22.486,22.486,0,0,1-9.64,1.942C158.585,65.65,152,58.783,152,48.519,152,38.185,159.07,30.7,170.028,30.7a20.4,20.4,0,0,1,8.461,1.734L177.1,37.145a14.151,14.151,0,0,0-7.074-1.6c-7.7,0-11.859,5.687-11.859,12.692,0,7.767,4.994,12.553,11.651,12.553a17.343,17.343,0,0,0,7.491-1.665Z" transform="translate(-1.862 -15.715)"/><path class="cls-2" d="M215.452,47.9c0,12.414-8.6,17.824-16.715,17.824-9.085,0-16.09-6.658-16.09-17.269,0-11.235,7.352-17.825,16.646-17.825C208.932,30.625,215.452,37.63,215.452,47.9Zm-26.632.347c0,7.351,4.23,12.9,10.195,12.9,5.826,0,10.2-5.479,10.2-13.039,0-5.687-2.843-12.9-10.056-12.9S188.82,41.861,188.82,48.242Z" transform="translate(-1.862 -15.715)"/><path class="cls-2" d="M251.235,55.8c0,3.468.069,6.52.277,9.155H246.1l-.347-5.479h-.138a12.63,12.63,0,0,1-11.1,6.242c-5.271,0-11.582-2.913-11.582-14.7V31.388h6.1V49.975c0,6.381,1.941,10.681,7.49,10.681a8.823,8.823,0,0,0,8.045-5.548,8.921,8.921,0,0,0,.555-3.121v-20.6h6.1Z" transform="translate(-1.862 -15.715)"/><path class="cls-2" d="M261.355,41.861c0-3.953-.069-7.352-.277-10.473h5.34l.208,6.589h.277c1.526-4.508,5.2-7.352,9.294-7.352a6.579,6.579,0,0,1,1.733.209V36.59a9.2,9.2,0,0,0-2.08-.208c-4.3,0-7.351,3.26-8.184,7.837a17.156,17.156,0,0,0-.277,2.844V64.956h-6.034Z" transform="translate(-1.862 -15.715)"/><path class="cls-2" d="M283.2,58.714a16,16,0,0,0,8.045,2.428c4.439,0,6.519-2.22,6.519-4.994,0-2.913-1.734-4.508-6.241-6.173-6.034-2.15-8.878-5.478-8.878-9.5,0-5.41,4.37-9.849,11.583-9.849a16.762,16.762,0,0,1,8.252,2.081l-1.526,4.439a13.059,13.059,0,0,0-6.865-1.942c-3.607,0-5.618,2.08-5.618,4.577,0,2.774,2.011,4.023,6.38,5.687,5.826,2.22,8.808,5.133,8.808,10.126,0,5.895-4.577,10.057-12.553,10.057a19.142,19.142,0,0,1-9.432-2.289Z" transform="translate(-1.862 -15.715)"/><path class="cls-2" d="M314.89,49.282c.139,8.253,5.41,11.652,11.513,11.652A22.078,22.078,0,0,0,335.7,59.2l1.041,4.369a27.187,27.187,0,0,1-11.166,2.081c-10.334,0-16.507-6.8-16.507-16.923s5.965-18.1,15.744-18.1c10.958,0,13.871,9.641,13.871,15.813a22.848,22.848,0,0,1-.209,2.844Zm17.894-4.369c.069-3.884-1.6-9.918-8.461-9.918-6.173,0-8.878,5.687-9.364,9.918Z" transform="translate(-1.862 -15.715)"/><path class="cls-2" d="M345.4,58.714a16,16,0,0,0,8.046,2.428c4.439,0,6.519-2.22,6.519-4.994,0-2.913-1.734-4.508-6.241-6.173-6.034-2.15-8.878-5.478-8.878-9.5,0-5.41,4.369-9.849,11.582-9.849a16.763,16.763,0,0,1,8.253,2.081l-1.526,4.439a13.063,13.063,0,0,0-6.866-1.942c-3.606,0-5.617,2.08-5.617,4.577,0,2.774,2.011,4.023,6.38,5.687,5.826,2.22,8.808,5.133,8.808,10.126,0,5.895-4.578,10.057-12.553,10.057a19.142,19.142,0,0,1-9.432-2.289Z" transform="translate(-1.862 -15.715)"/></svg>