<svg data-v-423bf9ae="" xmlns="http://www.w3.org/2000/svg" viewBox="0 0 535 90" class="iconLeft"><!----><!----><!----><g data-v-423bf9ae="" id="4b88385a-b394-40bf-94db-82567eb01c43" fill="#828282" transform="matrix(5.459508284166465,0,0,5.459508284166465,180.35667585735342,7.356688413122477)"><path d="M11.62 1.40L11.62 1.40Q11.93 1.40 12.14 1.61L12.14 1.61L12.14 1.61Q12.35 1.82 12.35 2.13L12.35 2.13L12.35 11.61L12.35 11.61Q12.35 11.91 12.13 12.12L12.13 12.12L12.13 12.12Q11.91 12.33 11.62 12.33L11.62 12.33L11.62 12.33Q11.31 12.33 11.10 12.12L11.10 12.12L11.10 12.12Q10.89 11.91 10.89 11.61L10.89 11.61L10.89 4.65L7.50 11.55L7.50 11.55Q7.27 11.91 6.87 11.91L6.87 11.91L6.87 11.91Q6.41 11.91 6.20 11.48L6.20 11.48L2.86 4.77L2.86 11.61L2.86 11.61Q2.86 11.91 2.65 12.12L2.65 12.12L2.65 12.12Q2.44 12.33 2.13 12.33L2.13 12.33L2.13 12.33Q1.82 12.33 1.61 12.12L1.61 12.12L1.61 12.12Q1.40 11.91 1.40 11.61L1.40 11.61L1.40 2.13L1.40 2.13Q1.40 1.82 1.61 1.61L1.61 1.61L1.61 1.61Q1.82 1.40 2.13 1.40L2.13 1.40L2.13 1.40Q2.55 1.40 2.77 1.79L2.77 1.79L6.93 10.12L10.98 1.79L10.98 1.79Q11.20 1.40 11.62 1.40L11.62 1.40ZM15.15 5.39L15.15 5.39Q15.15 5.07 15.35 4.87L15.35 4.87L15.35 4.87Q15.55 4.68 15.86 4.68L15.86 4.68L15.86 4.68Q16.18 4.68 16.38 4.87L16.38 4.87L16.38 4.87Q16.58 5.07 16.58 5.39L16.58 5.39L16.58 11.62L16.58 11.62Q16.58 11.93 16.38 12.13L16.38 12.13L16.38 12.13Q16.18 12.33 15.86 12.33L15.86 12.33L15.86 12.33Q15.55 12.33 15.35 12.13L15.35 12.13L15.35 12.13Q15.15 11.93 15.15 11.62L15.15 11.62L15.15 5.39ZM15.86 1.58L15.86 1.58Q16.24 1.58 16.51 1.85L16.51 1.85L16.51 1.85Q16.79 2.13 16.79 2.51L16.79 2.51L16.79 2.51Q16.79 2.88 16.51 3.16L16.51 3.16L16.51 3.16Q16.24 3.43 15.86 3.43L15.86 3.43L15.86 3.43Q15.48 3.43 15.21 3.16L15.21 3.16L15.21 3.16Q14.94 2.88 14.94 2.51L14.94 2.51L14.94 2.51Q14.94 2.13 15.21 1.85L15.21 1.85L15.21 1.85Q15.48 1.58 15.86 1.58L15.86 1.58ZM25.84 1.40L25.84 1.40Q26.17 1.40 26.36 1.60L26.36 1.60L26.36 1.60Q26.56 1.79 26.56 2.11L26.56 2.11L26.56 8.50L26.56 8.50Q26.56 9.59 26.05 10.48L26.05 10.48L26.05 10.48Q25.54 11.37 24.66 11.88L24.66 11.88L24.66 11.88Q23.79 12.39 22.71 12.39L22.71 12.39L22.71 12.39Q21.63 12.39 20.74 11.88L20.74 11.88L20.74 11.88Q19.85 11.37 19.35 10.48L19.35 10.48L19.35 10.48Q18.84 9.59 18.84 8.50L18.84 8.50L18.84 8.50Q18.84 7.41 19.31 6.52L19.31 6.52L19.31 6.52Q19.78 5.63 20.60 5.12L20.60 5.12L20.60 5.12Q21.42 4.62 22.43 4.62L22.43 4.62L22.43 4.62Q23.24 4.62 23.94 4.96L23.94 4.96L23.94 4.96Q24.64 5.29 25.13 5.89L25.13 5.89L25.13 2.11L25.13 2.11Q25.13 1.79 25.33 1.60L25.33 1.60L25.33 1.60Q25.54 1.40 25.84 1.40L25.84 1.40ZM22.71 11.13L22.71 11.13Q23.41 11.13 23.98 10.79L23.98 10.79L23.98 10.79Q24.54 10.44 24.86 9.84L24.86 9.84L24.86 9.84Q25.19 9.24 25.19 8.50L25.19 8.50L25.19 8.50Q25.19 7.76 24.86 7.16L24.86 7.16L24.86 7.16Q24.54 6.57 23.98 6.22L23.98 6.22L23.98 6.22Q23.41 5.88 22.71 5.88L22.71 5.88L22.71 5.88Q22.01 5.88 21.44 6.22L21.44 6.22L21.44 6.22Q20.87 6.57 20.54 7.16L20.54 7.16L20.54 7.16Q20.22 7.76 20.22 8.50L20.22 8.50L20.22 8.50Q20.22 9.24 20.54 9.84L20.54 9.84L20.54 9.84Q20.87 10.44 21.44 10.79L21.44 10.79L21.44 10.79Q22.01 11.13 22.71 11.13L22.71 11.13ZM35.69 1.40L35.69 1.40Q36.01 1.40 36.20 1.60L36.20 1.60L36.20 1.60Q36.40 1.79 36.40 2.11L36.40 2.11L36.40 8.50L36.40 8.50Q36.40 9.59 35.89 10.48L35.89 10.48L35.89 10.48Q35.38 11.37 34.50 11.88L34.50 11.88L34.50 11.88Q33.63 12.39 32.55 12.39L32.55 12.39L32.55 12.39Q31.47 12.39 30.58 11.88L30.58 11.88L30.58 11.88Q29.69 11.37 29.19 10.48L29.19 10.48L29.19 10.48Q28.69 9.59 28.69 8.50L28.69 8.50L28.69 8.50Q28.69 7.41 29.15 6.52L29.15 6.52L29.15 6.52Q29.62 5.63 30.44 5.12L30.44 5.12L30.44 5.12Q31.26 4.62 32.27 4.62L32.27 4.62L32.27 4.62Q33.08 4.62 33.78 4.96L33.78 4.96L33.78 4.96Q34.48 5.29 34.97 5.89L34.97 5.89L34.97 2.11L34.97 2.11Q34.97 1.79 35.17 1.60L35.17 1.60L35.17 1.60Q35.38 1.40 35.69 1.40L35.69 1.40ZM32.55 11.13L32.55 11.13Q33.25 11.13 33.82 10.79L33.82 10.79L33.82 10.79Q34.38 10.44 34.71 9.84L34.71 9.84L34.71 9.84Q35.03 9.24 35.03 8.50L35.03 8.50L35.03 8.50Q35.03 7.76 34.71 7.16L34.71 7.16L34.71 7.16Q34.38 6.57 33.82 6.22L33.82 6.22L33.82 6.22Q33.25 5.88 32.55 5.88L32.55 5.88L32.55 5.88Q31.85 5.88 31.28 6.22L31.28 6.22L31.28 6.22Q30.72 6.57 30.39 7.16L30.39 7.16L30.39 7.16Q30.06 7.76 30.06 8.50L30.06 8.50L30.06 8.50Q30.06 9.24 30.39 9.84L30.39 9.84L30.39 9.84Q30.72 10.44 31.28 10.79L31.28 10.79L31.28 10.79Q31.85 11.13 32.55 11.13L32.55 11.13ZM42.32 1.40L42.32 1.40Q43.90 1.40 45.14 2.10L45.14 2.10L45.14 2.10Q46.37 2.80 47.05 4.04L47.05 4.04L47.05 4.04Q47.74 5.28 47.74 6.86L47.74 6.86L47.74 6.86Q47.74 8.44 47.05 9.69L47.05 9.69L47.05 9.69Q46.37 10.93 45.14 11.63L45.14 11.63L45.14 11.63Q43.90 12.33 42.32 12.33L42.32 12.33L39.79 12.33L39.79 12.33Q39.48 12.33 39.27 12.12L39.27 12.12L39.27 12.12Q39.06 11.91 39.06 11.61L39.06 11.61L39.06 2.13L39.06 2.13Q39.06 1.81 39.27 1.60L39.27 1.60L39.27 1.60Q39.48 1.40 39.79 1.40L39.79 1.40L42.32 1.40ZM42.32 11.05L42.32 11.05Q43.48 11.05 44.40 10.51L44.40 10.51L44.40 10.51Q45.32 9.98 45.83 9.02L45.83 9.02L45.83 9.02Q46.34 8.06 46.34 6.86L46.34 6.86L46.34 6.86Q46.34 5.66 45.83 4.70L45.83 4.70L45.83 4.70Q45.32 3.75 44.40 3.22L44.40 3.22L44.40 3.22Q43.48 2.69 42.32 2.69L42.32 2.69L40.52 2.69L40.52 11.05L42.32 11.05ZM56.76 8.39L56.76 8.39Q56.76 8.65 56.57 8.83L56.57 8.83L56.57 8.83Q56.39 9.00 56.11 9.00L56.11 9.00L50.79 9.00L50.79 9.00Q50.95 9.98 51.68 10.58L51.68 10.58L51.68 10.58Q52.42 11.19 53.48 11.19L53.48 11.19L53.48 11.19Q53.90 11.19 54.36 11.03L54.36 11.03L54.36 11.03Q54.81 10.88 55.10 10.65L55.10 10.65L55.10 10.65Q55.30 10.50 55.57 10.50L55.57 10.50L55.57 10.50Q55.83 10.50 55.99 10.64L55.99 10.64L55.99 10.64Q56.24 10.85 56.24 11.12L56.24 11.12L56.24 11.12Q56.24 11.37 56.01 11.54L56.01 11.54L56.01 11.54Q55.54 11.91 54.83 12.15L54.83 12.15L54.83 12.15Q54.12 12.39 53.48 12.39L53.48 12.39L53.48 12.39Q52.33 12.39 51.42 11.89L51.42 11.89L51.42 11.89Q50.51 11.40 50.00 10.51L50.00 10.51L50.00 10.51Q49.49 9.63 49.49 8.51L49.49 8.51L49.49 8.51Q49.49 7.39 49.97 6.50L49.97 6.50L49.97 6.50Q50.46 5.61 51.32 5.12L51.32 5.12L51.32 5.12Q52.18 4.62 53.27 4.62L53.27 4.62L53.27 4.62Q54.35 4.62 55.13 5.10L55.13 5.10L55.13 5.10Q55.92 5.57 56.34 6.43L56.34 6.43L56.34 6.43Q56.76 7.28 56.76 8.39L56.76 8.39ZM53.27 5.82L53.27 5.82Q52.25 5.82 51.61 6.38L51.61 6.38L51.61 6.38Q50.97 6.94 50.81 7.88L50.81 7.88L55.47 7.88L55.47 7.88Q55.34 6.94 54.77 6.38L54.77 6.38L54.77 6.38Q54.19 5.82 53.27 5.82L53.27 5.82ZM64.47 4.77L64.47 4.77Q64.65 4.86 64.75 5.00L64.75 5.00L64.75 5.00Q64.85 5.15 64.85 5.33L64.85 5.33L64.85 5.33Q64.85 5.46 64.78 5.60L64.78 5.60L61.81 11.86L61.81 11.86Q61.60 12.32 61.17 12.32L61.17 12.32L61.17 12.32Q60.93 12.32 60.77 12.21L60.77 12.21L60.77 12.21Q60.62 12.11 60.49 11.86L60.49 11.86L57.53 5.60L57.53 5.60Q57.47 5.49 57.47 5.35L57.47 5.35L57.47 5.35Q57.47 4.97 57.86 4.77L57.86 4.77L57.86 4.77Q57.99 4.70 58.16 4.70L58.16 4.70L58.16 4.70Q58.32 4.70 58.48 4.79L58.48 4.79L58.48 4.79Q58.63 4.89 58.72 5.05L58.72 5.05L61.15 10.30L63.56 5.05L63.56 5.05Q63.64 4.89 63.80 4.79L63.80 4.79L63.80 4.79Q63.97 4.70 64.15 4.70L64.15 4.70L64.15 4.70Q64.33 4.70 64.47 4.77L64.47 4.77Z"></path></g><!----><g data-v-423bf9ae="" id="9dbaf4c5-3ebb-4a67-a73e-d6228990b920" transform="matrix(5.454545454545454,0,0,5.454545454545454,-24.490914864973576,-63.563632965087876)" stroke="none" fill="#828282"><path clip-rule="evenodd" d="M26.7 13.4L25.2 16l6.6 4-6.6 4 1.5 2.6 8.7-5.3v-2.6l-8.7-5.3zm-13.4 0l-8.7 5.3v2.6l8.7 5.3 1.5-2.6-6.6-4 6.6-4-1.5-2.6zm3 14.2l2.9.7 3.5-15.8-2.9-.7-3.5 15.8z"></path></g><!----></svg>