<svg id="visual" viewBox="0 0 960 200" width="960" height="200" xmlns="http://www.w3.org/2000/svg" xmlns:xlink="http://www.w3.org/1999/xlink" version="1.1"><path d="M0 175L12.3 178C24.7 181 49.3 187 74 183.7C98.7 180.3 123.3 167.7 148 164.5C172.7 161.3 197.3 167.7 221.8 166.3C246.3 165 270.7 156 295.2 152.5C319.7 149 344.3 151 369 158.7C393.7 166.3 418.3 179.7 443 182.3C467.7 185 492.3 177 517 175.5C541.7 174 566.3 179 591 177.7C615.7 176.3 640.3 168.7 664.8 167C689.3 165.3 713.7 169.7 738.2 172.2C762.7 174.7 787.3 175.3 812 176.5C836.7 177.7 861.3 179.3 886 179.7C910.7 180 935.3 179 947.7 178.5L960 178L960 201L947.7 201C935.3 201 910.7 201 886 201C861.3 201 836.7 201 812 201C787.3 201 762.7 201 738.2 201C713.7 201 689.3 201 664.8 201C640.3 201 615.7 201 591 201C566.3 201 541.7 201 517 201C492.3 201 467.7 201 443 201C418.3 201 393.7 201 369 201C344.3 201 319.7 201 295.2 201C270.7 201 246.3 201 221.8 201C197.3 201 172.7 201 148 201C123.3 201 98.7 201 74 201C49.3 201 24.7 201 12.3 201L0 201Z" fill="#1e66aa" stroke-linecap="round" stroke-linejoin="miter"></path></svg>